<?xml version="1.0" encoding="UTF-8"?>
<svg id="Layer_2" data-name="Layer 2" xmlns="http://www.w3.org/2000/svg" viewBox="0 0 106.74 64.3">
  <defs>
    <style>
      .cls-1 {
        fill: #0278b6;
      }
    </style>
  </defs>
  <g id="Layer_1-2" data-name="Layer 1">
    <g>
      <path class="cls-1" d="M36.21.17c10.47-1.25,21.06,4.47,25.19,14.17,1.25,2.93,3.46,7.92,1.21,10.55-1.61,1.87-6.29,5.96-8.38,7.82-1.68,1.5-4.2,2.55-5.62,3.88-2.22,2.06-3.77,5.46-6.67,7.86C24.15,59.16,1.89,41.89,6.41,20.1,8.54,9.82,26.85,1.29,36.21.17ZM49.75,32.98l6.41-4.48c3.41-3.66,5.98-3.96,5.18-9.62-1.09-7.65-10.58-15.68-18.07-16.57-3.87-.46-9.63-.3-12.51,2.17,13.22,1.95,21.75,15.57,19,28.5ZM48.52,27.21c0-11.36-9.21-20.57-20.57-20.57S7.37,15.85,7.37,27.21s9.21,20.57,20.57,20.57,20.57-9.21,20.57-20.57Z"/>
      <path class="cls-1" d="M81.88,19.89c10.48,0,17.7,10.15,16.5,20.09-.43,3.54-6.95,9.06-9.81,11.43-4.24,3.51-11.93,9.54-17.31,10.07-9.08.9-18.84-3.41-20.24-13.27-1.6-11.2,7-13.51,14.33-18.9,5.39-3.96,8.89-9.42,16.53-9.42ZM83.84,51.98l6.41-4.48c8.36-5.62,8.48-15.15,1.15-21.79-10.4-9.42-17.98-1.59-25.98,5.88l9.06,2.11c6.99,3.46,11.41,10.33,9.38,18.28ZM64.7,33.69c-3.52.47-7.76,2.96-9.83,5.82-9.21,12.73,10.63,26.93,22.82,17.23,11.58-9.22-.03-24.77-12.99-23.05Z"/>
      <path class="cls-1" d="M92.77,58.13h11.46c.42,0,1.63.93,2.51.56l-.84,1.67h-13.41c-.65,0-1.58-.84-3.31-.54-3.69.65-7.92,3.93-11.84,4.39-.54.06-1.07.11-1.61.07-1.34-2.69,3.57-2.45,5.69-3.25,8.54-3.24,16.38-8.31,19.18-17.43.72.09,1.03.78,1.12,1.43.47,3.49-6.9,10.21-8.95,13.1Z"/>
      <path class="cls-1" d="M54.22,58.69l-1.38,1.12c-4.95-3.12-11.03-4.12-16.79-4.48-9.18-.57-18.71,0-27.93-.57l-1.4-1.67,35.98.62c4.3.64,7.79,3.05,11.52,4.98Z"/>
      <path class="cls-1" d="M.02,57.57l39.97.53,6.39,1.42c-.67,1.02-1.48.79-2.48.86-9.04.67-20.4-.83-29.62-1.17-3.88-.14-8.66.49-12.34.05-1.12-.13-2.08-.25-1.92-1.7Z"/>
      <path class="cls-1" d="M43.72,26.79c0,8.93-7.24,16.16-16.16,16.16s-16.16-7.24-16.16-16.16,7.24-16.16,16.16-16.16,16.16,7.24,16.16,16.16ZM41.97,26.78c0-7.91-6.41-14.32-14.32-14.32s-14.32,6.41-14.32,14.32,6.41,14.32,14.32,14.32,14.32-6.41,14.32-14.32Z"/>
      <path class="cls-1" d="M65.83,38.7c9.77-1.06,14.3,11.52,5.93,15.45-12.61,5.93-20.08-13.91-5.93-15.45ZM66.38,40.38c-3.25.17-7.16,3.16-6.47,6.72,1.86,9.5,16.98,7.11,14.17-1.85-.75-2.39-5.26-5-7.71-4.87Z"/>
      <path class="cls-1" d="M25.57,17.47c11.42-1.95,15.56,12.19,6.41,17.02-14.15,7.48-20.93-14.55-6.41-17.02ZM25.56,19.14c-12.15,2.52-5.08,21.29,5.7,14.08,7.38-4.93,4.4-16.18-5.7-14.08Z"/>
    </g>
  </g>
</svg>