<?xml version="1.0" encoding="UTF-8"?>
<svg id="Layer_2" data-name="Layer 2" xmlns="http://www.w3.org/2000/svg" viewBox="0 0 97.25 65.36">
  <defs>
    <style>
      .cls-1 {
        fill: #fff;
      }

      .cls-1, .cls-2 {
        stroke: #0278b6;
        stroke-miterlimit: 10;
        stroke-width: .57px;
      }

      .cls-2 {
        fill: #0278b6;
      }
    </style>
  </defs>
  <g id="Layer_1-2" data-name="Layer 1">
    <g>
      <g>
        <path class="cls-1" d="M50.34,40.08c-.55,2.31-1.34,2.68-3.65,2.34-1.55-.23-1.97-.73-1.74-2.34.77-.22,5.11-.39,5.39,0Z"/>
        <path class="cls-2" d="M85.69,47.14c.78-.04,1.44-.07,2.15.33,1.96,4.56-4.83,5.72-8,5.2-1.72-.28-1.18-1.94-.31-2.89,1.45-1.58,4.05-2.55,6.16-2.64ZM79.73,51.68h3.3c.13,0,1.88-.54,2.15-.64.41-.16,1.28-.54,1.55-.85.22-.26.62-1.32.56-1.59-.28-1.22-4.4.06-5.23.52-.43.23-2.79,2.12-2.33,2.56Z"/>
        <path class="cls-2" d="M48.9,47.13c2.11-.29,6.21,1.23,7.28,3.2,2.17,3.99-6.01,2.24-7.7,1.11-1.53-1.02-1.98-3.98.42-4.31ZM55.54,51.67c-.11-1.27-1.9-2.46-3-2.89-.75-.3-4.04-1.2-4.38-.17-.78,2.77,6.86,3.83,7.38,3.07Z"/>
        <path class="cls-2" d="M61.24,51.08h12.99c.38,0,.38,1,0,1h-12.99c-.31,0-.46-.82,0-1Z"/>
      </g>
      <g>
        <path class="cls-2" d="M12.56,44.08h2.4s.02-2.47.02-2.47l1.14-.62-1.5-7.26c-1.83-.98-3.15-1.97-3.76-4.05-1.26-4.32.79-7.52,4.9-8.88L29.77,1.81c2.22-1.79,5.19-2.14,7.5-.32l23.01,4.98c2.29-2.06,6.59-1.43,7.04,1.95.09.7-.15,1.69.12,2.28.51,1.13,3.99,3.09,3.89,4.29-.03.36-.42.72-.37.98.01.05.56.87.61.89.69.4,2.18-1.19,2.97-.88,1.23,1.25,3.34,1.97,4.58,3.03.32.27.44.44.56.84.15.5.73,3.98.66,4.35-.09.46-1.1.83-1.54.85-.63.02-1.33-1.17-1.86-1.65-.43-.39-2.36-1.79-2.5-2.1-.32-.7.36-1.09.3-1.79l-4.9,2.59c.53,1.12-.32,2.45-.28,3.29.04.97,1.68,4.26.38,5.01-1.02.58-3.3.27-1.59-.79-1.12-1.2-2.81-1.66-3.18-3.42-.28-1.36-.15-2.96-.42-4.36.2-1.67,4.94-3.34,6.27-4.3l.12-.41c-.62-.03-.64-.58-.9-1-.92,1.07-3.83,1.35-3.3,3-.26.25-2.26-.85-2.49-1.21-.5-.78-.83-3.63-1.4-4.19-.24-.23-1.22-.29-1.7-.49-.44-.18-1.32-.99-1.49-1.02-.24-.03-.65.17-1.01.14-5.5-.56-11.26-.43-16.8-.61-2.38-.08-4.75-.9-6.8.78l-9.59,13.02.03.74,5.65,14.71,2.43.21.27,2.72,2.11.2.03,12.06c.19.6,1.65.24,2.17.33v7.3l.3.3h9s.96-.2.9-.4c-2.38-.64-1.72-3.5-1.8-5.4-.54-.1-2.17.28-2.37-.33.17-3.14-.32-6.69-.04-9.77.2-2.09,2.52-3.05,3.61-4.69-1.36-.05-3.44-.09-3.9-1.6-.78-2.58.23-2.83,2.59-3.01,1.16-.09,3.47-.29,4.21.61h.3c1.57-4.04,2.75-6.41,7.35-7.14,4.99-.79,15.92-.94,20.64.64,2.85.96,3.5,4.38,5.32,6.49.3.06.51-.46.82-.55.7-.21,5.84.07,6.16.55.72,3.32-.8,3.84-3.71,4.01-.13.47.12.34.26.46,1.04.92,2.91,2.24,3.22,3.57l.1,10.44c-.2.62-2.01.22-2.57.33-.07,1.79.38,3.54-.89,5.01-.25.29-.68.27-.71.59l9.71.39.09.61c-2.3.02-4.6-.02-6.9,0-16.17.12-32.63.22-48.76.22-13.45,0-26.9.02-40.35-.05l-.54-.46.3-.5h9.3v-7.3c.64-.6,1.77-.18,2.6-.3v-12.39ZM38.93,6.37c0-2.78-2.25-5.03-5.03-5.03s-5.03,2.25-5.03,5.03,2.25,5.03,5.03,5.03,5.03-2.25,5.03-5.03ZM55.94,11.1c-.17-1.35-.07-2.98.35-4.31l-.29-.25-17.06-3.63c.89,1.99,1.43,3.72.56,5.85-.26.65-.82,1.08-.96,1.74l17.39.6ZM62.48,6.35c-3.1.64-3.34,5.91.35,6.16,5.08.35,4.52-7.17-.35-6.16ZM27.95,6.5l-10.79,13.89c-.06.44.07.24.3.29.78.19,1.57.18,2.35.45,2.36.8,3.6,2.75,4.44,4.95l9.69-13.5c.19-.49-1.07-.26-1.45-.34-2.52-.55-4.69-3.1-4.55-5.75ZM59.34,11.3c-.39-1.42-.51-2.53.2-3.89l-2.4-.51-.4,4.2,2.6.2ZM70.13,15.09c.08-.29-.08-.33-.19-.5-.61-.9-2.43-1.85-3.1-2.89-.74.99-1.67,1.33-2.68,1.92l1.5,3.87,4.48-2.4ZM74.93,18.29c.17-.19-.67-1.17-1.01-1.12l-7.85,4.31-.13.61c3.38-.15,5.92-2.84,8.99-3.8ZM78.59,23.63c.1.09.22.12.33.17l.41-.21-.7-3.49-2.7-1.8-.31,2.59c.74.73,1.64,1.31,2.42,2,.26.23.37.59.55.75ZM23.22,27.5c0-3.23-2.62-5.85-5.85-5.85s-5.85,2.62-5.85,5.85,2.62,5.85,5.85,5.85,5.85-2.62,5.85-5.85ZM68.93,22.49l-2.8.6c.14,1.24-.4,2.83.5,3.8.25.26,2.5,1.95,2.7,1.8-.07-1-.74-2.19-.81-3.1-.08-1.11.6-1.97.4-3.09ZM30.15,41.08l-5.8-14.79c.59,5.02-3.69,8.84-8.6,7.8l1.5,7h12.89ZM84.53,42.08c-.87-1.78-1.92-3.81-3.04-5.46-1.53-2.26-1.78-2.52-4.52-3.07-4.07-.81-9.37-.86-13.54-.67-2.61.12-7.12.28-8.88,2.31l-3.8,6.89h33.78ZM50.34,40.08c-.27-.38-4.62-.21-5.39,0-.23,1.61.19,2.11,1.74,2.34,2.31.34,3.1-.03,3.65-2.34ZM89.02,39.88c-1.19-.13-2.58.1-3.8,0l-.27.46c.92,2.79,2.94,2.36,5.32,1.69l.16-1.77c-.06-.08-1.22-.36-1.41-.39ZM15.95,42.07v2.01h17.22v-2.01H15.95ZM90.32,57.27v-8.9c0-1.72-4.11-4.22-5.29-5.42l-34.92.02-4.77,4.6v9.69c3.13.27,6.85-.36,9.9,0,7.96.92,16.93.52,24.97,0h10.11ZM35.15,45.08H13.56v11.39h21.59v-11.39ZM10.96,57.47v6.61h26.39v-6.61H10.96ZM54.94,58.27h-6.9c-.52.79-.46,3.13.1,3.9.82,1.13,4.01,1.09,5.29.88.39-.06,1.51-.85,1.51-1.09v-3.7ZM87.52,58.27h-7v3.3c0,.62,1.18,1.34,1.74,1.45.69.14,3.62.14,4.24-.07,1.77-.59.87-3.32,1.01-4.69ZM79.53,58.67h-23.29l-.3.3v3.2c0,.38-1.01,1.62-1.6,1.5v.2s26.98,0,26.98,0l-1.31-.99c-.13-.16-.49-.77-.49-.91v-3.3Z"/>
        <g>
          <path class="cls-2" d="M64.93,9.5c0-.9-.73-1.62-1.62-1.62s-1.62.73-1.62,1.62.73,1.62,1.62,1.62,1.62-.73,1.62-1.62Z"/>
          <circle class="cls-2" cx="47.94" cy="9.1" r=".64"/>
          <path class="cls-2" d="M20,27.38c0,1.51-1.23,2.74-2.74,2.74s-2.74-1.23-2.74-2.74,1.23-2.74,2.74-2.74,2.74,1.23,2.74,2.74ZM18.98,27.41c0-.95-.77-1.72-1.72-1.72s-1.72.77-1.72,1.72.77,1.72,1.72,1.72,1.72-.77,1.72-1.72Z"/>
          <path class="cls-2" d="M33.09,4.14c4.61-1.05,3.97,5.83-.19,4.3-2.11-.78-1.65-3.88.19-4.3ZM35.37,6.35c0-.79-.64-1.42-1.42-1.42s-1.42.64-1.42,1.42.64,1.42,1.42,1.42,1.42-.64,1.42-1.42Z"/>
          <path class="cls-2" d="M64.93,9.5c0,.9-.73,1.62-1.62,1.62s-1.62-.73-1.62-1.62.73-1.62,1.62-1.62,1.62.73,1.62,1.62ZM64.05,9.55c0-.42-.34-.75-.75-.75s-.75.34-.75.75.34.75.75.75.75-.34.75-.75Z"/>
          <circle class="cls-1" cx="63.29" cy="9.55" r=".75"/>
        </g>
      </g>
    </g>
  </g>
</svg>