<?xml version="1.0" encoding="UTF-8"?>
<svg id="Layer_2" data-name="Layer 2" xmlns="http://www.w3.org/2000/svg" viewBox="0 0 87.82 80.68">
  <defs>
    <style>
      .cls-1 {
        fill: #fff;
      }
    </style>
  </defs>
  <g id="Layer_1-2" data-name="Layer 1">
    <g>
      <path class="cls-1" d="M71.51,50.77c-.32.27-.36,1.19-1.19,1.9-1.14.97-2.23.67-3.25,1.27-1.17.68-3.88,4.7-5.8,6.12-1.11.81-2.45,1.52-3.73,2.03-1.61.64-5.57,1.18-6.41,1.71-1.15.72-.42,2.93-4.17,3.32-4.03.42-7.67-1.19-6.29-5.87.86-2.91,7.27-3.19,8.97-1.33,1.52,1.66-.14,2.34,3.71,1.68,4.81-.83,9.09-4.38,11.89-8.24-1.14-.58-1.82-1.15-2.03-2.49-.42-2.71-.37-11.96-.03-14.78.27-2.31,1.76-3.46,4.12-3.07.72-.7-2.84-9.16-3.7-9.68-.76-.47-1.48.15-2.21.1-1.59-.12-4.89-3.65-6.71-4.72-6.34-3.71-13.91-3.86-20.39-.42-1.99,1.06-4.85,4.2-6.43,4.68-1.1.33-2.14-.3-2.67.16-1.96,1.7-3.33,7.23-4.32,9.68,2.05.17,4.11.5,4.49,2.89.42,2.7.35,11.53.02,14.36-.39,3.45-3.04,4.29-6.19,3.31-1.7-.53-1.57-2.12-2.14-2.59-.7-.58-2.13-.35-3.19-1.95-1.38-2.08-1.33-10.15.55-11.99.65-.63,1.77-.75,2.29-1.21,3.13-2.79,2.59-4.45,3.95-7.96s4.5-9.92,7.4-12.33c9.41-7.8,25.57-7.43,34.12,1.62,1.16,1.22,3.96,6.58,4.78,8.37.95,2.07,1.65,5.97,2.47,7.39,1.09,1.89,3.22,2.87,4.6,4.03,2.32,1.97,2.19,10.84-.13,12.91-.91.81-1.99.78-2.38,1.11ZM62.37,21.49c1.18-1.18-4.28-5.65-5.37-6.33-9.81-6.12-24.84-4.53-31.21,5.71,2.05,1.53,4.01-1.84,5.63-3,7.06-5.09,17.96-4.88,25.17-.24,1.08.69,4.86,4.79,5.79,3.87ZM23.33,50.87v-15.62c-2.56-1.41-4.26-1.04-4.54,2.04-.18,1.95-.24,12.44.29,13.69.44,1.03,2.47,1.14,3.42.7l.83-.82ZM65.27,51.46c1.57-.04,4.1.66,4.49-1.43s.28-10.85.02-13.15c-.32-2.75-2.59-3.01-4.47-1.58-.34,5.37-.96,10.82-.03,16.15ZM17.16,37.51c-3.62.53-3.63,11.13,0,11.1v-11.1ZM71.41,37.51v11.51c3.17-.86,2.75-5.73,2.49-8.45-.14-1.54-.75-3.03-2.49-3.06ZM43.76,60.62c-2.27.66-2.32,4.65,1.14,4.77.51.02,3.54-.44,3.74-.72.41-.58.34-2.96-.22-3.53-.74-.75-3.64-.81-4.65-.52Z"/>
      <path class="cls-1" d="M6.89,21.49c-1.18-1.18,6.78-9.59,8.02-10.67,32.54-28.39,85.79,3.49,70.07,45-.48,1.27-2.62,5.01-2.7,5.52-.17,1.06,2.68,2.46.81,5.74-2.55,4.47-10.13,1.23-7.47-4.19,1.17-2.39,2.83-1.52,4.55-2.02,2.34-.69,5.41-12.73,5.62-15.34C88.91,7.41,42.12-12.24,14.89,13.26c-2.38,2.23-4.26,5.69-6.35,7.62-.56.52-.81.76-1.65.61ZM81.9,64.97c0-1.42-1.15-2.56-2.56-2.56s-2.56,1.15-2.56,2.56,1.15,2.56,2.56,2.56,2.56-1.15,2.56-2.56Z"/>
      <path class="cls-1" d="M35.18,48.26c-9.11-3.3-9.68-17.22-.22-20.68,3.6-1.32,16.38-1.24,19.88.41,5.34,2.53,7.04,9.54,4.73,14.74-2.97,6.65-9.48,6.71-15.8,6.38-1.62.54-6.36,6.09-7.49,6.1-1.93.02-.62-5.63-1.09-6.95ZM55.65,45.59c5.57-5.24,3.83-16.16-4.16-17.13-2.99-.36-11.82-.36-14.77.05-7.65,1.05-9.14,11.69-4.16,16.83.84.87,3.49,2.06,3.72,2.44.37.61.43,3.94.2,4.93.55.42,4.82-3.97,6.05-4.43,4.46-1.69,8.88,1.3,13.12-2.7Z"/>
      <path class="cls-1" d="M6.89,23.13c.17.95-1.1,1.89-1.09,2.67.02.88,1.78,2.1,1.44,4.01-.42,2.29-3.49,2.68-3.64,3.06-.96,2.32-1.01,8.81-.83,11.44.47,6.83,3.39,13,6.18,19.09-.39.36-.96.06-1.34-.52C1.91,54.15-.72,42.52,2.39,32.41c-2.11-1.09-3.09-2.92-1.83-5.14s2.72-1.21,3.87-1.88c.77-.45.64-2.8,2.46-2.27ZM5.62,28.93c0-1.09-.88-1.97-1.97-1.97s-1.97.88-1.97,1.97.88,1.97,1.97,1.97,1.97-.88,1.97-1.97Z"/>
      <path class="cls-1" d="M73.88,79.84c.09.72-.93.39-1.43.41-13.67.57-27.4.39-41.12.43l-5.94-.83,33.4-.51c2.42-1.28,5.06-2.28,7.41-3.69,1.7-1.02,7.43-5.93,8.29-6.09,1.1-.21.71,1.39.2,1.85l-11.91,8.43h11.1Z"/>
      <path class="cls-1" d="M43.76,60.62c1.01-.29,3.91-.24,4.65.52.56.57.63,2.95.22,3.53-.2.28-3.22.74-3.74.72-3.46-.13-3.41-4.12-1.14-4.77Z"/>
      <path class="cls-1" d="M39.22,38.1c0-1.01-.82-1.83-1.83-1.83s-1.83.82-1.83,1.83.82,1.83,1.83,1.83,1.83-.82,1.83-1.83ZM46.21,38.1c0-1.01-.82-1.83-1.83-1.83s-1.83.82-1.83,1.83.82,1.83,1.83,1.83,1.83-.82,1.83-1.83ZM53.19,38.13c0-1-.81-1.81-1.81-1.81s-1.81.81-1.81,1.81.81,1.81,1.81,1.81,1.81-.81,1.81-1.81Z"/>
      <circle class="cls-1" cx="37.4" cy="38.1" r="1.83"/>
      <circle class="cls-1" cx="44.38" cy="38.1" r="1.83"/>
      <circle class="cls-1" cx="51.38" cy="38.13" r="1.81"/>
    </g>
  </g>
</svg>