<?xml version="1.0" encoding="UTF-8"?>
<svg id="Layer_2" data-name="Layer 2" xmlns="http://www.w3.org/2000/svg" viewBox="0 0 58.85 61.88">
  <defs>
    <style>
      .cls-1 {
        fill: #0278b6;
        stroke: #0278b6;
        stroke-miterlimit: 10;
        stroke-width: .51px;
      }
    </style>
  </defs>
  <g id="Layer_1-2" data-name="Layer 1">
    <g>
      <g>
        <path class="cls-1" d="M21.83,28.61v-2.15c-.77.28-1.81.1-2.49.25-.57.13-1.04.67-1.71.69-1.95.07-1.34-1.96-1.9-3.07-.08-.15-1.1-1.39-1.19-1.41-.25-.05-.65.27-1.11.16-.38-.09-.69-.66-1.25-.66s-3.21,1.45-3.46,1.18l.04-.91,3.26-1.51.34-1.81c1.66-.93,3.75-.99,3.94,1.32.1,1.17-.92,1.85.28,3.05.56.56,1.23.23,1.94.45.93.29,1.66,1.94,3.33,1.33-.08-1.47.15-2.76,1.9-2.64.08-.97-.33-2.64.78-3.15.65-.3,5.78-.29,6.75-.18,1.98.23,1.5,1.81,1.56,3.34,3.2-.18,1.75,3.47,2.24,5.51.27.39,2.14.19,2.82.29,2.18.31,4.23,2.28,5.03,4.27l.12,18.89-.19.29-.73.1c-.03-4.91-.31-9.76-.25-14.68.01-1.1.38-2.01.22-3.3-.31-2.6-2.58-4.42-5.11-4.68-4.22-.43-13.18-.39-17.43-.01-3.05.27-5,2.62-5.13,5.61-.05,1.16.25,2.11.26,3.1.05,4.73-.06,9.48,0,14.21h4.53c-.08-1.8-.24-3.05,1.75-3.62,1.78-.51,10.71-.39,12.94-.2,2.57.22,3.45,1.19,3.21,3.83.96.1,6.37-.24,6.68.24.13.2-.11.95-.36.95h-6.32v6.68h5.01v-4.06l-4.06-.24c-.1-.27.1-.95.36-.95h4.89v5.13l.39.32,14.88-.2-.03.93c-1.44.64-3.02.03-4.36.05-.36,0-.76.22-1.21.23-17.4.25-34.83-.22-52.23,0l-.39-.61.59-.36,12.53-.24v-4.65s.55-.6.6-.6h3.7v.95s-3.1,0-3.1,0v4.3h9.78v-6.8c0-.12-.38-.5-.24-.84h11.1c.06,0,.82-.28.85-.39.03-.57-.02-2.23-.64-2.44h-15.09c-.63.39-.05,6.75-.27,7.96-.13.73-.92.77-.96.48l-.24-4.65h-4.89c-.08,0-.36-.32-.6-.24v-19.93c0-1.37,3.54-4.89,4.89-4.89h3.46ZM15.32,20.93c0-.69-.56-1.25-1.25-1.25s-1.25.56-1.25,1.25.56,1.25,1.25,1.25,1.25-.56,1.25-1.25ZM32.09,22.88c.05-.68-.13-2.11-.88-2.34-.66-.2-5.8-.11-6.22.25l-.3,2.09c2.51-.08,4.9.33,7.4,0ZM22.78,24.43v3.82l.36.36h10.5c.66,0,.13-1.46.12-1.79-.03-.91.03-1.82-.01-2.73-.6-.02-1.17-.22-1.77-.26-1.17-.08-8.13-.14-8.72.13-.11.05-.46.39-.48.47ZM18.47,25.67c0-.5-.41-.91-.91-.91s-.91.41-.91.91.41.91.91.91.91-.41.91-.91ZM25.65,53.42v7.17h10.26v-7.17h-10.26Z"/>
        <path class="cls-1" d="M39.73,24.31h4.18c.3,0,1.39.75,1.57,1.06.11.2.46,1.53.46,1.68v7.04l-.6.23c-.99-.03-.46-6.57-.58-7.52-.39-2.95-6.1-.71-7.97-1.52-.62-1.07-.45-2.44.07-3.5.62-.43,2.71.09,3.47.09,2.1-.03,6.28-.92,7.85.79.27.3.86,1.44.86,1.77v9.07l-.59.36c-.24-.16-.31-.32-.36-.6-.29-1.58.1-4.19,0-5.96-.05-.87-.21-3.33-.7-3.83-.73-.75-5.94-.79-7.05-.59-.8.15-.59.78-.6,1.43ZM38.53,22.64c-1.31-.25-1.51.85-.97,1.81l.97.11v-1.91Z"/>
        <path class="cls-1" d="M54.28,52.83c-.25.79-4.24-.21-5.01-.48-1.75-.63-3.78-2.64-4.04-4.55-.2-1.44-.38-5.23-.27-6.67.03-.45.12-.87.26-1.29h.7c.77,4.58-1.56,11.78,5.49,11.68.11-.11-.09-2.48,0-2.98.22-1.22,2.86-1.1,2.86,0,0,.9.19,3.7,0,4.3Z"/>
        <path class="cls-1" d="M49.99,35.05v3.34h-5.37c-.7-.71-.23-1.99-.37-2.94.05-.16.54-.4.61-.4h5.13ZM45.22,36v1.43h3.82v-1.43h-3.82Z"/>
        <path class="cls-1" d="M49.51,39.82v5.61l.72,2.63c-.92.52-1.51-1.09-1.61-1.73-.21-1.27-.03-2.9-.06-4.24-.02-.8-.69-1.72.24-2.4l.72.13Z"/>
        <path class="cls-1" d="M36.39,37.91c1.06,0,.52.77.57,1.27.09.86.66,2.87-.09,3.39l-.48-.24v-4.41Z"/>
        <circle class="cls-1" cx="23.26" cy="33.38" r=".76"/>
        <path class="cls-1" d="M38.53,22.64v1.91l-.97-.11c-.54-.96-.34-2.06.97-1.81Z"/>
        <rect class="cls-1" x="45.22" y="36" width="3.82" height="1.43"/>
      </g>
      <g>
        <path class="cls-1" d="M26.57,9.72l-4.39,3.38c.11,1.79.68,2.73-.3,4.45-1.35,2.38-5.16,2.28-6.6.06-1.8-2.77.73-6.13,3.81-5.97.88.05,1.86.82,2.33.7.94-.25,3.48-3.25,4.39-3.51.64-.18.93.36.76.89ZM21.04,13.65c-2.17-2.4-6.7-.16-4.91,3.36,1.86,3.64,7.62-.35,4.91-3.36Z"/>
        <path class="cls-1" d="M29.42.26c4.23-.23,5.97,6.14,1.24,7.7-6.34,2.09-7.87-7.34-1.24-7.7ZM28.68,1.46c-4.21.87-2.92,6.88,1.57,5.86,3.39-.77,3.07-6.82-1.57-5.86Z"/>
        <path class="cls-1" d="M36.56,11.71c2.77-.64,5.9,2.25,4.55,5.03-1.77,3.63-7.29,2.28-7.22-1.62.02-1.18,1.56-3.15,2.67-3.41ZM39.65,13.41c-2.36-2.31-6.43,1.18-4.08,3.72,2.29,2.48,6.72-1.14,4.08-3.72Z"/>
        <path class="cls-1" d="M12.76,7.13c.11.63.77.21,1.08.45.22.17,2.54,3.5,2.5,3.72-.34,1.64-2.53-2.07-2.97-2.28l-.61-1.66c-4.48,2.56-7.29-4.67-2.58-5.8,3.69-.89,5.72,3.86,2.58,5.57ZM13.26,4.66c0-1.26-1.02-2.28-2.28-2.28s-2.28,1.02-2.28,2.28,1.02,2.28,2.28,2.28,2.28-1.02,2.28-2.28Z"/>
        <path class="cls-1" d="M41.88,13.1l3.3-1.23c.11-4.96,7.45-2.32,4.7,1.24-1.93,2.5-3.3.12-4.56,0-1.1-.11-3.56,1.98-3.45,0ZM49.34,11.59c0-.88-.71-1.58-1.58-1.58s-1.58.71-1.58,1.58.71,1.58,1.58,1.58,1.58-.71,1.58-1.58Z"/>
        <path class="cls-1" d="M5.3,21.97c4.04-.89,4.6,6.17-.42,4.85-2.6-.68-2.06-4.31.42-4.85ZM7.53,24.48c0-.88-.71-1.59-1.59-1.59s-1.59.71-1.59,1.59.71,1.59,1.59,1.59,1.59-.71,1.59-1.59Z"/>
        <path class="cls-1" d="M32.45,7.85c.35-.07.51.29.69.49.25.28,2.07,2.65,2.16,2.85.17.37.16.84-.24.95-.78.22-.96-1-1.35-1.51-.21-.28-2.54-2.53-1.27-2.78Z"/>
        <circle class="cls-1" cx="17.56" cy="25.67" r=".91"/>
      </g>
    </g>
  </g>
</svg>