<?xml version="1.0" encoding="UTF-8"?>
<svg id="Layer_2" data-name="Layer 2" xmlns="http://www.w3.org/2000/svg" viewBox="0 0 95.02 62.23">
  <defs>
    <style>
      .cls-1 {
        fill: #0278b6;
      }
    </style>
  </defs>
  <g id="Layer_1-2" data-name="Layer 1">
    <g>
      <path class="cls-1" d="M9.59,59.65l-.07-32.53-.77-.74c-1.71.23-6.28-1-5.68-3.28.45-1.71,18.86-13.11,21.23-15.71,3.12-2.7,5.66-.19,8.5,1.51,5.48,3.29,15.37,9.01,19.93,12.92.75.64,1.48,1.16,1.72,2.2-1.25,2-3.17,2.54-5.43,2.26l-.08,6.23-1.43.84-.65-7.44-19.4-12.18c-1.85-.09-11.59,8.44-14.46,9.62-.8.33-1.52.49-2.39.39l16.5-12.02,20.87,12.82c1.36.52,2.78.18,3.82-.79L27.02,7.74,5.81,22.77l-.77,1.5,5.58,1.84.48,33.54h9.6v-12.89l.76-.76h12.63l.76.76v14.4H.75l-.75-.76.75-.76h8.84ZM22.23,47.78v11.88h10.87c1.86-3.41-.55-8.2.26-12.13-1.88.48-10.52-1.69-11.12.26Z"/>
      <path class="cls-1" d="M86.92,58.14h-1.52v-18.95c0-.15.72-.57.04-1l-15.96-9.69-13.89,8.41c-.2-.94.47-1.22,1.05-1.73,1.2-1.04,11.6-8.19,12.34-8.2l17.42,10.72c1.33.6,2.24.01,3.04-1.05l-19.98-12.89-1.61.38c-1.59.99-15.11,10.95-15.8,10.23-.23-1.23.12-1.27.83-1.95,1.78-1.71,11.41-8.04,13.87-9.38.76-.41,1.79-1.27,2.66-1.19,3.34.29,17.51,11.83,21.61,13.76,1.69,2.23-2.89,3.4-4.09,4.57v17.94Z"/>
      <path class="cls-1" d="M78.29,17.67c-2.13.19-4.11,2.02-6.29,1.08l-19.25-11.68c-1.59-.08-8.55,6.1-9.56,6.07-.37-.01-.93-.77-.52-1.52.6-1.11,9.14-6.26,10.59-6.05l20,12.38,3.03-1.51L52.2,1.61c-.77-.07-10.54,8.2-12.76,8.81-1.05.29-1.58-.08-1.54-1.3,4.3-1.6,9.36-7.23,13.28-8.72.67-.26,1.25-.57,2-.3l24.41,15.05.7,2.52Z"/>
      <path class="cls-1" d="M47.35,36.51c7.43-1.68,12.82,5.32,7.99,11.53-5.03,6.48-15.32.48-12.5-7.45.53-1.49,2.96-3.73,4.51-4.08ZM55.53,43.41c0-3.16-2.56-5.72-5.72-5.72s-5.72,2.56-5.72,5.72,2.56,5.72,5.72,5.72,5.72-2.56,5.72-5.72Z"/>
      <path class="cls-1" d="M59.62,62.18c-1.48.25-.82-.35-1.07-1.17-1.1-3.63-.78-6.06-5.38-6.77-6.61-1.03-12.62-.17-11.75,7.96h-1.51c-.42-4.95.81-9.02,6.31-9.61,7.68-.82,14.51.17,13.39,9.6Z"/>
      <path class="cls-1" d="M64.53,42.58c8.66-1.98,9.68,11.58,0,9.39-4.34-.98-4.61-8.33,0-9.39ZM69.7,47.33c0-1.95-1.58-3.52-3.52-3.52s-3.52,1.58-3.52,3.52,1.58,3.52,3.52,3.52,3.52-1.58,3.52-3.52Z"/>
      <path class="cls-1" d="M61.14,55.61l.75-1.01c6.18-.59,14.7-1.31,13.15,7.59-1.53-.03-1.8-4.51-3.02-5.57-.28-.25-2.77-1-3.04-1h-7.83Z"/>
      <path class="cls-1" d="M95,61.17h-17.44c-.09,0-.79-.68-.76-1.01,5.11.84,11.64-1.11,16.45-.54,1.02.12,1.88.22,1.74,1.54Z"/>
      <rect class="cls-1" x="23.73" y="26.29" width="4.06" height="3.55" transform="translate(-.05 .04) rotate(-.09)"/>
      <rect class="cls-1" x="31.31" y="26.29" width="4.06" height="3.55" transform="translate(-.05 .06) rotate(-.09)"/>
      <polygon class="cls-1" points="27.79 33.37 27.79 36.91 24.25 36.91 23.74 33.38 27.79 33.37"/>
      <polygon class="cls-1" points="34.86 33.37 35.37 36.91 31.32 36.91 31.32 33.37 34.86 33.37"/>
    </g>
  </g>
</svg>