<?xml version="1.0" encoding="UTF-8"?>
<svg id="Layer_2" data-name="Layer 2" xmlns="http://www.w3.org/2000/svg" viewBox="0 0 111.61 61.37">
  <defs>
    <style>
      .cls-1 {
        fill: #0278b6;
      }
    </style>
  </defs>
  <g id="Layer_1-2" data-name="Layer 1">
    <g>
      <path class="cls-1" d="M55.53,9.81c.05.08,1.06.18,1.71.81,1.23,1.19,3.92,5.28,5.36,4.85,1.98-.6-.55-6.38,2.4-7.25,1.24-.36,16.65-.36,17.9,0,3.59,1.05,2.71,5.79,3.35,7.98.26.91,2.72,3.17,2.72,4.65v11.05c1.92.28,11.9-.93,11.9,1.42v24.65c-.88.21-.34-.83-.98-1.11-3.81-1.71-12.19.06-16.59-.59v-13.88l-1.7-.85v15.87h-1.13v-24.93l6.8-.57v-11.05c0-1.09-3.08-3.44-4.28-3.66-3.42-.63-14.27-.33-18.13-.05-1.05.08-2.07.18-3.01.67l-.41,7.3c1.26,1.72,8.63-1.03,8.85,1.97.29,3.89-5.79,14.11-6.32,18.63-1.2,2.04-4.07,2.14-6.17,2.05,3.18,3.15,4.82,7.21,2.27,11.32,6.13-.1,12.3.14,18.44.03,8.37-.16,15.45-.5,23.74,0,1.56.1,9.37-.6,9.37.82l-.92.77L0,61.37l9.89-1.15,13.34.02c.06-1.36-1.26-1.89-1.58-3.23-.59-2.53-.21-6.19,2.71-6.98-.35-1.11-2.15-.86-3.14-1.67-2.65-2.16-5.43-20.03-7.71-24.02-2.62-4.42-10.84-3.87-11.72-7-.53-1.87.21-2.26,1.86-2.46,2.08-.25,10.95.24,12.81.84,2.96.96,3.07,6.93,4.63,9.25l10.27.62.85-.85c.09-3.45-.24-6.15,1.47-9.3,1.27-2.35,6-5.73,6.43-7.17.61-2.06-.43-4.86.38-6.99.92-1.4,11.75-1.45,13.62-1.11.63.12,1.06.29,1.42.85v8.78ZM53.26,2.45l-10.8-.32c-.79.55-.79,4.72-.28,5.45.67.97,9.27-.41,11.11-.29l-.03-4.84ZM42.33,9.93c-5.46,3.5-10.51,8.41-7.81,15.5l24.72-.28c-.13-2.27,1.06-5.63.81-7.64-.35-2.83-4.59-6.53-7.09-7.69l-10.63.11ZM66.01,10.38c-1.05,0-1.42,4.45,0,5.1h17.57c1.32-1.13,1.32-3.97,0-5.1h-17.57ZM15.01,17.17c-2.73-.46-6.48.33-9.35,0l7.32,3.73,1.66,1.74c2.47,4.09,5.29,22.11,7.97,24.33.45.38.85.74,1.48.78l37.1-1.96c2.14-1.03,6.57-15.38,6.8-18.42H22.1c.24,2.09,4.09,15.28,5.38,15.28.47-.51.99-1,1.72-1.1,1.36-.19,11.05-.65,11.6-.3.46.29.86,1.42,1.13,1.98h-11.62c-.79,0-3.49,1.11-4.57.94-3.92-6.73-4.68-15.4-7.74-22.62-.57-1.35-1.47-4.13-2.98-4.38ZM99.1,39.78c-.03-1.93.85-4.8-1.2-5.76-1.77-.82-14.5-.83-15.47.69l-.83,5.4c5.87-1.18,11.78,1.1,17.51-.34ZM99.16,41.54h-14.45l-.85.85v11.9l.85.85h13.6l.85-.85v-12.75ZM31.73,60.24h9.07l-3.4-4.53c3.9,1.6,4.7,2.83,9.07,1.13l-1.13,2.25,3.39.57c.25-1.31-1.27-1.61-1.58-2.66-.29-.98-.25-2.79-.08-3.82.44-2.67,2.9-3.05,3.36-5.41-1.98,1.23-3.81-.1-5.94-.05-4.62.11-9.64,1.17-14.45.63,4.41,3.1,5.72,7.76,1.7,11.89ZM53.12,49.6c-7.28,1.4-3.98,11.22,2.55,9.97,7.53-1.43,4.14-11.26-2.55-9.97ZM27.07,50.71c-9.33,1.17.8,16.17,5.67,4.25-.65-2.54-2.98-4.58-5.67-4.25Z"/>
      <path class="cls-1" d="M76.49,51.18c-.12,2.84-4.25,1.38-6.23,1.69v-1.7s6.23,0,6.23,0Z"/>
      <path class="cls-1" d="M77.06,47.2c-2.48-.01-4.97-.21-7.36.57v-1.7s6.46-.48,6.46-.48l.9,1.61Z"/>
      <path class="cls-1" d="M42.49,43.24l.55-1.99c2.09-1.43,4.36.58,5.51.76.59.09,1.49-.96,2.69-1.06,2.44-.21,5.2.22,7.68.04v1.7c-1.54-.6-3.93.57-4.82.57h-11.62Z"/>
      <polygon class="cls-1" points="62.33 31.35 61.42 33.65 57.23 33.61 57.23 31.34 62.33 31.35"/>
      <rect class="cls-1" x="35.69" y="31.34" width="4.54" height="2.26"/>
      <polygon class="cls-1" points="40.23 35.88 40.23 38.14 36.27 38.71 36.26 35.87 40.23 35.88"/>
      <rect class="cls-1" x="28.33" y="31.34" width="3.97" height="2.27"/>
      <rect class="cls-1" x="43.06" y="31.34" width="3.97" height="2.27"/>
      <rect class="cls-1" x="28.89" y="35.87" width="3.97" height="2.27"/>
      <rect class="cls-1" x="43.06" y="35.87" width="3.97" height="2.27"/>
      <path class="cls-1" d="M41.93,51.74v2.26c-1.85-.18-3.11-.08-4.53,1.14l.07-2.75,4.46-.65Z"/>
    </g>
  </g>
</svg>