<?xml version="1.0" encoding="UTF-8"?>
<svg id="Layer_2" data-name="Layer 2" xmlns="http://www.w3.org/2000/svg" viewBox="0 0 83.76 77.11">
  <defs>
    <style>
      .cls-1 {
        fill: #fff;
      }
    </style>
  </defs>
  <g id="Layer_1-2" data-name="Layer 1">
    <g>
      <path class="cls-1" d="M22,21.81c-.15.04-1.07,1.03-.97,1.16.47,0,.84.27,1.18.57,5.67,5.01,12.54,11.83,18.49,16.16,1.86,1.36,2.83,1.97,5.05.79,3.71-1.97,9.88-8.7,13.63-11.67.59-.46,2.78-2.41,3.3-2.17l.59.99-11.48,10.29,15.17,13.07v-19.46l1.58.17.36.8c-.37,5.54.49,11.68.02,17.14-.16,1.84-.59,3.42-2.37,4.25l-44.86.13c-2.13-.73-2.84-2.7-3.02-4.77-.72-8.17.55-17.4.04-25.68-.04-1.18,1.9-3.33,2.89-3.33h38.15l.58.59-.58.97H22ZM20.24,24.54v26.08c.62.12.9-.07,1.38-.37,3.53-2.24,8.26-7.23,11.67-10.13.81-.69,1.91-1.63,2.91-1.96l-15.96-13.62ZM65.4,52.56l-15.04-13.6c-3.18,2.51-5.14,5.18-9.51,2.92-1.02-.53-3.1-3.11-3.88-2.76-4.15,4.24-9.31,7.69-13.62,11.69-.51.47-1.26.97-1.16,1.76h43.21Z"/>
      <path class="cls-1" d="M3.12,32.52c.42-3.93,3.17-10.79,5.29-14.18C20.7-1.33,49.26-6.02,67.34,8.38l-1.18.81C53.13.13,36.88-1.1,22.96,6.82,11.69,13.23,4.99,24.7,4.31,37.64c-.07,1.27,1.12,3.58-1.19,3.25.21-2.69-.28-5.73,0-8.37Z"/>
      <path class="cls-1" d="M66.9,65.08l-19.78.15-10.92,8.35c9.04,1.42,17.81-.19,25.95-4.22l.51.71c-7,3.83-14.79,5.39-22.77,5.06-1.32-.06-3.48-.77-4.7-.73-.67.02-1.23.65-1.54.63-.67-.04-7.83-3.77-9.27-4.24-.73-1.3-4.95-3.62-5.32-4.42-.09-.21-.07-.66.19-.58,4.37,3.36,9.4,5.85,14.73,7.3l13-9.54,19.7-.08c.44-.11.44-1.11.85-1.56,1.71-1.88,4.28-.64,4.45-.8.05-.05.04-.88.38-1.36,1.81-2.49,2.72-2.99,4.22-5.91,1.45-2.83,2.72-5.55,3.39-8.69,1.24,2.33-.68,6.08-1.8,8.33-1.44,2.89-3.62,5.75-5.69,8.21,3.47,4.84-3.52,8.82-5.61,3.38ZM71.88,64.19c0-.98-.79-1.77-1.77-1.77s-1.77.79-1.77,1.77.79,1.77,1.77,1.77,1.77-.79,1.77-1.77Z"/>
      <path class="cls-1" d="M83.76,19.98c0,5.91-4.79,10.7-10.7,10.7s-10.7-4.79-10.7-10.7,4.79-10.7,10.7-10.7,10.7,4.79,10.7,10.7ZM82.04,20.03c0-4.96-4.02-8.98-8.98-8.98s-8.98,4.02-8.98,8.98,4.02,8.98,8.98,8.98,8.98-4.02,8.98-8.98Z"/>
      <path class="cls-1" d="M34.26,60.74c.32-.28-.03-2.27,2.63-2.65,7.31-1.05,3.06,11.61-2.9,4.28-10.06-1.08-20.51.57-30.69-.06-1.11-.07-2.17-.51-3.3-.41v-1.17h34.26ZM39.29,61.3c0-.98-.79-1.77-1.77-1.77s-1.77.79-1.77,1.77.79,1.77,1.77,1.77,1.77-.79,1.77-1.77Z"/>
      <rect class="cls-1" x="15.58" y="75.9" width="60.72" height="1.2"/>
      <path class="cls-1" d="M9.07,54.01c.25.31,1.01.51,1.45,1.07,2.19,2.76-.51,3.23-2.41-.31-.39-.73-2.09-5.07-2.32-5.26-.3-.25-3.48.19-4.41-2.01-2.56-6.06,7.61-6.88,6.4-.6-.13.69-.81,1.1-.77,1.93.01.28,1.87,4.94,2.07,5.18ZM6.34,45.88c0-1.01-.82-1.83-1.83-1.83s-1.83.82-1.83,1.83.82,1.83,1.83,1.83,1.83-.82,1.83-1.83Z"/>
      <path class="cls-1" d="M70.94,22.11c-1.24-1.24-.06-4.25,1.67-4.57.89-.17,1.98.07,2.91-.01v4.28c1.25,1.23,3.53-3.68.13-5.78-6.24-3.86-9.94,8.1-3.05,8.53,1.09.07,3.57-1.17,3.3.36-3.9,1.31-8.6-.49-8.16-5.2.66-7.08,12.2-6.96,10.41,1.04-.75,3.36-3.37,1.03-3.92,1.12-.69.12-1.98,1.53-3.29.23ZM74.35,18.31c-3.53-.89-3.79,5.24-.36,2.85l.36-2.85Z"/>
    </g>
  </g>
</svg>