<?xml version="1.0" encoding="UTF-8"?>
<svg id="Layer_2" data-name="Layer 2" xmlns="http://www.w3.org/2000/svg" viewBox="0 0 51.07 58.51">
  <defs>
    <style>
      .cls-1 {
        fill: #0278b6;
        stroke: #0278b6;
        stroke-miterlimit: 10;
        stroke-width: .5px;
      }
    </style>
  </defs>
  <g id="Layer_1-2" data-name="Layer 1">
    <g>
      <path class="cls-1" d="M17.09,20.12c.18-.29.4-.28.7-.31,3.14-.37,7.6.05,10.91.02.66,0,1.26-.39,1.96,0s.21,3.79.35,4.64c3.14-.02,5.78,1.89,6.06,5.14.52,6.04-.08,13.37-.02,19.59.02,1.93-.1,4.23,0,6.05.04.64.31,1.25.21,1.91h13.22c.21,0,.42.63.3.8-.2.3-3.69.22-4.35.21-14.98-.1-30.29-.04-45.4.1l-.7-.41.3-.5h10.79c.03-8.24.01-16.47-.19-24.68-.69-.38-1.79-1.06-1.98-1.89-.46-1.95-.19-4.58-.24-6.62-.02-.68-.63-2.21.19-2.61.72-.35,5.28-.91,4.24.91-.26.12-.6-.2-.71-.2h-3.13v1.21s3.44-.11,3.44-.11l.19,2.33c1.13-.76,2.47-1.12,3.83-1.01v-4.54ZM30,20.63h-12.11v4.05h12.11v-4.05ZM10.03,24.26v6.15c0,.31.84,1.04,1.21,1.11-.47-2.68,1.45-4.61,1.01-7.26h-2.22ZM36.26,51.09v-21.08c0-.1-.28-1.27-.34-1.48-.45-1.48-1.85-2.83-3.41-3.05-4.93-.67-11.25.47-16.33-.02-2.17.36-3.87,1.82-3.94,4.13l.21,21.9h7.26l.2-3.03h8.88v2.82l7.47-.2ZM27.78,49.28h-7.06v8.07h7.06v-8.07ZM36.26,52.1h-7.47l-.11,5.06c.2.28,2.77.38,3.14-.11v-4.14c.57-.16,1.01.11,1.01.71v3.53h3.43v-5.04ZM15.68,52.51h-3.23v4.84c1.14-.02,2.3.11,3.41-.22l-.18-4.62ZM19.91,52.51h-3.23v4.84h2.93l.3-.3v-4.54Z"/>
      <path class="cls-1" d="M34.44.86c.23.81-.49,1.02-.77,1.54-.46.84-.72,1.77-1.21,2.63-1.41,2.45-3.31,3.39-6.15,2.92-1.22.4-.6,6.85-.71,8.12.18.52,3.03.96,3.6,1.44.29.24.2.59.2.91-1.66-.16-3.26-1.39-4.95-1.42-.54,0-1.68.23-2.24.38-.97.25-3.42,1.88-3.09.04l3.82-1.03c-.07-1.75.29-3.58-.41-5.23-1.99.47-3.28.77-5.01-.53-1.68-1.26-1.68-2.78-2.67-4.39-.28-.46-1.28-1.01-.89-1.56,3.57-2.08,10.64-.66,9.79,4.54-.08.51-.58,1.01-.55,1.39.03.33.47.76.55,1.26.19,1.15-.25,3.23.05,4.19.19.62.89.47.99-.36.24-2.05-.28-4.61,0-6.65.09-.6.56-1.2.59-1.65.03-.51-.46-1.09-.56-1.65-.9-5.08,5.99-6.46,9.63-4.89ZM26.57,7.11c4.25.79,5.01-2.66,6.65-5.55C30.22,0,24.68,2.14,25.77,6.1l3.36-2.99,1.58-.84c.96.87-.8,1.29-1.46,1.76-1.07.77-2.32,1.76-2.68,3.07ZM17.7,6.1c.82-.71,4.45,2.64,4.94,3.42.44,0,.31-1.56.26-1.87-.51-2.71-5.52-3.93-7.61-2.47,1.53,3.11,2.46,6.79,6.85,5.15.2-.22-1.64-2-1.91-2.22-.32-.26-2.9-1.68-2.53-2.01Z"/>
      <path class="cls-1" d="M45.34,50.89l-.7-.21c-.13-2.15-1.99-1.14-3.58-1.66-3.54-1.17-2.48-5.82-2.57-8.73-.02-.48-.21-.92-.22-1.4-.05-2.42.05-4.84,0-7.26l.92.08c.38.55-.09,11.57.08,13.44.27,2.99,2.69,3.49,5.25,3.12v-1.21c-1.51.18-3.53-.14-3.82-1.93-.37-2.22.05-6.02,0-8.47-.03-1.46-.49-3.15-.21-4.63.11-.6.47-.53,1.01-.5v13.01c0,2.01,2.58,1.67,3.83,1.11v5.25Z"/>
      <path class="cls-1" d="M33.03,20.43v1.01h4.94c.26,0,1.31,1.05,1.31,1.31v4.44l-.31.3-.5-.3v-3.23c0-.08-.32-1.14-.39-1.23-.82-1.09-5.11.19-5.87-.58-.5-.51-.06-1.88,0-2.53h7.16c.8,0,2.12,1.74,2.12,2.52v5.04c0,.38-1.01.38-1.01,0v-5.25c0-.4-1.11-1.51-1.51-1.51h-5.95Z"/>
      <path class="cls-1" d="M42.21,28.09c.55.17.43,2.42-.4,2.42h-3.93c.13-.47-.38-2.42.3-2.42h4.04ZM41.48,28.92c-.99.08-2.33-.4-3,.49,0,.49,2.47.28,2.9.28l.11-.76Z"/>
      <path class="cls-1" d="M41.48,28.92l-.11.76c-.42,0-2.9.21-2.9-.28.67-.89,2.01-.41,3-.49Z"/>
      <circle class="cls-1" cx="16.33" cy="28.9" r=".67"/>
      <circle class="cls-1" cx="19.11" cy="28.9" r=".65"/>
    </g>
  </g>
</svg>