<?xml version="1.0" encoding="UTF-8"?>
<svg id="Layer_2" data-name="Layer 2" xmlns="http://www.w3.org/2000/svg" viewBox="0 0 98.71 61.37">
  <defs>
    <style>
      .cls-1 {
        fill: #0278b6;
      }
    </style>
  </defs>
  <g id="Layer_1-2" data-name="Layer 1">
    <g>
      <g>
        <path class="cls-1" d="M83.97,49.66c.85-.24,4.39-4.17,4.99-5.15,2.48-4.03,3.22-8.17,1.76-12.7-1-3.1-3.42-4.87-4.57-7.74,2.53.14,4.5,3.35,5.39,5.46,3.07,7.24,1.06,14.9-4.91,19.88,6.22,3.12-4.97,1.82-5.32,2.17v4.83h7c.17,0,.71.64,1.21.49.14.18-.63.96-.72.96h-41.77l.72-1.45h7.48l-.21-4.86-2.69-.45v-1.45h10.87l3.39-5.79.99.98-2.2,4.81,5.26-.05,2.46-7.19c-.37-.37-9.05-1-10.38-1-2.66,0-6.16,1.62-8.33.63-1.82-.83-1.29-1.86.58-2.07,3.68-.42,11.72-.32,15.5,0,1.39.12,2.08.48,3.31.96,3.4-4.18,1.9-10.23,6.33-13.96l1.17,3.55-.44.56c-3.04-.17-2.25,2.86-3.04,5.16-.71,2.05-1.66,4.7-2.52,6.66-1.01,2.31-3.37,3.74-2.66,6.76h11.35ZM79.86,56.42l-.07-4.04-.72-.72c-7.49-.82-14.9-.36-22.39-.07v4.83h23.18Z"/>
        <path class="cls-1" d="M73.59,14.89c6.75,3.36,15.54,12.18,11.38,20.32-.91,1.79-1.94,2.96-4.01,2.03-.67-.3-.74-.1-.6-1.09,2.8-.02,3.84-2.02,3.9-4.59.14-6.28-5.88-12.33-11.32-14.66-.88.17-2.68,3.59-2.21,4.25l5.77,2.73c3.57-4.67,3.56,1.55-.46,2.91-.72.18-4.81-5.02-7.25-3.93-.78.35-1.2,1.94-2.43,1.71-1.23-1.43,7.13-11.21,7.25-13.32.12-2.09-3.74-3.82-5.46-4l-9.95,14.67,6.71,4.09-8.69-2.4,5.31,5.07c-2.16.61-4.94-1.79-6.22-3.48-.31-1.23,10.51-19.19,11.53-19.7,1.98-.98,7.17,1.87,8.16,3.43,1.81,2.85-1.58,5.71-1.39,5.98Z"/>
        <path class="cls-1" d="M54.75,23.59l-1.86,5c.25,1.28,7.02,4.48,8.32,4.21l1.79-3.87,2.37.46c-1.29,2.66-2.86,5.98-6.29,5.09-.74-.19-7.26-3.76-7.48-4.12-1.19-1.92,1.7-8.18,3.14-6.77Z"/>
        <path class="cls-1" d="M74.56,6.69c1.08-5.18-1.96-6.32-5.31-2.41-.04-.82-.06-1.64.21-2.44,1.77-5.22,11.87,2.04,5.1,4.85Z"/>
      </g>
      <g>
        <path class="cls-1" d="M36.89,11.52v12.31c0,.28.8,2.9,1.02,3.32,1.11,2.13,4.9,3.72,6.69,5.86,4.99,5.99,5.01,14.97.51,21.25-2.8.55.07-2.89.56-4.27,1.86-5.22,1.34-11.46-2.26-15.79-1.84-2.22-4.6-3.22-6.04-5.07-.43-.56-1.93-3.42-1.93-3.86v-11.83h-8.93c-.15,0-.69-.66-1.21-.48v11.35c0,3.27-7.57,6.86-9.66,9.66-6.23,8.36-2.09,22.02,8.3,24.54,2.45.59,9.16.64,11.7.29,2.67-.37,4.5-2.42,7.04-2.85,0,1.44-2.85,2.01-1.64,2.9.14.1.86.48.91.48h56.01c.09,0,.86.78.72.96l-2.63.51c-30.11-1.44-61.87,1.84-91.79,0-1.4-.09-2.7-.43-4.08-.51-.95-.77,1.92-1.45,2.17-1.45h17.14c-6.1-5.2-8.96-9.77-8.23-18.12.75-8.58,5.77-9.28,10.65-13.98,3.23-3.11,1.83-11,1.44-15.21.91-.36,1.69.76,2.18.78.45.02,1.37-.77,2.39-.8,2.97-.09,5.97.1,8.94.02Z"/>
        <path class="cls-1" d="M33.62,40.38c1.11,1.11,4.56-.2,5.81,2.65,1.59,3.64-2.62,5.92-5.9,5.2.22,3.36-2.2,6.45-5.69,4.93-2.76-1.2-1.62-4.59-2.5-5.22-8.45.68-7.29-7.73.4-7.5-.06-3.47.91-6.58,5.02-5.64,3.22.74,1.68,4.39,2.87,5.58ZM32.13,46.84c.71-1.17,8.68.83,5.24-4.18l-5.09-1.19-1.49-4.79c-4.98-1.07-2.49,3.42-4.53,5-2.11,1.64-6.5-.75-4.37,4.38l4.63.68c1.43,1.41-.35,4.39,2.15,5.13,3.01.89,3.52-2.8,3.46-5.05Z"/>
        <path class="cls-1" d="M38.34,6.7c.26.4,0,1.26-.49,1.67-1.71,1.43-11.6.63-14.24.26-1.91-.27-2.51-1.12-.47-1.94,1.73-.69,14.68-.8,15.2,0Z"/>
        <path class="cls-1" d="M17.57,40.01c-1.27,3.47.32,6.31.49,9.42.05.96-.09.75-.96.72-.44-3.02-1.59-6.12-.73-9.2.24-.86.13-1.12,1.2-.94Z"/>
      </g>
    </g>
  </g>
</svg>