<?xml version="1.0" encoding="UTF-8"?>
<svg id="Layer_2" data-name="Layer 2" xmlns="http://www.w3.org/2000/svg" viewBox="0 0 72.1 69.4">
  <defs>
    <style>
      .cls-1 {
        fill: #fff;
      }
    </style>
  </defs>
  <g id="Layer_1-2" data-name="Layer 1">
    <g>
      <path class="cls-1" d="M39.15,67.42c-.03.25.33.13.5.14,1.95.08,3.93-.05,5.88,0,1.98.04,4.03.2,6.01.29,2.27.11,6.75.04,8.75.85.15.06.33.1.35.29l-1.36.14c-14.05-.59-28.74.79-42.71,0-.51-.03-.98-.19-1.5-.15-.04-.37,0-.23.21-.29,1.34-.39,3.45-.58,4.88-.71,4.39-.4,8.85-.29,13.25-.43l-5.73-1.07c-2.74-.83-5.52-1.86-7.98-3.34-.44-.27-1.71-.91-1.77-1.39-.05-.42.22-.78.66-.78.28,0,4.21,2.27,4.98,2.6,10.77,4.7,23.88,3.1,32.73-4.74.71-.39,1.46.48.62,1.35-.73.76-2.87,2.18-3.83,2.76-4.13,2.52-9.1,4.18-13.94,4.47Z"/>
      <path class="cls-1" d="M55.33,6.82c-2.08-1.28-4.24-2.43-6.55-3.28-14.56-5.35-29.73-.68-39.15,11.36-.51.65-2.11,3.25-2.51,3.52-.44.31-.85-.13-.92-.54-.05-.35.24-.69.4-.97,1.99-3.53,5.82-7.44,9.05-9.87C27.6-1.97,43.64-2.25,56.19,5.73c1.8-1.35,4.97-.51,5.3,1.87.8,5.75-8.31,4.78-6.16-.78ZM60.24,8.31c0-1.09-.88-1.97-1.97-1.97s-1.97.88-1.97,1.97.88,1.97,1.97,1.97,1.97-.88,1.97-1.97Z"/>
      <path class="cls-1" d="M68.79,41.07c.33.65,0,1.36-.17,2.02-.94,3.77-3.02,7.35-5.22,10.5,2.72,3.25-1.93,7.48-4.83,4.5-2.49-2.55.31-6.62,3.57-5.18,2.31-2.56,3.98-5.94,5.09-9.2.21-.63.54-3.28,1.55-2.63ZM62.9,55.82c0-1.09-.88-1.96-1.96-1.96s-1.96.88-1.96,1.96.88,1.96,1.96,1.96,1.96-.88,1.96-1.96Z"/>
      <path class="cls-1" d="M32.23,57.57c.36.35.09,1.05-.39,1.19l-23.02.07c-.96-.13-1.23-1.33.14-1.45,7.19-.61,15.23.47,22.51,0,.22.02.58.02.75.18Z"/>
      <path class="cls-1" d="M62.46,12.4c.59-.19,1.34,1.14,1.66,1.6,2.12,3.05,3.84,7.08,4.63,10.71.11.53.49,1.89.29,2.29-.14.28-.52.38-.79.22-.22-.14-.88-3.59-1.07-4.23-.6-2.01-1.61-4.28-2.63-6.12-.39-.7-2.32-3.39-2.4-3.77-.05-.25.07-.62.32-.7Z"/>
      <path class="cls-1" d="M33.8,4.97c.56-.17,3.77-.08,4.56-.04,1.9.11,5.6.69,7.35,1.39.45.18,1.19.78.35,1.02-.46.14-2.52-.63-3.19-.77-1.41-.29-3.22-.57-4.66-.65-.82-.04-4.21.17-4.6-.13-.34-.26-.22-.72.18-.84Z"/>
      <path class="cls-1" d="M7.55,32.02h6.74c.33,0,.52,1,.14,1h-6.74c-.24,0-.59-.82-.14-1Z"/>
      <circle class="cls-1" cx="35.39" cy="58" r="1.25"/>
      <path class="cls-1" d="M50.57,8.41c.27.27.16.71-.21.8-.25.06-2.52-.87-2.33-1.48s2.31.44,2.54.68Z"/>
      <path class="cls-1" d="M65.95,32.6h-6.52c-.45,0-.45-1.29,0-1.29h6.52c1.05-4.03,7.39-2.35,5.94,1.72-1.01,2.84-5.48,2.67-5.94-.43ZM68.49,30.34c-1.87.35-1.74,3.23.25,3.41,2.75.25,2.72-3.96-.25-3.41Z"/>
      <g>
        <path class="cls-1" d="M2.85,31.33c1.36-.37.84,3.09.89,3.93.38,6.48,3.37,12.9,7.26,17.98-.19,1.2-.75,1.03-1.45.29-2.7-2.84-5.39-9.09-6.31-12.9-.52-2.17-1.22-6.39-.94-8.54.04-.3.22-.67.54-.76Z"/>
        <path class="cls-1" d="M6.04,24.28h6.81c.45,0,.45,1.29,0,1.29h-6.74c-.46.7-.64,1.29-1.43,1.72-1.87,1.04-4.43.18-4.66-2.08-.41-4.02,5.26-4.76,6.02-.93ZM4.8,24.77c0-.97-.78-1.75-1.75-1.75s-1.75.78-1.75,1.75.78,1.75,1.75,1.75,1.75-.78,1.75-1.75Z"/>
      </g>
      <g>
        <path class="cls-1" d="M23.06,14.43l26.19-.04c3.62.45,6.62,3.25,6.95,6.95.7,7.8-.52,16.6,0,24.51-.31,3.43-3.12,6.25-6.53,6.66h-26.09c-3.41-.42-6.11-3.22-6.38-6.66-.64-8.09.48-17.03.02-25.21.43-3.09,2.77-5.59,5.82-6.21ZM23.49,15.87c-2.64.49-4.51,2.54-4.84,5.2v24.65c.34,3.08,2.58,5.17,5.65,5.38,8.12.57,16.9-.44,25.09,0,2.88-.44,5.14-2.53,5.38-5.51-.41-7.73.53-16,0-23.66-.23-3.38-2.53-5.56-5.81-6.08l-25.47.04Z"/>
        <path class="cls-1" d="M49.18,44.64h-5.02c-.04-.1.14-.17.14-.21v-8.89c0-.14-.24-1.06-.32-1.26-.78-2.12-4.02-1.96-4.92.04-.06.13-.36,1.02-.36,1.08v9.24c-1.63-.12-3.28.19-4.87,0v-15.91h4.73v2.15l1.59-1.49c3.99-2.59,9.02.06,9.02,4.86v10.39Z"/>
        <rect class="cls-1" x="25.39" y="28.73" width="5.02" height="15.91"/>
        <circle class="cls-1" cx="28.01" cy="23.41" r="2.95"/>
      </g>
    </g>
  </g>
</svg>