<?xml version="1.0" encoding="UTF-8"?>
<svg id="Layer_2" data-name="Layer 2" xmlns="http://www.w3.org/2000/svg" viewBox="0 0 87.04 81.4">
  <defs>
    <style>
      .cls-1 {
        fill: #fff;
      }
    </style>
  </defs>
  <g id="Layer_1-2" data-name="Layer 1">
    <g>
      <path class="cls-1" d="M51.67,47.12h13.42l14.18,18.32c-.05.27-.87,1.09-.96,1.09H10.58l-.64-1.03,14.26-18.37h11.36c-4.18-9.2-11.81-15.66-8.65-26.61,4.13-14.31,24.92-15.97,32.11-3.25,6.49,11.5-2.71,20.07-7.35,29.86ZM41.24,10.48c-10.77,1.36-15.71,12.51-11.66,22.19,1.15,2.74,12.48,21.47,14.03,21.47,4.34-5.52,8.55-11.25,11.84-17.47,2.65-5.01,4.85-8.5,3.54-14.42-1.77-8-9.81-12.77-17.75-11.77ZM68.6,54.56c-.46-1.15-1.83-2.84-2.68-3.72-.92-.95-1.52-1.9-2.87-2.08-3.8-.51-8.81.36-12.76.09-1.49,1.2-4.77,7.15-6.28,7.38l-1.43-.22-5.98-7.23-11.07.09-4.01,4.87h12.59c.18,0,2.97-3.75,2.27-1.45-.55,1.8-3.56,4.38-4.12,6.41h23.95c-.49-2.09-3.46-4.64-4.12-6.41-.28-.75.57-.77,1.03-.62.23.07,1.52,2.9,2.06,2.9h13.42ZM33.5,54.56h-12.59l-7.64,9.91h30.15l.21-3.31c1.82-.4.72,1.57,1.1,2.62l.55.68h30.76l-6.4-8.67h-13.83l5.37,7.84c-2.2.37-2.7-3.4-4.33-3.72l-25.62-.03c-1.28.15-2.57,4.78-3.91,3.74l6.19-9.08Z"/>
      <path class="cls-1" d="M41.7,2.17c-1.38-.9-11.48,2.39-13.58,3.03-.52,2.95-1.62,1.88-3.73,2.88-6.22,2.94-12.32,9.92-15.41,15.97-.91,1.78-4.26,9.7-3.36,11.09.39.61,1.81.98,2.18,2.38,1.1,4.27-2.49,4.76-2.71,5.71-.14.59,1,6.22,1.29,7.28.75,2.82,2.24,5.26,3.19,7.96.14.4.77,1.18.2,1.45-2.75-3.11-4.29-7.64-5.3-11.63-.27-1.07-.68-5.01-.88-5.32-.28-.43-1.61-.52-2.27-1.03-2.23-1.73-1.39-5.26.83-6.57.47-.28,1.38,0,1.65-.49.56-1.01,1.31-5.34,1.93-7.07,4.13-11.52,9.75-14.8,18.91-21.56.48-.35.65-1.21,1.27-1.62,3.27-2.14,11.98-1.82,15.59-3.01.73-.24.57-1.78,2.95-1.62,2.78.19,2.73,4.41-.03,4.57-2.4.14-2.33-2.17-2.71-2.41ZM6.48,38.9c0-1.33-1.08-2.41-2.41-2.41s-2.41,1.08-2.41,2.41,1.08,2.41,2.41,2.41,2.41-1.08,2.41-2.41Z"/>
      <path class="cls-1" d="M35.98,80.57l-11.28-5.04c-2.32-1.72-5.7-3.48-7.52-5.7-.27-.33-1.1-.83-.4-1.25,2.91.3,5.21,3.34,7.83,4.97,11.29,7.03,24.97,8.03,37.25,2.95,3.17-1.31,5.97-3.55,9.21-4.61.81.77-4.56,3.9-5.09,4.2-2.91,1.63-5.68,2.55-8.81,3.6-.64.22-1.18-.37-.97.87h15.07c.45,0,1.8.83,2.68.42v.41s-54.51,0-54.51,0v-.83h16.52Z"/>
      <path class="cls-1" d="M82.85,25.66c1.78.07,3.79,11.16,3.92,13,.1,1.43.22,10.03-1.44,10.1-.84.04-.35-1.25-.33-1.55.25-5.17.77-8.07-.41-13.39-.48-2.15-1.82-4.66-2.18-6.5-.1-.52-.23-1.7.44-1.67Z"/>
      <path class="cls-1" d="M63.02,70.66l.62-2.07c1.16-.38.99,1.13.81,1.85-.58,2.37-2.3,1.05-3.89,1.03-8.37-.14-16.74.99-25,.01-.12-.16.54-.82.62-.82h26.84Z"/>
      <circle class="cls-1" cx="84.65" cy="52.72" r="2.39"/>
      <path class="cls-1" d="M52.96,25.67c0,5.18-4.2,9.38-9.38,9.38s-9.38-4.2-9.38-9.38,4.2-9.38,9.38-9.38,9.38,4.2,9.38,9.38ZM41.65,18.31c-1.4.26-2.88,1.33-3.78,2.41-5.09,6.12,1.31,15.08,8.59,11.9,8.1-3.54,4.88-16.11-4.81-14.31Z"/>
    </g>
  </g>
</svg>