<?xml version="1.0" encoding="UTF-8"?>
<svg id="Layer_2" data-name="Layer 2" xmlns="http://www.w3.org/2000/svg" viewBox="0 0 146.1 87.44">
  <defs>
    <style>
      .cls-1 {
        fill: #0278b6;
      }
    </style>
  </defs>
  <g id="Layer_1-2" data-name="Layer 1">
    <g>
      <path class="cls-1" d="M133.63,62.27l11.69-1.71c.55.5,1.26.86.31,1.44-3.89,2.37-15.99,1.59-20.84,3.7-2.34-.43-2.11-2.64-2.01-4.57l-8.81,1.65c-.7.49.28,6.91-4.75,8.5-.9.28-2.61-.07-2.94.2-.15.12-.63,2.52-1.3,3.55-2.63,4.06-6.52,2.07-7.27,2.72-.42.36-.52,3.66-3.65,5.2-2.34,1.15-3.81.31-5.19.61-1.83.39-4.49,3.48-8.82,3.71-2.91.16-7.21-2.15-8.31-2.04-1.47.15-2.93,2.23-6.37,2.22-4.53-.02-5.69-3.22-6.24-3.31-1.52-.24-3.05,1.63-6.44-.04-2.44-1.21-2.7-3.81-3.07-4.08s-4.05,1.53-7.34-.93c-1.97-1.48-2.29-4.17-2.86-4.56-.28-.19-1.44.32-2.31.07-4.86-1.37-3.46-6.74-5.7-9.63-1.3-1.68-6.52-2.02-8.59-2.69l-.54,3.18c-1.34.95-17.86-.74-20.35-1.42-.87-.24-1.99-.14-1.96-1.46l12,.85c-1.61-10.43-.4-20.51,2.9-30.46l-11.47-2.65v-1.71s20.01,3.69,20.01,3.69l2.55,2.01c1.58-2.97,2.44-6.12,3.99-9.14C49.09-12.09,104.05-6.78,115.36,33.16l22.83-6.28-.38,1.72-9.88,2.87c-.47.67,3.45,8.26,4,9.94.36,1.12,1.69,5.55,1.69,6.3v14.56ZM76.53,2.33c-3.89-.43-7.55-1.08-11.43,0,1.13,1.98-.63,8.47,2.89,7.77,1.22-.24,1.75-2.34,3.18-3.13,2.28-1.27,5.93-.6,5.35-4.64ZM63.28,3.02c-1.43-.84-6.13,1.36-7.88,1.61.63,1.5,2.69.95,3.33,2.68,1.05,2.88-3.43,2.4-2.75,3.87.44.95,2.21,1.04,2.71,1.57.53.56.58,2.09,1.26,3.03,1.56,2.16,3.73,1.32,2.3,5.97-1.09.26-2.25-.55-3.18-.51-.7.04-1.18.74-1.66.8-.94.11-1.98-.73-3.16-.03-.93.56-1.32,3.26-1.84,3.6-.48.32-1.56.05-2.46.67-3.49,2.38-5.98,6.14-8.54,8.03-1.3.96-2.98.91-3.72,2.27,14.68,1.72,26.65-13.79,41.36-7.44,1.33-1.19,6.82-6.59,8.03-6.83.32-.06.94-.14.86.29-.25,1.63-7.23,6.1-6.28,7.13,7.35,2.16,13.71,7.49,21.83,6.69,3.4-.33,6.86-1.87,10.15-2.7-1.61-3.62-3.72-12.71-7.46-14.53-.16-.08-3.38-.78-3.56-.75-.65.12-1.17,1.15-2.37,1.06s-1.93-1.68-3.14-2.07c-3.67-1.2-5.1,1.06-6.88,3.74l5.92-1.09,2.07,3.68c1.4.84,2.89-.39,4.17-.2s1.85,1.45,2.73,1.85c1.76.8,3.84.99,5.38,2.59l.85,5.73c-2.92-.18-1.74-4.09-3.15-5.7-.27-.31-5.83-3.35-6.18-3.32-.85.09-1.6,1.26-2.83.95-1.47-.37-2.35-3.1-3.4-3.55-2.22-.94-3.8.41-5.88.26-1.01-.08-.7-.95-1.25-1.18-.7-.28-2.18.29-2.76-.56-1.38-3.62,2.13-7.94,3.75-2.9-1.89-.69-3.06-.8-2.85,1.71,3.05.91,4.51-3.01,6.58-3.41,3.46-.66,5.64-.18,7.41,2.83,1.31-1.24,1.74-2.57,3.71-1.71-1.35-1.77-7.73-8.27-9.51-8.44-.8-.07-1.67.47-2.23,1.03l-.38,3.28-4.48.46c-2.07-1.72,1.04-6.18,2.61-6.02.56.05,1.05,3.92,2.56-.57-4.44-1.94-8.93-3.78-13.87-4.03-1.54,3.52-4.38,3.68-6.89,5.25-1.93,1.21-2.61,3.95-4.6,3.91-4.56-.09-1.77-7.44-4.45-9.02ZM54.25,5.76c-2.31-.17-4.3.98-6.23,2.04-.89.49-8.02,5.46-6.9,6.52,3.38-.88,3.47,3.28,6.27,2l6.86-10.55ZM56.94,13.92c-1.05-1.09-2.97-1.62-3.53-3.59-2.28,2.72-3.87,8.27-8.43,7.32-2.29-.48-2.9-3.71-5.55-2.47-2.83,1.32-12.64,18.03-11.43,19.69,5.97,2.3,12.78.97,15.26-5.42-.04-.46-1.42-1.66-1.91-1.92-1.39-.75-3.45-.08-3.06-1.78,2.85-1.54,4.73,2.65,6.99,2.18.41-.08,6.78-4.09,7.04-4.42.92-1.17.93-2,.81-3.48l8.01-.84c1.45-.77-2.6-2.66-3.13-3.19-.54-.53-.56-1.56-1.05-2.08ZM122.7,58.77c-.34-7.98-1.4-17.18-7.12-23.21-4.95.67-10.93,3.01-15.91,2.74-12.7-.69-27.28-16.14-41.72-4.59l-8.72,10.58c10.12,8.38,13.72-10.03,24.29-3.29,1.65,1.06,2.68,2.68,4.19,3.8,4.67,3.47,11.71,4.58,17.35,3.19,2.26,1.57-1.9,1.2-.57,2.87,2.45,3.06,13.84,6.94,17.29,10.15l10.91-2.24ZM126.2,32.02l-7.99,2c1.73,4.59,4.71,9.65,5.46,14.52.38,2.47.64,6.35.71,8.88.04,1.36-1.6,5.93.94,6.33.86.13,5.85-.71,6.33-1.46,1.73-7.18.47-15.15-1.99-22.02-1.02-2.83-3.11-5.27-3.46-8.25ZM22.78,34.36l-5.88-1.25c-3.2,8.08-4.56,17.28-3.76,26.01.11,1.15.47,4.44,1.49,4.79l5.92.08c-1.73-10.32.31-19.62,2.22-29.62ZM84.52,58.85c.99-.2,1.66.31,2.49.64,4.78,1.92,15.53,9.02,19.53,9.6,4.13.6,6.24-2.98,3.94-6.24-.99-1.4-16.94-10.61-19.3-11.53-3.72-1.44-7.32-.95-11.05-2.65-3.24-1.48-7.58-6.81-9.74-7.39-4.93-1.31-8.05,4.96-12.54,6.59-2.68.97-7.06,1.3-9.27-.77-3.81-3.58,2.54-6.75,3.99-9.66.33-.66.74-1.36-.3-1.42-1.53-.09-8.23,2.78-11.43,2.87-4.81.14-10.67-1.97-15.45-2.71-1.6.25-3.54,12.83-3.67,14.95-.1,1.58-.2,7.84.69,8.71,3.07,1.09,7.55,1.53,10.34,3.1.81.46.91,1.61,1.28,1.64.72.06,3.43-1.83,4.8-2.1,3.33-.63,6.22,1.69,6.88,4.91,3.81-3.38,11.47-6.19,13.13.57,3.13-1.17,4.08-3.14,7.83-1.84,4.49,1.55,2.35,5.5,3.07,6.35.35.41,3.99.31,4.83,2.88.94,2.88-.08,5.88-.89,8.59,4.23,1.36,8.68,2.32,11.99-1.42-2.6-1.19-6.89-2.19-9.01-4.1-.77-.69-.91-.48-.7-1.88,5.43,1.14,12.67,7.56,18.11,4.17,3.13-1.95,1.57-3.31-.69-4.75-4.71-3-10.32-4.59-15.14-7.43l.87-1.71c6.08,1.52,22.97,15.77,24.74,4.41-.62-2.27-14.85-8.08-17.81-10.21-.78-.56-1.72-1.03-1.52-2.19ZM38.68,64.67c-6.04,1.34-3.51,11.18,2.73,6.73,4.39-3.13,1.73-7.72-2.73-6.73ZM51.82,65.83c-1.51.41-8.64,6.52-9.27,7.87-1.82,3.91,3.59,6.34,7.32,3.89.54-.36,7.3-7.41,7.55-7.9.82-1.6-3.03-4.55-5.6-3.86ZM63.24,68.1c-2.53.5-11.9,10.13-11.72,12.06.2,2.16,2.87,2.83,4.72,2.69,4.6-.33,8.32-6.86,11.42-9.75,1.19-3.41-.88-5.71-4.42-5.01ZM62.39,84.97c3.55,3.49,13.17-3.76,10.17-8.75-2.83-4.69-10.16,4.43-10.79,7.33.15.47.27,1.07.62,1.41Z"/>
      <path class="cls-1" d="M56.94,13.92c.5.51.52,1.54,1.05,2.08.53.52,4.57,2.42,3.13,3.19l-8.01.84c.12,1.48.11,2.31-.81,3.48-.26.33-6.63,4.33-7.04,4.42-2.26.47-4.14-3.72-6.99-2.18-.38,1.7,1.68,1.03,3.06,1.78.49.26,1.87,1.46,1.91,1.92-2.48,6.39-9.29,7.72-15.26,5.42-1.2-1.66,8.6-18.37,11.43-19.69,2.65-1.23,3.25,2,5.55,2.47,4.57.95,6.16-4.6,8.43-7.32.57,1.97,2.49,2.51,3.53,3.59Z"/>
      <path class="cls-1" d="M126.2,32.02c.35,2.98,2.44,5.42,3.46,8.25,2.47,6.87,3.72,14.84,1.99,22.02-.48.75-5.46,1.6-6.33,1.46-2.55-.4-.91-4.98-.94-6.33-.07-2.53-.33-6.4-.71-8.88-.75-4.87-3.73-9.93-5.46-14.52l7.99-2Z"/>
      <path class="cls-1" d="M22.78,34.36c-1.91,10.01-3.95,19.31-2.22,29.62l-5.92-.08c-1.02-.35-1.39-3.63-1.49-4.79-.8-8.73.55-17.92,3.76-26.01l5.88,1.25Z"/>
      <path class="cls-1" d="M54.25,5.76l-6.86,10.55c-2.8,1.29-2.89-2.88-6.27-2-1.12-1.05,6-6.03,6.9-6.52,1.93-1.06,3.92-2.21,6.23-2.04Z"/>
      <path class="cls-1" d="M76.53,2.33c.57,4.04-3.07,3.37-5.35,4.64-1.43.79-1.97,2.89-3.18,3.13-3.53.7-1.76-5.79-2.89-7.77,3.88-1.08,7.54-.43,11.43,0Z"/>
    </g>
  </g>
</svg>