<?xml version="1.0" encoding="UTF-8"?>
<svg id="Layer_2" data-name="Layer 2" xmlns="http://www.w3.org/2000/svg" viewBox="0 0 112.43 86.55">
  <defs>
    <style>
      .cls-1 {
        fill: #0278b6;
      }
    </style>
  </defs>
  <g id="Layer_1-2" data-name="Layer 1">
    <g>
      <path class="cls-1" d="M66.84,6.24c-.24.5-1.2.49-.84,1.25-1.53-.59-2.99-1.58-4.53-2.27C46.67-1.44,31.26,1.46,19.18,11.9c-.6.52-2.17,2.4-2.63,2.61-1.22.56-1.92-.34-1.26-1.47.23-.39,2.41-2.26,2.94-2.71C32.26-1.66,50.97-3.46,66.84,6.24Z"/>
      <path class="cls-1" d="M13.21,70.54c.43.03.94-.08,1.36,0,.46.09,3.9,3.99,4.72,4.71,9.16,8.18,21.8,11.27,33.83,8.7,1.42.28,1.25,1.44-.08,1.78-7.17,1.87-17.5.32-24.25-2.6-4.91-2.12-12.48-7.32-15.37-11.86-.16-.26-.27-.41-.2-.74Z"/>
      <path class="cls-1" d="M12.52,15.7c1.11-.32,2.42.58,1.83,1.85s-3.54,1.58-3.45.33c.03-.48,1.15-2.04,1.62-2.18Z"/>
      <path class="cls-1" d="M58.62,82.32c1.83-.26,2.16,1.29.53,2-1.41.61-3.19.74-2.39-1.34.15-.19,1.55-.62,1.85-.66Z"/>
      <path class="cls-1" d="M64.48,80c.96-.12,1.46.88,1,1.64-.25.41-2.51,1.33-3.04.73-1.07-1.19,1.11-2.26,2.05-2.37Z"/>
      <path class="cls-1" d="M67.73,79.7c-1.43-1.44,3.47-4.09,3.1-1.53-.09.62-2.39,2.25-3.1,1.53Z"/>
      <path class="cls-1" d="M74.95,75.09c-.44.53-2.28,2.03-2.63.75-.27-.97,1.85-2.58,2.48-2.27l.39.48c.09.35-.02.77-.24,1.05Z"/>
      <g>
        <path class="cls-1" d="M2.41,67.19c-1.09-.18-2.32-1.46-2.41-2.61L.2,21.83c.32-.81.91-1.34,1.72-1.63l63.75-.15.33,2.11H2.83c-.05,0-.73.68-.73.73v35.61l.31.31h83.7v-5.66c1.24.3,2.19.6,2.31,1.98.19,2.15.23,7.1-.06,9.17-.08.57-.35,1.36-.69,1.82-.21.28-1.21,1.06-1.45,1.06h-34.05l1.15,4.82h7.54c.99,1.02.52,1.94-.83,2.1l-31.18-.06c-1.14-.22-1.07-1.93.21-2.21,1.88-.41,5.19.09,7.18.16l.84-4.81H2.41ZM2.1,60.27v4.83h84.02v-4.83H2.1ZM38.56,72.01h12.36l-.83-4.68c-3.49-.25-7.16-.17-10.71-.04l-.82,4.73Z"/>
        <path class="cls-1" d="M16.56,30.33v10.58l.31.31h9.95c-.34,9.22-12.11,12.74-17.92,5.66-5.37-6.54-.74-16.37,7.65-16.55Z"/>
        <rect class="cls-1" x="65.37" y="32.41" width="4.15" height="23.89"/>
        <path class="cls-1" d="M61.81,56.3h-3.77c-.03-.46-.18-.88-.22-1.35-.32-4.33-.36-11.84,0-16.14.05-.56.1-1.16.53-1.56h3.14l.31.31v18.75Z"/>
        <rect class="cls-1" x="50.28" y="42.47" width="4.2" height="13.82"/>
        <path class="cls-1" d="M18.44,28.44c1.5.18,2.99.5,4.33,1.22.81.43,3.21,2.19,3.23,3.08,0,.39-2.43,1.83-2.84,2.21-1.32.19-.69.42-.95.71-.91.98-2.77,1.86-3.78,2.84v-10.05Z"/>
        <path class="cls-1" d="M31.01,42.05l.09-.64c.44-.6,7.47.22,7.97-.41.4-.51.22-.99,1.31-1.21,1.07-.21,1.38.27,2.1.33,1.13.11,4.79-2.97,6.13-3.41.43-.42-.1-2.22,1.52-2.88,1.54-.63,2.33.92,3.72.05l.21.84-.81.24c.07,1.44-.56,3.05-2.23,3.08-.59,0-1.45-.56-1.8-.5s-5.84,3.2-6.02,3.5.06,1.15-.2,1.79c-.77,1.84-4.28,1.54-4.03-.78h-7.96ZM51.66,35.8c0-.37-.3-.67-.67-.67s-.67.3-.67.67.3.67.67.67.67-.3.67-.67ZM41.66,41.88c0-.37-.3-.67-.67-.67s-.67.3-.67.67.3.67.67.67.67-.3.67-.67Z"/>
        <path class="cls-1" d="M46.94,56.3h-3.67l-.31-.31v-9.01l.35-.28c1.32.15,2.8-.79,3.84.28v8.8c0,.07-.28.32-.21.52Z"/>
        <path class="cls-1" d="M28.71,39.33h-7.96l.14-.64,6.25-4.19c.6.05,1.08,1.8,1.22,2.36.2.79.32,1.65.36,2.47Z"/>
        <path class="cls-1" d="M54.27,33.67c.85-.86,5.21-3.55,5.4-4.52.06-.33-.25-.92-.11-1.6.61-3.13,5.69-1.44,4.12,1.6-.86,1.67-2.62.58-3.32.86-.62.25-2.4,2.13-3.17,2.71-.32.24-1.64,1.21-1.88,1.29-.45.16-.62-.33-1.03-.33ZM61.71,27.16l-.86.86.86.86.86-.86-.86-.86Z"/>
        <rect class="cls-1" x="21.37" y="55.46" width="18.44" height=".85"/>
        <rect class="cls-1" x="31.43" y="28.22" width="14.67" height="1.06"/>
        <path class="cls-1" d="M73.34,52.53l-.02-.9c.16-.25.5-.3.77-.33,1.67-.23,5.15-.14,6.91-.03.4.03,1.98.18,2.19.32.43.28.11.95-.11.95h-9.74Z"/>
        <path class="cls-1" d="M42.33,31.79c.34.88-.13.99-.93,1.06-1.8.16-7.84.27-9.43-.02-.28-.05-.48-.18-.64-.41l.11-.63h10.89Z"/>
        <path class="cls-1" d="M18.23,55.46l-.84.63,1.16-.2.1.42H6.4c-.22,0-.4-.59-.31-.84h12.15Z"/>
        <path class="cls-1" d="M73.65,54.83h7.33c.42,0,.42,1.26,0,1.26h-7.33c-.34,0-.5-1.05,0-1.26Z"/>
        <path class="cls-1" d="M31.75,35.35h8.17c.39,0,.39,1.05,0,1.05h-8.17c-.06,0-.39-.42-.52-.52l.52-.52Z"/>
        <path class="cls-1" d="M73.65,47.92h5.87s.49.44.51.55c.07.21-.45.7-.51.7h-5.87c-.32,0-.71-1.06,0-1.26Z"/>
        <path class="cls-1" d="M77.11,45.62h-3.46c-.25,0-.66-.72-.27-1.01.56-.41,4.06-.66,3.73,1.01Z"/>
        <path class="cls-1" d="M31.43,48.76h3.67c.09,0,.95-.29.94.31-.01.64-1.71.28-2.21.31-.88.05-2.52.81-2.4-.62Z"/>
        <path class="cls-1" d="M31.43,44.15v-.63c1.11.12,2.15-.31,3.26-.22.68.05,1.34.18.62.85h-3.88Z"/>
        <circle class="cls-1" cx="50.99" cy="35.8" r=".67"/>
        <circle class="cls-1" cx="41" cy="41.88" r=".67"/>
        <rect class="cls-1" x="61.1" y="27.41" width="1.22" height="1.22" transform="translate(-1.8 51.69) rotate(-44.87)"/>
      </g>
      <g>
        <path class="cls-1" d="M90.25,2.09c.85-.12,3.94,2.02,4.94,2.51,5.18,2.53,10.81,4.34,16.56,5.02.45.15.53,1.11.56,1.53.97,11.75-3.99,25.66-12.68,33.63-1.17,1.08-7.68,6.21-8.82,6.28-.76.04-3.96-2.19-4.76-2.76-11.33-8.08-16.77-19.95-17.33-33.78-.04-1.03-.15-3.29.01-4.19.05-.28.15-.5.41-.63,7.5-1.07,14.66-3.67,21.1-7.61ZM110.42,11.27c-7.1-.9-13.8-3.62-20.01-7.05-6.04,3.63-12.8,5.97-19.78,7.07-.56,14.86,5.2,28.34,17.72,36.59,1.26.83,1.9,1.64,3.35.91,3.65-1.82,8.96-6.91,11.35-10.23,5.65-7.84,7.6-17.74,7.37-27.3Z"/>
        <path class="cls-1" d="M100.72,15.08c1.4-.33,3.09.99,4.05,1.94.72.72,1.04,1.02.57,2.05l-15.3,18.22-.66.15c-4.26-2.35-8.21-5.32-12.16-8.17-.81-1.05,2.1-4.49,2.81-4.72.24-.08.49-.13.74-.11,1.36.09,7.12,5.32,7.85,4.96l12.09-14.32ZM101.3,16.72l-12.04,14.76h-1.25s-7.24-5.1-7.24-5.1l-1.78,1.95,9.86,6.92h.61s13.94-16.66,13.94-16.66v-.42s-2.1-1.45-2.1-1.45Z"/>
      </g>
    </g>
  </g>
</svg>