<?xml version="1.0" encoding="UTF-8"?>
<svg id="Layer_2" data-name="Layer 2" xmlns="http://www.w3.org/2000/svg" viewBox="0 0 181.36 71.32">
  <defs>
    <style>
      .cls-1 {
        fill: #0278b6;
      }
    </style>
  </defs>
  <g id="Layer_1-2" data-name="Layer 1">
    <g>
      <path class="cls-1" d="M181.19,69.99c-.43-.29-2.66-.15-3.27-.24-.57-.19-.11-1.99-.09-2.49.09-2.98-.16-6.76.15-9.63.11-1.05,1.29-1.83.08-2.67-.44-.31-1.15-.42-1.53-.91l-4.81-5.88-9.44-.56v-.17c-.52.12-1.05.12-1.55-.01v.21c-3.94-.1-7.86-.56-11.8-.43-1.84,1.19-3.52,3.3-5.31,4.46-.19.12-.35.29-.6.24.09-.7-.16-1.36-.16-2.06,0-.67.26-1.31.15-1.98-.08-.49-.6-.84-.59-1.23,0-.43.69-1.39.15-1.99l-15.21-3.27-.22-9.94c-4.23-.09-8.46-.56-12.68-.3-.08.05.15.2.15.23v3.44h-3.13s-.27.24-.3.31c-.2.43-.12,5.31-.09,6.19.01.29.11.54.16.82l-6.64,2.45-.2-.89,5.33-2.11-.16-1.5c-2-.73-3.8-2-5.88-2.49l-17.1,6.39-.06-1.05c.43-.16,1.97-.51,2.1-.88.08-.23.08-2.56.02-2.87-.12-.64-2.63-1.61-3.28-1.61-.6,0-1.89.6-2.52.84-5.36,2.05-10.59,4.53-15.93,6.63-.22.19-.25.73-.03.93l1.16.4-.16,14.11h-12.06l.15-1.83-3.21-.15v-22.45l16.49.31v5.96l1.38-.57.06-5.85c.36-.5,2.22.45,2.5-.87.11-.52-.14-.97-.14-1.49,0-.46.23-.85.16-1.36-.03-.22-.37-.85-.53-.85h-19.85l-.23-.23v-5.35c.86-.58,2.52-.96,1.52-2.28l-14.86-8.93c-.47-1.89-.17-3.88-.25-5.82,2.27-.34,4.1,1.23,6.14,1.73,2.63.64,4.24-.95,6.67-1.59l.33-8.07c-2.32.2-4.6,1.27-6.95,1.08-2.54-.21-5.06-2.94-7.71-1.3v13.74c-3.59,2.46-7.52,4.38-11.25,6.62-.86.52-2.98,1.61-3.57,2.23-1.43,1.5,1.06,2.36,2.3,2.22v5.8H4.11c-.74,0-.58,2.41-.53,2.98.18,2.03,1.07,1.37,2.75,1.61v24.21c0,1.28-3.74.08-2.99,2.38.31.94,2.01.44,2.2,1l-.05,6.02c-.17.25-4.3.12-5.12.53-.93.46.11,1.64.99,1.45h179.43c.59,0,.73-1.08.4-1.31ZM51.22,28.85c-1.56-.62-3.05-.52-4.65-.61-5.46-.31-11.66-.61-17.11-.46-.89.02-2.16.49-2.97-.07v-2.44l24.89.38-.16,3.21ZM51.22,29.15v26.89h-24.74v-26.89h24.74ZM38.76,1.5l.18-.12c2.53-.19,4.63,1.62,7.16,1.67,1.59.03,3.12-.64,4.66-.86.15.11.14.3.16.46.14,1.32.23,3.15-.2,4.39-.77,2.19-3.05,2.29-5.08,2.11-2.29-.2-4.47-2.25-6.95-1.6-.41-.29,0-1.81.01-2.29.03-1.25-.09-2.52.06-3.76ZM38.44,15.58c.48.43.86.84,1.39,1.21,3.16,2.2,6.89,4.04,10.15,6.19.42.28.96.54,1.23.98l-25.96-.23,13.19-8.15ZM7.85,36.02c1.85-.07,3.71-.39,5.57-.47,2.96-.12,6.87-.2,9.79,0,.51.03,1.38.12,1.75.39v21.3l4.8-.31c7.14-.05,14.29-.06,21.31,1.3l.15.53-29.78.15.15,1.83H7.85s0-24.74,0-24.74ZM67.25,69.62H7.08v-6.41h60.17v6.41ZM103.14,69.62h-3.97v-10.84h-14.66v10.84h-15.73v-23.98l15.95-6.27c.13,0,.39.15.39.24v5.8c0,.52,1.63.01,1.91-.07,2.75-.82,5.83-2.3,8.58-3.33,2.49-.93,4.98-1.89,7.52-2.63v30.24ZM115.8,32.05h10.56v1.85h-10.56v-1.85ZM125.9,46.26l-9.78-.15.45-11.24c2.1-.03,4.25-.18,6.35-.07.49.03,2.41.16,2.59.46l.38,11ZM115.97,69.62h-6.26v-15.96c.07-.4.38-.9.76-1.07.75-.33,3.84-1.17,4.67-1.28.16-.02.56-.07.65,0-.01.17.17.43.17.51v17.79ZM125.44,69.62h-8.41v-18.94h8.41v18.94ZM126.81,48.24l-11.61.3v-.91s11.22-.16,11.22-.16c.44.04.41.4.39.77ZM169.73,49.38l.99.54,4.35,4.89c-.33.03-.65.14-.99.16-4.14.31-8.92-.06-13.15-.01-1.15.01-2.52.53-3.59-.37l-5.95-5.88c6.12.03,12.21.59,18.33.68ZM130.45,45.77c-1.79.46-1.07,1.42-1.04,2.69.11,4.75.16,9.48.29,14.21.02.74.26,1.46.16,2.29-.04.28.05.25-.31.23-.38-4.05-.85-8.09-1.22-12.14-.19-2.02-.11-4.65-.46-6.56-.08-.41-.49-.5-.58-.8-.12-.41.02-.98-.03-1.42l3.36.46-.18,1.04ZM135.66,46.4l-1.19.34c-.16,1.53-.28,3.1-.18,4.64.09,1.53.17,2.38.15,3.96-.03,3.26.04,6.52,0,9.78l-.3.23-.31-6.95c-.95-3.83-.39-7.72-.46-11.61-.11-.57-1.49-.57-1.07-1.76l3.36.31v1.06ZM139.34,55.19c0,.11-.63.86-.77.68.09-1.19-.26-2.42-.31-3.58-.07-1.46.25-3.75,0-5.04-.13-.71-1.29-.7-1.06-1.61l3.2.47-.06.61c-.17.26-1.02.14-1.15.84l.15,7.64ZM176.45,69.1c-.03.22-.02.39-.24.53h-25.96l-.23-.23v-8.32h-5.8l-.15,8.55h-4.43l-.07-12.37,9.77-7.63c.33-.01,1.2.8,1.52,1.07,1.33,1.08,5.46,5.24,6.76,5.46.99.17,1.8-.11,2.71-.12,5.27-.07,10.55.01,15.82.07.16.11.13.3.15.46.23,1.93-.04,4.69-.01,6.73.02,1.84.38,3.96.17,5.8Z"/>
      <g>
        <rect class="cls-1" x="72.74" y="46.1" width="10.4" height="4.12"/>
        <rect class="cls-1" x="90.62" y="46.1" width="10.23" height="4.12"/>
        <rect class="cls-1" x="83.9" y="55.72" width="16.05" height="1.53"/>
      </g>
      <g>
        <path class="cls-1" d="M123.76,60.15v2.98l-.23.23h-4.81c-.44-1.07.15-2.21-.15-3.21h5.19Z"/>
        <rect class="cls-1" x="118.56" y="52.82" width="5.34" height="1.22"/>
        <g>
          <path class="cls-1" d="M171.71,60.15v5.96h-2.52c-.14,0-.85-.22-.99-.38v-5.34c0-.07.19-.27.23-.38.53-.45,2.54.12,3.28.15Z"/>
          <path class="cls-1" d="M164.53,60.31v5.57c-1.07,1.01-2.22.39-3.36-.08v-5.65h2.83c.08,0,.34.24.53.15Z"/>
        </g>
      </g>
      <g>
        <rect class="cls-1" x="56.56" y="40.15" width="3.06" height="11.3"/>
        <path class="cls-1" d="M65.11,40.15l-.46,4.96.46,6.49h-2.9c-.04-2.26.05-4.54,0-6.8-.03-1.29-.32-2.79-.17-4.12.03-.22.02-.39.24-.53h2.83Z"/>
        <path class="cls-1" d="M15.34,40.15h-3.06v11.15h3.06v-11.15ZM17.77,40.15v11.45h2.91v-11.45h-2.91Z"/>
        <path class="cls-1" d="M38.95,1.38c2.53-.19,4.63,1.62,7.16,1.67,1.59.03,3.12-.64,4.66-.86.15.11.14.3.16.46.14,1.32.23,3.15-.2,4.39-.77,2.19-3.05,2.29-5.08,2.11-2.29-.2-4.47-2.25-6.95-1.6-.41-.29,0-1.81.01-2.29.03-1.25-.09-2.52.06-3.76l.18-.12Z"/>
        <path class="cls-1" d="M38.65,31.62c2.09-.43,1.27,3.88,1.26,4.93-.03,1.83-.14,3.7-.15,5.5-.02,3.11.51,6.95.16,9.94-.16,1.41-1.69,1.48-2,.16v-19.56c.01-.46.26-.87.73-.96Z"/>
        <path class="cls-1" d="M33.16,31.79c.15.17.18.84.2,1.1.16,2.53-.14,5.13-.17,7.64-.03,3.54.42,8.44.01,11.77-.02.17,0,.34-.15.46-.23.16-1.48.09-1.54-.19l-.3-19.68c-.08-.85,1.39-1.75,1.95-1.1Z"/>
        <rect class="cls-1" x="44.65" y="31.73" width="1.83" height="21.25"/>
        <rect class="cls-1" x="12.28" y="40.15" width="3.06" height="11.15"/>
        <rect class="cls-1" x="17.77" y="40.15" width="2.91" height="11.45"/>
      </g>
    </g>
  </g>
</svg>