<?xml version="1.0" encoding="UTF-8"?>
<svg id="Layer_2" data-name="Layer 2" xmlns="http://www.w3.org/2000/svg" viewBox="0 0 84.7 81.66">
  <defs>
    <style>
      .cls-1 {
        fill: #0278b6;
      }
    </style>
  </defs>
  <g id="Layer_1-2" data-name="Layer 1">
    <g>
      <path class="cls-1" d="M15.22,63.13c-.67.19-2.89,1-2.82,1.8,9.19,13.16,26.24,18.3,40.96,13.97,1.92-.56,3.69-1.61,5.72-2.02.42-.09.62-.63.56.25-1.4,1.17-3.1,1.79-4.76,2.37-16.29,5.67-33.21-.16-43.93-14.01l-1.74,2.36-2.22-10.46,8.24,5.74Z"/>
      <path class="cls-1" d="M13.92,29.41c.38,1.44.06,3.63,2.01,3.29,1.53-.27,1.44-2,3.25-.61,3.3,2.51.26,3.15.53,5.14s1.86,2,3.44,1.95l-.31,4.91c-3.66.21-3.83,2.39-1.68,5.05l-2.47,2.71-3.9-.87-1.14,3.25-3.63.1c-.88-.32-.12-2.37-1.55-3.08-1.77-.89-2.59,1.2-3.51,1.03-.57-.1-3.14-2.57-3.05-3.09,2.7-2.22,1.4-5.22-1.92-4.94l.04-4.51,2.73-.98c1.45-2.57,0-2.48-.43-3.96-.34-1.11,2.03-3.54,2.81-3.34,2.5,2.37,4.1,1.34,4.39-2.04h4.38ZM12.96,30.43l-2.51.1c-.7.53.4,3.6-3.27,3.22-.9-.1-2.07-1.23-2.67-.93l-1.04,1.45c-.11,1.17,1.4,1.37.74,3.45-.52,1.65-1.75,2.36-3.27,2.65l.06,2.8c1.75.31,2.98,1.08,3.32,3.07s-2.2,2.86.65,4.7c2.39-1.83,5.71-1.24,5.51,2.4l2.47-.41c.3-3.78,2.82-3.37,5.47-2.12l1.5-1.7c-1.05-1.96-1.97-2.24-.63-4.47.76-1.26,1.5-1.57,2.92-1.45l-.04-2.99c-.26-.44-3.21.14-3.64-3.07-.18-1.35,1.37-1.96,1.09-3.33-1.96-2.09-2.49.05-3.96.2-.57.05-2.07-.56-2.27-1.16l-.42-2.42Z"/>
      <path class="cls-1" d="M70.96,19.13c.33-.25.19-1.13,1.15-.86.66.66,2.23,1.8,2.13,2.82s-1.52,1.04-.74,2.8c.53,1.19,1.89,1.16,2.94,1.09l-.04,4.35c-.29.47-2.75,0-3,2.06-.1.82,1.64,1.2.78,2.83-.21.39-1.43,1.77-1.77,1.86-1.55.42-3.44-2.79-4.05,2.08-.41.52-2.44.48-3.02.17-.8-.43-.47-2.65-2.11-2.8-.89-.08-1.68,1.41-2.96.78-.22-.11-1.83-1.88-1.87-2.08-.14-.75,1.73-1.94.56-3.64-.73-1.06-2.49.13-2.82-1.72-.1-.55-.11-2.86.13-3.22.52-.78,5.24-.87,1.9-4.67-.18-.82,1.37-2.2,1.99-2.69,1.52-.42,3.76,3.68,4.4-2.09l3.47.35c.15,1.72,1.07,4.02,2.91,2.6ZM67.53,17.26h-2.14c-.67.45.61,3.82-3.37,2.99-.73-.15-1.03-1.03-1.43-.85l-1.21,1.36c1.53,1.34,1.29,3.33-.04,4.74-.84.89-2.16.31-2.22,2.03-.07,2.16,1.03,1.12,2.07,1.81.64.42,1.58,2.34,1.36,3.16-.14.51-.95.79-.87,1.36,1.38,2.91,1.7.9,3.05.62,1.59-.33,3.01,1.04,3.12,2.67,2.66.38,1.59-.93,2.2-2.05.57-1.04,2.94-1.31,3.81-.34l1.6-1c.49-.81-.91-1.23-1.08-1.93-.15-.64.7-2.22,1.23-2.63,1.15-.86,2.3.15,2.19-2.39-.07-1.62-2.43-.42-3.22-2.94-.65-2.09,1.09-2.4.42-3.46-1.14-1.8-3.03.82-4.91-.46l-.54-2.7Z"/>
      <path class="cls-1" d="M40.92,4.06l-7.46,4.72c-.39-.98-.02-2.19-.16-3.21-.06-.47.18-.58-.47-.49-1.52.21-4.98,1.54-6.51,2.2-7.35,3.16-13.67,8.74-17.51,16.14-.39.75-1.38,3.81-1.55,3.93-.33.23-1.03-.07-1.25-.5C10.54,14.72,21.04,6.24,33,3.89l.29-.65-.62-3.24,8.24,4.06Z"/>
      <path class="cls-1" d="M84.7,53.68l-7.61,6.41.63-9.79,2.53,2.03c.37-1.81,1.22-3.34,1.63-5.19,1.91-8.56-.75-16.3-3.53-24.18.62-.71,2.31,3.58,2.46,3.96,3.09,7.97,3.96,17.99.39,25.91l3.49.86Z"/>
      <path class="cls-1" d="M57.73,14.18c-15.14-6.93-34.4-3-42.51,13.17-1.64-.16-.61-1.39-.13-2.33,7.07-13.84,27.1-18.88,40.19-12.78.29.13,3.08,1.32,2.45,1.94Z"/>
      <path class="cls-1" d="M59,.34c4.61,1.28,8.17,4.98,7.94,10.31-.25,5.94-5.51,3.1-7.05-.62-.17-.4-.89-2.55-.89-2.77V.34ZM65.98,12.15c0-1.6-.26-3.48-.89-4.95-.24-.56-2.69-4.04-3.23-3.48l2.07,3.37,2.05,5.07ZM64.71,12.49c.21-.21-1.6-4.58-1.95-5.17-.42-.71-1.68-2.32-2.48-2.59.33,2.98,1.05,7.33,4.44,7.76Z"/>
      <path class="cls-1" d="M53.92,71.58c.11.91-.82,1.11-1.41,1.36-12.28,5.13-29.79-1.98-36.66-13.68-.49-.83-1.5-2.12-.32-2.54,6.27,10.59,17.36,17.43,29.34,16.54,3.04-.23,6.02-1.34,9.04-1.68Z"/>
      <path class="cls-1" d="M77.08,8.44c.56,4.48-5.14,11.05-8.88,7.09,2.11-.05,5.19-.73,6.03-3.04-.61-.61-8.82,5.61-7.12.69,1.16-3.37,7.09-4.28,9.98-4.74ZM73.59,10.81c-1.71.09-3.75.79-4.76,2.36l4.76-2.36Z"/>
      <path class="cls-1" d="M75.5,36.63c.03-.12.52-.59.63-.51,1.45,8.24-.87,16.12-5.32,22.86-2.36,3.58-5.87,8.03-9.9,9.21,3.87-3.79,7.51-6.95,10.28-11.84,1.42-2.5,4.31-9.55,4.31-12.3,0-1.73-.31-6.11,0-7.43Z"/>
      <polygon class="cls-1" points="63.44 76.3 54.56 74.95 58.69 66.85 59.57 71.14 63.44 76.3"/>
      <path class="cls-1" d="M76.13,62.12c.17.69-.21.92-.46,1.36-1.16,2.08-7.06,8.06-9.08,9.24-.38.22-.72.77-1.08.2l10.63-10.8Z"/>
      <path class="cls-1" d="M43.46,3.71v-1.01c.55-.61,10.54,1.6,11.99,2.26,1.43.66,1.42,1.52-.18,1.21-3.9-.75-7.7-2.8-11.81-2.46Z"/>
      <path class="cls-1" d="M12.96,30.43l.42,2.42c.2.59,1.71,1.21,2.27,1.16,1.47-.14,2.01-2.28,3.96-.2.28,1.37-1.27,1.99-1.09,3.33.42,3.21,3.37,2.64,3.64,3.07l.04,2.99c-1.42-.12-2.16.19-2.92,1.45-1.35,2.23-.42,2.5.63,4.47l-1.5,1.7c-2.64-1.25-5.17-1.67-5.47,2.12l-2.47.41c.2-3.64-3.12-4.23-5.51-2.4-2.85-1.84-.29-2.63-.65-4.7s-1.57-2.76-3.32-3.07l-.06-2.8c1.51-.29,2.74-1,3.27-2.65.66-2.08-.85-2.28-.74-3.45l1.04-1.45c.6-.3,1.77.83,2.67.93,3.67.39,2.57-2.68,3.27-3.22l2.51-.1ZM10.07,35.87c-3.94.72-5.65,5.8-3.41,9.2,2.54,3.87,8.4,3.45,10.21-.95,1.95-4.75-2.24-9.09-6.8-8.25Z"/>
      <path class="cls-1" d="M67.53,17.26l.54,2.7c1.88,1.28,3.77-1.34,4.91.46.67,1.05-1.07,1.37-.42,3.46.79,2.52,3.15,1.32,3.22,2.94.11,2.55-1.04,1.53-2.19,2.39-.53.4-1.38,1.99-1.23,2.63.17.7,1.57,1.13,1.08,1.93l-1.6,1c-.87-.97-3.24-.7-3.81.34-.61,1.12.46,2.42-2.2,2.05-.11-1.63-1.53-3-3.12-2.67-1.34.28-1.66,2.29-3.05-.62-.08-.57.73-.85.87-1.36.22-.82-.72-2.74-1.36-3.16-1.03-.69-2.14.35-2.07-1.81.06-1.73,1.38-1.14,2.22-2.03,1.33-1.41,1.57-3.4.04-4.74l1.21-1.36c.4-.19.71.7,1.43.85,3.98.83,2.7-2.54,3.37-2.99h2.14ZM62.6,23.41c-4.82,5.13,3.31,14.23,8.14,6.81,1.07-1.65.93-4.85-.31-6.42-1.85-2.32-5.79-2.55-7.83-.39Z"/>
      <path class="cls-1" d="M64.71,12.49c-3.39-.43-4.11-4.79-4.44-7.76.81.27,2.06,1.88,2.48,2.59.35.59,2.16,4.97,1.95,5.17Z"/>
      <path class="cls-1" d="M65.98,12.15l-2.05-5.07-2.07-3.37c.54-.56,2.99,2.92,3.23,3.48.63,1.47.9,3.35.89,4.95Z"/>
      <path class="cls-1" d="M73.59,10.81l-4.76,2.36c1-1.56,3.05-2.27,4.76-2.36Z"/>
      <path class="cls-1" d="M10.07,35.87c4.56-.84,8.76,3.5,6.8,8.25-1.81,4.4-7.67,4.82-10.21.95-2.24-3.41-.53-8.48,3.41-9.2ZM10.06,36.88c-4.98,1.1-4.19,10.17,1.47,9.93,6.94-.29,5.82-11.54-1.47-9.93Z"/>
      <path class="cls-1" d="M62.6,23.41c2.03-2.16,5.98-1.93,7.83.39,1.25,1.57,1.39,4.77.31,6.42-4.83,7.43-12.96-1.68-8.14-6.81ZM70.56,27.36c0-2.47-1.88-4.46-4.2-4.46s-4.2,2-4.2,4.46,1.88,4.46,4.2,4.46,4.2-2,4.2-4.46Z"/>
    </g>
  </g>
</svg>