<?xml version="1.0" encoding="UTF-8"?>
<svg id="Layer_2" data-name="Layer 2" xmlns="http://www.w3.org/2000/svg" viewBox="0 0 120.87 84.45">
  <defs>
    <style>
      .cls-1 {
        fill: #0278b6;
      }
    </style>
  </defs>
  <g id="Layer_1-2" data-name="Layer 1">
    <g>
      <g>
        <path class="cls-1" d="M24.38,14.73c.51.83,2.36.56,2.78.99.2.2.15.86.41,1.18.67.8,4.89,1.38,6.13,1.95l-.54-1.79,5.35,2.11.21,2.55-15.54-5.3L.36,27.09c1.49-1.35,3.76-2.27,5.61-3.17,5.66-2.75,11.41-5.34,17.12-7.97.76-.21.77-2.46.39-2.48-2.48.54-5.16,1.81-7.48,2.92-5.09,2.43-10.04,5.35-15.11,7.84l-.53-1.79,1.43.36c.17-2.43,2.51-4.91,4.13-2.16.37.03,1.88-6.47,4.84-2.5.78-2.13,2.78-5.57,4.48-2.15.72-.35,1.57-5.22,3.62-3.61.41.32.39,1.41,1.04,1.1.94-.45.82-4.61,3.41-3.22,0-.96-.26-2.13.74-2.67L39.8,0h1.44s79.02,24.9,79.02,24.9l.21,1.83c-.74-.94-5.74,1.83-5.94,2.15-.36.58,1.15,3.48-.51,3.23l-.36-3.57c.61-.08,5.79-2.83,5.38-3.23L40.96.64l-15.5,7.1c-.15.92.08.56.5.75,2.13.96,5.49,1.81,7.83,2.57,23.67,7.63,47.6,14.94,71.36,22.06l7.8-3.87-3.05,2.15-.18,4.66c1.71.09,2.5-2.07,4.12-2.18.98-.07,6.67,1.99,6.94,2.78l-.11,4.44c-.32.47-.51.28-.92.2-3.34-.62-7.58-2.89-10.96-3.79-.18-.25.22-.48.22-.55v-5.2l-3.94,1.79v9.32c-.97.39-7.1-1.64-7.19-2.03l.02-2.27,6.45,1.79v-6.81L24.38,8.82v5.91Z"/>
        <path class="cls-1" d="M34.37,28.94c.26.41-.26,4.37-.85,4.97l-.54-4.3-6.05,2.19.14,1.76c1.12,0,3.37-2.27,4.84-1.62-1.38,1.63-5.54,1.28-5.02,3.76-.66.04-.39-1-.8-1.35-.34-.29-1.54-.35-2.07-.45-.39-1.37,1.85-.42,2.15-.71.05-.57.09-.83-.36-1.25-.32-.3-5.87-2.57-6.09-2.33.16,1.08-.4,3.4.35,4.13.54.53,4.91,1.78,6.03,2.23.55.22.97-.21.79.81l-8.2-3.09v-4.74c4.65-.96,6.67-4.87,11.53-2.13.86.48.97,1.43,1.57,1.65.69.25,1.83-.03,2.57.47ZM31.19,28.89l-4.84-2.13-4.83,2.3c3.45,2.11,6.51,2.73,9.67-.17Z"/>
        <path class="cls-1" d="M75.94,31.12l.44,2.79c-4.81-1.17-9.48-3.12-14.3-4.34l-.03-2.83,13.9,4.38Z"/>
        <path class="cls-1" d="M51.94,32.78l-6.32,2.5c-.57.09-6.71-2.08-7.07-2.45-.81-.83-.62-3.77-.18-4.74.14-.31,5.72-2.74,6.26-2.75.35,0,6.31,1.96,6.75,2.18,1.17.6.44,3.98.56,5.26ZM50.2,27.82l-5.52-1.79c-1.19.64-2.96,1.1-4.06,1.71-.41.23-.61-.02-.46.8,1.71.08,3.87,1.89,5.54,1.79.9-.06,3.84-1.72,4.5-2.5ZM44.82,31.75c.13-.6-.16-.73-.59-1.02-.26-.18-4.96-2.41-5.15-2.2l.04,3.9,6.05,2.19-.36-2.51-2.51.36,2.51-.71ZM51.27,28.53l-5.58,2.49.21,3.25c1.99-.02,3.42-1.52,5.21-2.13l.16-3.6Z"/>
        <path class="cls-1" d="M57.41,34.3c2.85-.22,4.65-2.53,7.51-2.03.63.11,5.36,1.75,5.54,1.99.46.63.75,3.69.49,4.43-.03.19-.17.29-.31.41-.25.21-5.65,2.56-5.97,2.6-.42.04-2.63-.68-3.28-.88-.55-.17-3.74-1.35-3.86-1.52l-.13-5ZM69.2,34.27c-4.12-1.36-5.14-2.08-9.17-.04-.28.14-1.12.12-.51.74.19.19,4.88,1.73,5.15,1.7.75-.08,3.76-1.8,4.53-2.41ZM63.82,38.21c.04-.59.13-.83-.37-1.24-.22-.18-5.17-2.2-5.36-1.98l.35,4.13,5.21,1.96c.65-.04.29-1.8.1-2.07-.35-.51-3.44-.51-3.87-1.51l3.94.71ZM69.92,34.98c-.19-.22-5.05,2.25-5.2,2.5-.48.79-.03,2.62-.17,3.59l5.32-2.21.06-3.88Z"/>
        <path class="cls-1" d="M55.9,24.62l.04,2.47c-.5.5-9.29-2.94-10.71-3.28l-.05-2.46,10.72,3.26Z"/>
        <path class="cls-1" d="M118.33,42.16c-.03.42.31.77-.46.64-1.18-.2-2.4-.5-3.49-1-.19,1.02.24.59.78.81,1.61.64,2.45.15,2.08,2.42l-8.93-2.9-.03-3.19,10.04,3.23Z"/>
        <polygon class="cls-1" points="91.03 36.11 91.07 38.57 82.51 36.02 82.47 33.55 91.03 36.11"/>
        <path class="cls-1" d="M33.35,40.36c-.59.6.18.6.5.75,1.5.67,6.49,2.51,7.9,2.45,1.94-.09,4.64-2.14,6.66-2.49.1-.93,0-.57-.52-.72-.95-.28-1.94-.38-2.89-.7-.4-.14-5.61-1.64-5.56-2.16,3.72,1.15,11.82.94,10.76,6.45h-1.43s-.19-1.8-.19-1.8c-1.71.06-3.47,1.54-5.04,1.77-3.93.6-7.84-.88-10.91-3.2l-.33,3.02-1.11.21c.14-.94-.37-3.24.35-3.77.39-.29,1.91-.39,2.6-.63,1.78-.61,3.59-1.27,5.3-2.05.17.8-.38.81-.88,1.09-.92.51-5.02,1.58-5.21,1.78Z"/>
        <path class="cls-1" d="M27.96,43.94c-.72-.13-.19-1.13-1.08-1.61-1.23-.67-4.34-.62-5.74-.37-.37.07-1.16.03-1.06.54l3.58,1.43-4.83-1.08-.9,1.08v-2.13c1.41.11,2.48-.89,3.79-1.06,1.9-.25,7.09.33,6.24,3.19Z"/>
        <polygon class="cls-1" points="96.45 40.36 92.56 39.24 92.51 36.78 96.48 38.03 96.45 40.36"/>
        <polygon class="cls-1" points="61.26 26.43 61.31 29.25 57.37 27.81 57.73 25.3 61.26 26.43"/>
        <polygon class="cls-1" points="81.03 35.34 77.84 34.59 77.81 31.76 81.22 33.17 81.03 35.34"/>
        <path class="cls-1" d="M43.38,23.51l-3.19-1.11-.03-2.48c.28-.28,3.14.57,3.42,1.06l-.19,2.53Z"/>
        <path class="cls-1" d="M85.69,39.65c-.35.85-2-.25-2.72-.34-2.02-.25-3.25.59-4.99,1.4l.55.53,3.93,1.62-6.45-1.79-.36,2.15.03-2.47c3.86-.79,5.99-3.34,10-1.11Z"/>
        <path class="cls-1" d="M3.94,31.05c.59.62-.47.74-.71.88-1.07.64-2.78,1.71-3.23,0-.05-.21,3-1.88,3.94-.89Z"/>
        <path class="cls-1" d="M120.77,44.72c.2.35.02.94.06,1.37-.23.25-3.96-.71-3.22-2.15.3-.29,2.97.45,3.16.78Z"/>
        <path class="cls-1" d="M24.29,19.99c3.57-.64,2.15,3.75-1.34.84.33-.38.84-.75,1.34-.84Z"/>
        <path class="cls-1" d="M13.27,26.74c1.01,1.02-3.78,1.8-3.58-.36l3.58.36Z"/>
        <path class="cls-1" d="M31.2,37.13c-.2-.95.24-.62.7-.89.34-.2,4.01-2.09,3.95-.72l-4.65,1.61Z"/>
        <path class="cls-1" d="M17.93,25.3c-1.27.44-2.8.7-3.58-.71,1.09-.4,2.85-.43,3.58.71Z"/>
        <path class="cls-1" d="M22.23,22.8c.29,1.06-.89.77-1.61.71-.32-.03-2.75-.33-1.98-1.07l3.59.36Z"/>
        <rect class="cls-1" x="115.36" y="29.48" width="5.46" height=".76" transform="translate(.73 62.46) rotate(-29.71)"/>
        <path class="cls-1" d="M5.38,28.53c1.18-.07,2.4-.08,3.22.89.06.92-3.47.54-3.22-.89Z"/>
      </g>
      <g>
        <g>
          <path class="cls-1" d="M22.84,47.6l45.64.1c.9.66,1,1.47,1.09,2.49.56,6.16.55,18.6,0,24.77-.09.96-.12,2.11-1.27,2.31-8.83.47-17.7.44-26.55.37-4.49-.03-9.09-.38-13.61-.4-1.78-.01-4.34,1.01-5.9-.17-1.37-1.03-.38-3.2-.36-4.62.12-7.09-1.27-16.31-.39-22.98.12-.93.49-1.47,1.35-1.88ZM68.15,49.32H23.31v26.53h44.84v-26.53Z"/>
          <path class="cls-1" d="M34.24,84.45l-.36-.72c2.83-1.29,6.11-1.3,9.17-1.59l.33-3.43c1.29.37,5.57-1.06,6.3-.02l.49,3.45,9.34,1.24v1.07s-25.28,0-25.28,0ZM48.05,82.3c.37-2.3-.58-3.21-2.71-2.18l-.16,2.18h2.87Z"/>
          <path class="cls-1" d="M48.05,82.3h-2.87l.16-2.18c2.14-1.03,3.08-.12,2.71,2.18Z"/>
          <path class="cls-1" d="M27.36,67.5c-.7-.85-.73-9.06-.11-9.76.57-.64,4.66-1.85,5.84-2.67.54-.38.61-1.47,1.52-1.46l7.53,4.32c.29.59.34,7.17.17,8.06-.49,2.58-6.53,3.91-8.79,3.78-1.33-.08-5.37-1.29-6.16-2.26ZM41.23,63.84c.21-1.5,0-3.76,0-5.38,0-2.13-4.66,2.62-5.38,2.33l3.58-3.04-4.29-2.69c.22,1.93-.6,4.3.63,5.92l-.99,1.24,5.92,2.87c.09.03.52-1.11.53-1.25ZM33.7,55.77l-5.74,2.51c-.35.46,5.23,2.86,5.74,3.22v-5.74Z"/>
          <rect class="cls-1" x="24.38" y="73.68" width="41.59" height="1.11"/>
          <path class="cls-1" d="M64.18,61.87v6.99l-.59.48c-.45.1-.92.08-1.38.08-.73,0-1.52.12-1.97-.56v-6.99h3.94Z"/>
          <rect class="cls-1" x="55.22" y="64.38" width="3.59" height="5.02"/>
          <rect class="cls-1" x="50.19" y="66.16" width="3.6" height="3.24"/>
          <rect class="cls-1" x="45.18" y="59.72" width="13.98" height=".72"/>
          <path class="cls-1" d="M55.58,62.23c.03.23-.48.72-.54.72h-10.22c-.03-.23.48-.72.54-.72h10.22Z"/>
          <rect class="cls-1" x="45.18" y="53.62" width="7.89" height=".72"/>
          <polygon class="cls-1" points="48.76 67.96 48.19 69.42 45.18 69.39 45.18 67.96 48.76 67.96"/>
          <path class="cls-1" d="M51.99,56.84l-3.78.38-3.03-.73c2.12.6,5.3-1.31,6.81.35Z"/>
          <line class="cls-1" x1="27.97" y1="58.29" x2="33.7" y2="55.77"/>
        </g>
        <g>
          <path class="cls-1" d="M112.52,47.28c1.47-.06,4.27-.65,5.12.77l.35,27.64c0,.48-.13.96-.52,1.27-.84.66-13.89.29-16.19.31-3.45.02-6.92.02-10.37,0-4.68-.03-11.45.61-15.81.03-1.12-.15-1.9-.79-1.97-1.97.59-8.22-.72-17.38,0-25.49.07-.8.08-1.56.73-2.14,12.88-.41,25.81.06,38.66-.43ZM74.56,48.96v26.88h41.99v-26.88h-41.99Z"/>
          <path class="cls-1" d="M83.72,84.09c-.18-.03-.51-.47-.9-.36-.47-.61,5.04-1.67,5.6-1.74,1.25-.16,2.52.16,3.74-.2l.54-3.43h6.25s.33,3.43.33,3.43c3.13.2,6.31.13,9.17,1.59l-.36.72h-24.38ZM94.66,79.79v2.16h2.52v-2.16h-2.52Z"/>
          <path class="cls-1" d="M103.63,50.4v.36h10.04v-.36h-10.04ZM78.53,52.19v.36h19.72v-.36h-19.72ZM101.12,71.19v-14.16c-.45-.68-1.24-.56-1.97-.56-.46,0-.92-.02-1.38.08l-.59.48v14.16h3.94ZM95.02,59.72h-3.95c.13,3.82.56,7.62.36,11.47h3.59v-11.47ZM79.6,60.43h-1.08v10.75h4.66v-5.74h-3.59v-5.02ZM88.92,62.58h-3.94v8.6h3.94v-8.6ZM112.59,63.3c-1.44-.3-3.59,3.35-4.43,3.2-1.44-.91-2.35-3.2-4.17-3.2v7.89h8.61v-7.89Z"/>
          <rect class="cls-1" x="94.66" y="79.79" width="2.52" height="2.16"/>
          <path class="cls-1" d="M101.12,71.19h-3.94v-14.16l.59-.48c.45-.1.92-.08,1.38-.08.73,0,1.52-.12,1.97.56v14.16ZM99.68,57.92h-1.08v12.37l.54.53h.53s0-12.9,0-12.9Z"/>
          <path class="cls-1" d="M95.02,59.72v11.47h-3.59c.2-3.85-.23-7.65-.36-11.47h3.95ZM93.59,60.79h-1.08v9.14l.54.53h.53s0-9.67,0-9.67Z"/>
          <path class="cls-1" d="M79.6,60.43v5.02h3.59v5.74h-4.66v-10.75h1.08ZM81.39,70.11c-.37-1.21,1.18-3.27-.53-3.58l-.9,3.58h1.43Z"/>
          <path class="cls-1" d="M88.92,62.58v8.6h-3.94v-8.6h3.94ZM87.49,63.66c-1.59-.04-1.2,3.97-1.09,5.22.07.81-.05,1.67,1.09,1.59v-6.81Z"/>
          <path class="cls-1" d="M112.59,63.3v7.89h-8.61v-7.89c1.82,0,2.74,2.29,4.17,3.2.85.15,3-3.5,4.43-3.2ZM107.93,67.6c0-.92-3.24-3.97-3.58-3.58l.36,6.45c1.11-.91,2.16-1.91,3.22-2.87,0,1-1.23,1.6-1.79,2.33v.53s5.02,0,5.02,0c.03,0-.08-.51.05-.64l.66.28.36-6.09c-.6-.67-3.39,3.23-3.68,3.49-.2.18-.57.04-.62.09Z"/>
          <rect class="cls-1" x="78.53" y="52.19" width="19.72" height=".36"/>
          <rect class="cls-1" x="103.63" y="55.08" width="10.04" height=".36"/>
          <polygon class="cls-1" points="99.68 57.92 99.68 70.83 99.15 70.82 98.61 70.29 98.61 57.92 99.68 57.92"/>
          <polygon class="cls-1" points="93.59 60.79 93.59 70.47 93.05 70.47 92.51 69.93 92.51 60.79 93.59 60.79"/>
          <path class="cls-1" d="M81.39,70.11h-1.43s.9-3.58.9-3.58c1.71.31.16,2.38.53,3.58Z"/>
          <path class="cls-1" d="M87.49,63.66v6.81c-1.14.08-1.03-.78-1.09-1.59-.1-1.25-.5-5.26,1.09-5.22Z"/>
          <path class="cls-1" d="M107.93,67.6s.42.09.62-.09c.29-.26,3.09-4.16,3.68-3.49l-.36,6.09-.66-.28c-.14.13-.02.64-.05.64h-5.02v-.53c.57-.73,1.79-1.33,1.79-2.33-1.06.96-2.12,1.96-3.22,2.87l-.36-6.45c.34-.38,3.58,2.66,3.58,3.58Z"/>
        </g>
      </g>
    </g>
  </g>
</svg>