<?xml version="1.0" encoding="UTF-8"?>
<svg id="Layer_2" data-name="Layer 2" xmlns="http://www.w3.org/2000/svg" viewBox="0 0 89.93 86.99">
  <defs>
    <style>
      .cls-1 {
        fill: #0278b6;
        stroke: #0278b6;
        stroke-miterlimit: 10;
        stroke-width: .25px;
      }
    </style>
  </defs>
  <g id="Layer_1-2" data-name="Layer 1">
    <g>
      <path class="cls-1" d="M76.2,57.7c.32,1.09.86,2.63.83,3.74s-.8,1.88-.76,2.28c.05.48.69.92.64,1.58-.08,1.16-2.01,2.08-2.23,2.9-.3,1.11.76,2.59.7,3.82-.03.76-1.12,3.29-1.6,3.91-3.35,4.31-11.52.96-16.07,1.04l.79,9.05h-1.18c-.56-3.53-.16-7.33-1.57-10.62.84-.02,1.67-.03,2.5.05,4.37.43,12.94,3.7,15.35-1.66,1.3-2.91-.81-4.75-.09-6.78.27-.78,1.67-.59,1.53-2.01-.18-1.8-2.45-1.03-3.16-2.18,5.83,0,2.65-2.44,2.78-4.95.11-2.02,5.35-1.99,6.21-3.96.16-.84-7.15-8.56-7.85-11.35-.68-2.75,1.63-4.44,1.58-6.64-.12-4.87-5.86-16.18-9.62-19.5C44.76-1.4,8.71,14.09,14.62,43.17c2.48,12.18,12.46,15.31,10.74,29.96-.27,2.33-1.6,7.5-2.54,9.66-.2.47-.31,1.4-1.1,1.26-.87-.16-.31-.96-.2-1.36.89-3.33,2.36-6.28,2.7-9.89,1.14-12.31-4.44-13.63-8.67-23.08-5.42-12.1-1.9-27.82,8.76-35.82,12.74-9.57,36.39-7.95,45.37,6.1,1.56,2.44,6.11,12.99,6.07,15.51-.03,2-2.28,4.44-1.84,6.59.54,2.64,8.24,9.36,8.19,11.9-.04,1.72-4.31,3.59-5.9,3.73Z"/>
      <path class="cls-1" d="M61.74,33.24c.48.8,2.97,1.13,1.44,3.77-1.31,2.26-2.94.64-4.1,1.39-.27.18-3.07,2.97-3.16,3.18-.16.36,1.47,1.67.02,3.53-2.02,2.59-3.64-.85-4.38-1.11-.84-.29-2.8-.02-3.88-.06-.48-.02-1.46.3-1.37-.39,1.03-.04,4.77-.01,5.44-.46.26-.17.26-1.85,1.95-2.21,1.89-.41,1.55.38,3.63-1.45,1.33-1.17,2.79-2.48.94-4.1-.39-.34-7.74-3.99-8.19-3.99-.52,1.07-1.39.81-2.14,1.84-.54.74-3.27,8.08-3.15,8.52.26.95,1.9,1.09.84,3.33-1.97,4.17-8.86-2.85-1.35-3.91l3.24-8.74-1.78-1.31-5.87,2.22c.04.94-.87,2.22-.95,2.68-.11.64,3.34,5.08,3.11,5.85-.8,0-3.49-5.68-3.57-5.73-.13-.08-1.19,1.21-1.94.4l-2.99,9.82c4.6,2.04-.34,6.92-2.71,3.91-1.43-1.82.45-2.76.12-4.02-.24-.9-5.14-5.63-5.02-6.83l6.64,6.94,3.36-9.84c-.44-.32-.99-1.21-1.4-1.38-.37-.15-7.2,1.86-7.59,2.15-.46.34-.58,1.74-1.01,2.14-1.18,1.08-4.23-.33-4.39-1.93-.18-1.87,2.46-2.27,3.13-3.16,1.27-1.68,1.29-5.99,2.78-7.84-4.38-1.7-.65-6.87,1.98-3.93,1.55,1.73.23,1.91.05,2.84-.16.82,4.82,4.62,5.23,6.05l2.91-.09,1.94-11.27c-3.19-1.14-1.95-5.7,1.37-4.72,2.91.86.67,4.28.74,4.77.17,1.16,3.06,3.79,3.08,5.38l-4.32-5.5-2.29,11.72c.7.15,1.28,1.15,1.92,1.09.26-.02,4.57-1.7,4.82-1.88,1-.69,1.55-2.75,1.06-3.86.97.92,1.84.47,3.08.32l2.79-7.96c-.16-.69-3-.59-2.65-3.48.21-1.77,3.3-2.26,4.43-.66,1.24,1.75-.35,2.34-.14,3.24.2.85,4.63,3.52,5.45,3.65.43.07,3.43-3.12,4.94.17,1.04,2.28-1.88,2.68-2.16,4.13-.13.67-.1,6.5.08,6.8ZM60.78,33.23c.19-.32.4-7.06.27-7.41-.17-.44-1.96-1.98-2.16-2.91l-6.67-3.75c.04.65-.09,1.26-.28,1.88-.39,1.23-2.36,5.69-2.41,6.24-.05.6.73,1.09.94,1.69s.03,1.57.24,1.91c.24.39,7.63,3.74,8.29,3.55.1-.03,1.72-1.11,1.77-1.2ZM34.44,34.42c1.23-2.81-1.18-3.64-2.68-5.24-.88-.94-1.6-2.34-2.75-3.15-.32-.14-.9.09-1.1.3-1.23,1.34-1.27,6.81-2.84,8.36.78.55,1.4.63,1.18,1.76l8.18-2.03ZM50.04,29.85c0-1.04-.84-1.88-1.88-1.88s-1.88.84-1.88,1.88.84,1.88,1.88,1.88,1.88-.84,1.88-1.88ZM38.91,33.91c0-1.02-.82-1.84-1.84-1.84s-1.84.82-1.84,1.84.82,1.84,1.84,1.84,1.84-.82,1.84-1.84Z"/>
      <path class="cls-1" d="M4.61,42.16l.8.43,2.34-.23c.41.39-1.94,5.71-2.59,5.87-1.38.07-5.94-4.01-4.88-5.08l2.5-.06.59-.59C1.73,21.31,16.14,2.01,37.86.29c26.82-2.13,46.42,16.79,48.76,42.87l1.14-.38,1.94-.73c.78,3.07-2.7,4.19-4.64,5.71-.95-.61-3.81-4.61-3.17-5.44l3-1c-1.15-14.22-9.18-27.59-21.65-34.57C42.68-4.75,15.28,2.25,6.97,25.25c-.57,1.59-2.35,6.91-2.35,8.26v8.65Z"/>
      <path class="cls-1" d="M20.34,76.18c-.42.35-1.1-.52-1.38-.78-.85-.77-2.74-3-3.5-3.97-1.13-1.45-5.65-9.32-6.14-9.62-.81-.51-2.28.82-2.97-.16-.53-.75,1.01-6.27,1.6-6.3l5.7,3.73-2.58,1.36c-1.2,1.7,5.41,10.24,6.71,11.82.62.76,3.73,2.95,2.56,3.92Z"/>
      <path class="cls-1" d="M31.75,65.17c-.21,8.51,4.3,17.75,12.9,20.34,2.02.61,4.31,0,5.59,1.29-10.08.88-17.18-6.29-19.1-15.71-.28-1.36-1.44-5.87.61-5.92Z"/>
      <circle class="cls-1" cx="48.16" cy="29.85" r="1.88"/>
      <circle class="cls-1" cx="37.07" cy="33.91" r="1.84"/>
    </g>
  </g>
</svg>