<?xml version="1.0" encoding="UTF-8"?>
<svg id="Layer_2" data-name="Layer 2" xmlns="http://www.w3.org/2000/svg" viewBox="0 0 155.31 60.24">
  <defs>
    <style>
      .cls-1 {
        fill: #fff;
      }

      .cls-2 {
        fill: #0278b6;
      }
    </style>
  </defs>
  <g id="Layer_1-2" data-name="Layer 1">
    <g>
      <path class="cls-2" d="M26.13,17.74c3.88.28,7.28-1.56,11.09,0-.99-3.59,2.75-3.21,3.59-4.58,1.32-2.17-.28-4.34,3.27-7.17s8.01-.62,7.82-5.26l.73-.52c1.43-.4,6.44-.28,7.65.5.86.55.93,2.59,2.01,3.37,1.99,1.43,3.84-.1,6.51,3.26,2.54,3.19.63,5.01,1.3,5.86.79.99,2.58-.19,3.72,2.17,1.16,2.39.24,4.52-.07,6.92l26.1.66v18.92h1.95c.64-.6-1.11-8.6.98-9.79h15.98l.28,9.18,10,1.42c1.94,3.94-.62,8.52,2.49,12.19.25.29,3,2.66,3.21,2.66h20.55c-.24,1.19-1.28,1.22-2.26,1.33-11.94,1.35-29.39.08-41.76-.06-34.71-.41-70.39,2.82-105.1.72-2.11-.13-4.06-.74-6.16-.69-.2-1.25.51-1.75,1.63-1.95,3.94-.72,10.58.9,14.21-.14.59-.17,4.73-3.48,5.07-4.07,2.18-3.79-.43-19.49.71-24.74.54-1.63,3.07-1,4.48-1.07v-9.13ZM58.67,33.31c.43-.55-.48-4.74,3.12-5.01,1.89-.14,2.7,2.56,5.49-1.74,1.2-1.84-.55-3.03.22-4.27s4.62-1.21,4.33-4.22c-.18-1.94-2.6-1.73-3.6-2.99-1.96-2.46.17-3.95.12-4.87-.12-2.14-5.65-4.33-7.67-3.89l-2.35-4.17-5.47-.08c1.34,8.1-5.74,2.46-8.78,6.55-2.2,2.96.85,3.35-.45,6.06l-4.38,1.84c-1.79,5.17,3.24,4.17,4.17,5.77.81,1.39-.26,5.14,1.61,6.25,1.38.82,3.81-1.1,6.14,1.01,1.55,1.4.79,3.82,2.81,4.4.81.23,4.41-.31,4.67-.64ZM34.61,26.87l-.29-7.22c-.83-1.2-4.72-.41-6.24-.61v7.84s6.53,0,6.53,0ZM36.57,21.65v9.79l-1.91-.03-1.02-2.58h-10.11v12.07l.98.98h31.32c1.79,0,.54-5.47.32-6.53l-5.82-.04c.55-7.04-4.19-2.25-7.18-5.55-1.75-1.93-.89-3.74-1.95-5.22l-4.62-2.89ZM81.59,24.26h-10.77c-1.22,2.39-2.16,5.03-4.55,6.58-1.81,1.18-2.85-.47-4.25.23-.95.48-1.69,2.58-2.36,3.59-.28.42-1.25.55-1.41.83-.62,1.07.31,3.66-.54,5.05l.71,1.33h23.16v-17.62ZM83.54,24.26v17.62h14.35v-17.62h-14.35ZM116.82,34.05h-12.07c-1.91,1.89-.64,5.31-.98,7.83h13.05v-7.83ZM47.66,52.97h-12.72c-.24,0-2.36,2.5-2.93,2.94v.97s29.03,0,29.03,0c.24,0,1.06-.67,1.53-.76l.11-3.15c-3.93.13-7.55-.71-11.09,1.3l-.66-3.26,33.27-.66v3.92c-1.29.67-2.76-1.3-2.93-1.3h-15.66c-1.3,0-1.29,3.91,0,3.91h22.18c1.81-1.35-.71-3.87-.32-5.87,4.67-.13,9.38.15,14.05.03,1.23-.03,5.91-1.76,4.86,1.59-.62,1.96-4.59.35-6.16.3-3.15-.1-6.34.13-9.49.02v3.92h26.1v-3.27s-7.18,0-7.18,0v-3.26s8.49.97,8.49.97l2.38,4.79,8.7.75-1.3-12.4c-4.23-.15-8.52.2-12.75.03-26.06-1.04-59.02-2.63-84.78-.67-1.11.08-6.23.78-6.57,1.26-.55,4.43.47,8.2-2.89,11.78l8.03-.77c1.5-.46,2.46-3.6,4-4.48,1.49-.85,11.04-.98,13.08-.61,1.13.21,1.83.7,1.64,1.95Z"/>
      <path class="cls-2" d="M124.65,1.43c1.35,1.14.7,23.25-.62,26.45-1.02-.08-3.02.95-3.62.95h-13.37c-.67-1.68,3.38-1.79,4.32-1.87,4.36-.38,8.88,1.73,11.99-1.06V3.71l-.98-.84c-.26-.02-.49.51-.65.51h-34.25c.65,2.73,4.36,2.97,4.56,6.25.17,2.68-4.08,7.74-6.69,7.37-1.87-.27-6.01-5.2-6.27-6.92-.31-2.08,7.36-8.66,9.38-8.66h36.21ZM86.72,6.08c-1.14-.69-5.83,2.86-5.82,4.15l4.93,4.74,3.99-4.74-3.1-4.15Z"/>
      <rect class="cls-2" x="110.29" y="9.25" width="5.23" height="2.62" transform="translate(-.01 .14) rotate(-.07)"/>
      <rect class="cls-2" x="99.2" y="9.25" width="4.57" height="2.62"/>
      <path class="cls-2" d="M63.88,18.16c0-4.58-3.71-8.29-8.29-8.29s-8.29,3.71-8.29,8.29,3.71,8.29,8.29,8.29,8.29-3.71,8.29-8.29Z"/>
      <path class="cls-1" d="M61.54,18.06c0-3.39-2.75-6.14-6.14-6.14s-6.14,2.75-6.14,6.14,2.75,6.14,6.14,6.14,6.14-2.75,6.14-6.14Z"/>
    </g>
  </g>
</svg>