<?xml version="1.0" encoding="UTF-8"?>
<svg id="Layer_2" data-name="Layer 2" xmlns="http://www.w3.org/2000/svg" viewBox="0 0 101.81 58.93">
  <defs>
    <style>
      .cls-1 {
        fill: #0278b6;
        stroke: #0278b6;
        stroke-miterlimit: 10;
        stroke-width: .25px;
      }
    </style>
  </defs>
  <g id="Layer_1-2" data-name="Layer 1">
    <g>
      <g>
        <path class="cls-1" d="M76.77,31.1c0,.92-.75,1.67-1.67,1.67s-1.67-.75-1.67-1.67.75-1.67,1.67-1.67,1.67.75,1.67,1.67ZM76.07,31.08c0-.53-.43-.97-.97-.97s-.97.43-.97.97.43.97.97.97.97-.43.97-.97Z"/>
        <g>
          <path class="cls-1" d="M80.68,34.87c0,.84-.68,1.51-1.51,1.51s-1.51-.68-1.51-1.51.68-1.51,1.51-1.51,1.51.68,1.51,1.51ZM80,34.87c0-.46-.37-.83-.83-.83s-.83.37-.83.83.37.83.83.83.83-.37.83-.83Z"/>
          <circle class="cls-1" cx="66.84" cy="53.75" r=".48"/>
          <circle class="cls-1" cx="66" cy="40.25" r=".44"/>
          <circle class="cls-1" cx="67.59" cy="50.06" r=".43"/>
          <path class="cls-1" d="M67.01,44.09c.37-.09.74.46.42.68-.63.43-1.09-.51-.42-.68Z"/>
          <circle class="cls-1" cx="57.08" cy="46.86" r=".43"/>
          <circle class="cls-1" cx="57.31" cy="48.57" r=".4"/>
          <path class="cls-1" d="M73.87,48.34c.75-.21.74.92,0,.71-.42-.12-.42-.59,0-.71Z"/>
          <path class="cls-1" d="M50.92,57.2c.29.45-.35,1.11-.67.48-.26-.51.5-.76.67-.48Z"/>
          <path class="cls-1" d="M75.52,53.07v.41c-1.23.82-1.37-.96,0-.41Z"/>
          <path class="cls-1" d="M47.26,58.05c.78-.39,2.21-2.44,2.9-2.6,1.05-.23,1.48.63,2.23.72.6.07,1.01-.34,1.61-.38.67-.05,1.12.29,1.63.27.89-.04,1.58-1.36,2.56-1.38-.37-.45.2-1.35-.18-1.63-.72-.54-1.97.74-3.18.06-.87-.48-.48-1.13-.69-1.43-.1-.14-.71-.14-.98-.27-.71-.34-.87-1.02-.59-1.72-2.27-.3-2.09-2.85.46-2.27.33.07,3.03,1.22,1.92-.17-.65-.81-1.79-.13-2.49-.75-.42-.37-.15-.96-.27-1.16-.03-.04-.34-.1-.47-.21-1.93-1.61.21-3.33,1.93-2.05.62.46,1.59,2.63,2.68,1.68,1.02-.88-.3-2.23-.56-3.06-.87-2.74,1.96-3.59,2.65-1.27.16.53.08,1,.19,1.43.08.31.43.52.48,1.03.06.72-.4,1.34-.38,2.06,1.34-.23,1.88.79,1.56,2-.19.7-1.2,1.11-1.2,1.93,0,.52.56,1.02.76,1.5.22.52.27,1.54.61,1.88.4.41,1.42-.04,2.06.06.6.09,1.08.63,1.34,1.15.17.35.36,1.51.56,1.57.71-.17,4.35-.49,4.66-.8.04-.04.49-.95.5-1,.07-.72-.84-2.19.26-2.86.8-.48,1.07.24,1.71-.04.87-.38.57-1.57-.34-1.65.08.52-.02,1.41-.69,1-.26-.49.17-.88.2-1.32.04-.53-.27-1.22-.14-1.81l-.34,1.21c-1.8,1.97-2.43-1.19-1.51-2.63.65-1.01,1.69-.89,2.54-1.58.56-.45,1.36-1.43.68-2.07-1.45-.28-1.2,1.98-2.44,2.18-2.7.44-2.4-3.35-.79-4.66.73-.59,2.86-1.2,2.28-2.33-.5-.11-1.57,1.58-2.11.38-.37-.82,1.5-3.33.35-3.72-1.51-.52-.86,1.94-.91,2.67-.13,1.86-2.19,3.95-3.69,1.93-.73-.98-.22-1.61-.49-2.51-.18-.59-.92-.93-1.22-.21-.64,1.52,1.7,2.98.89,4.26-.71,1.12-1.95-.69-2.58-.78-.5-.07-.61.36-.39.78.76,1.44,3.59.54,4.27,2.6.25.74,0,1.32.14,1.98.22,1.09,1.32,1.71,1.29,3.18-.02.95-.86,1.26-.92,1.55-.16.8.44,1.49-.3,2.44-1.33,1.71-3-.53-2.72-2.22.14-.81,1.08-1.67.73-2.53-.13-.31-.3-.51-.67-.41-.88.24-.25,1.73-.36,2.26-.08.37-.64.74-.71,1.06-.1.5.66,1.21.48,1.78-1.05.25-1.29-1.55-1.07-2.25.09-.29.49-.51.55-.83s-.14-.78-.11-1.22c.15-1.91,2.59-2.03,2.63,0,.03,1.25-1.14,2.01-.7,3.44.16.52.8.98,1.31.55.75-.63.05-1.7.28-2.47.08-.26.56-.51.71-.79.56-1.07-.85-2.22-1.05-3.16-.26-1.2.39-2.08-.97-2.9-.93-.57-2.14-.36-3-1.12-.63-.56-1.06-1.6-.21-2.17,1.22-.82,2.55,1.06,2.75.82,0-1.19-1.07-1.94-1.13-3.18-.1-2.12,2.49-2.36,2.85-.22.13.77-.19,1.4.46,2.04,1,.99,2-.35,2.16-1.35s-.27-2.09.09-2.9c.56-1.25,2.4-1.16,2.65.22.22,1.18-.41,1.86-.72,2.9.35-.05.48-.33.84-.47,1.2-.46,1.87.72,1.21,1.72-.82,1.25-2.61,1.27-3.2,2.79-.35.9-.44,2.88,1.02,2.27.63-.27.71-2.09,2.2-2.18,1.74-.11,1.28,2.28.42,3.18-1.07,1.12-3.16.78-3.11,2.86,0,.34.19,1.09.61.74.16-1.01.34-2.11,1.63-1.86.48.09,1.39.89,1.73.68.43-.27,0-1.95.17-2.52.09-.3.77-.67.85-1.16.09-.59-.43-1.28-.37-1.97.04-.48.43-.81.49-1.14.13-.69-.2-1.94.94-2.06,1.94-.21,1.02,2.29.82,3.38.33-.27.58-.76.89-1.05,2.18-2,4.17.57,1.78,2.15-.95.63-1.9.49-2.52,1.73-.25.51-.62,2.27-.65,2.85-.01.19-.04.51.12.63,1.54.29,1.45-1.69,2.01-2.51,1.27-1.86,3.73-.27,2.12,1.75-.22.28-1.34,1.03-1.12,1.31.92-.55,2.82-1.35,3.46-.03.65,1.32-1.24,2.2-2.3,2.27-.43.03-.87-.13-1.36-.12-.93.02-2.41.42-2.5,1.5.61,1.23,3.21.92,2.81,2.37l4.99.13c-.63-2.04.51-3.35,1.13-5.05,1.11-3.08-1.03-3.54-1.81-5.94-1-3.08,1.88-4.9,2.29-7.56.08-.49-.23-1.63.64-1.23.1.05.58.56.69.68,1.74,2.07.37,3.9,1.09,6.15.68,2.13,1.79,3.07,1.29,5.59-.46,2.31-2.93,4.52-1.71,6.94.52,1.04,1.21.9,2.27.91-.5-1.9-.5-3.83-.06-5.74.27-1.17.89-2.39,1.03-3.59.12-1.09-.06-2.24.05-3.32.13-1.32.84-2.73.97-4.03.22-2.24-.6-4.23-.49-6.36.07-1.4.69-2.7.78-4.09.37-1.26,1.64,1.35,1.71,1.85.27,1.82-.8,3.59-.36,5.23.32,1.17,1.41,2.2,1.89,3.36,1.5,3.65-.94,6.04-1.65,9.45.32.07.22-.08.32-.23.93-1.33,3.14-3.53,3.51-4.86.77-2.8-1.75-5.16.11-8.13.38-.6,2.04-2.24,2.73-2.14.62.09-.13,1.27-.25,1.75-.85,3.48,1.71,6.66.21,10.32-1.16,2.82-4.6,4.26-4.89,7.47-.07.81,0,4.34.58,4.81.29.23,3.2,1.22,1.91,1.81-.97-.59-1.82-1.08-2.9-1.47-3.58-1.31-8.46-1.83-12.26-1.97-7.9-.29-15.94.69-23.56,2.66l-2.59.96h41.82v.75H4.13v-.75h43.13ZM91.78,54.91c1.31.35.63-.34.63-1.17,0-1,.35-2.25.36-3.25,0-1.26-.28-2.66-.12-3.98.31-2.63,2.51-4.43,1.95-7.47-.35-1.92-1.9-2.91-2.31-4.56-.53-2.16,1.07-3.96.09-6.02-.23.04-.21.26-.26.42-.92,2.49-.33,4.09,0,6.52.18,1.31.11,1.32.52,2.6.37,1.18.61,2.1.49,3.37-.04.44-.49,2.95-1.24,2.43-.15-.61.3-1.21.44-1.86.2-.93.18-2.09-.13-3-.06-.19-.07-.45-.31-.5-.04,1-.63,1.97-.74,2.95s.06,2.02,0,2.99c-.14,2.07-1.24,3.91-1.38,5.98-.1,1.43.12,2.79.39,4.18l.74.13v-5.79c.05-.24.63-.18.73.13l.16,5.89ZM94.51,55.56c-.35-2.37-.61-4.95.73-7.08,1.15-1.84,3.32-3.1,4.08-5.16,1.25-3.39-1.34-6.82-.31-10.24-3.78,2.46.02,6.27-1.4,9.65-.57,1.37-1.81,2.22-2.65,3.35-.54.72-.77,1.41-1.19,2.15-.08.14-.32.1-.38.4-.14.77.05,2.13,0,3-.03.75-.3,1.58-.24,2.35.07,1.03.29,1.44,1.36,1.58ZM86.52,54.06c0-.4-.24-.71-.34-1.1-.72-3.02,2.25-5.04,2.09-7.96-.09-1.66-1.22-2.88-1.57-4.42-.33-1.44.25-2.81-.12-4.13-.11-.38-.34-1.1-.81-1.12-.33,1.61-1.22,3.19-.99,4.92s2.09,2.93,2.06,5.11c-.03,2.92-3.85,5.4-2.36,8.45l2.03.25ZM74.53,42.88c-.1.66-.73.94-.84,1.41-.18.78.49,1.81-.28,2.47-.61.53-1.27.32-1.82-.17-.41-.06-.35.83-.23,1.11.16.39,1.08.68,1.25,1.24.31.99-.23,2.28-1.37,2.24-.33,0-.88-.39-1.17-.09-.33.34.03,1.17.1,1.59.1.07,1.03-.25,1.31-.25.32,0,.6.19.99.12.59-.1,1.58-1.39,2.57-1-.4-1.64,1.76-2.44,3.05-2.5,1.07-.05,2.86.54,3.17-1.03-.75-1.25-3.04,1.34-3.67.04-.71-1.46,2.61-1.95,1.48-3.48-1.38-.14-1.23,1.31-1.69,2.15-.78,1.44-2.98,1.83-2.84-.09.05-.7.49-2.86.81-3.44.85-1.55,2.37-1.29,3.13-2.17.92-1.07-.36-1.67-1.33-.77-.45.42-1.05,2.01-1.94,1.33-.97-.75.99-2.69,0-3.51-.79.25-.38,1.01-.46,1.53-.06.4-.43.68-.48,1.04M85.65,46.69c1.38-1.67-.36-3.62-1.19-5.12l-.56-2c-1.79,2.9,1.16,4.53,1.75,7.11ZM62.88,53.35c-.78-.78-1.97.33-3.02-.54-.61-.51-.39-1.41-.71-2.16-.18-.41-.53-.67-.69-1.06-.69-1.69,1.32-2.41,1.19-3.31-.13-.93-1.12.06-1.57-.8-.43-.82.3-1.66.23-2.47-.04-.43-.4-.53-.48-.9-.11-.5.07-2.68-1.19-2.27-1.13.37.48,2.72.61,3.23.52,2.02-1.08,3.41-2.82,2.07-.76-.59-1.61-2.78-2.75-1.37-.13.87,1.24,1.03,1.45,1.43.15.29-.4.61-.08.81.22.14,1.08.02,1.57.18.91.29,1.89,1.61.8,2.31-1.19.76-2.44-.85-3.67-.32-.21.87.7.68,1.2.79.36.08,1.02.32,1.3.34.47.03.98-.19,1.6-.11.89.12,1.94.94,1.82,1.91-.18,1.46-2.56.51-2.74.7.17,1.74,1.75.17,2.91.4,1.36.28.88,1.37,1.08,2.29.68.06,1.21.05,1.88.24.9.25,1.51,1,2.54.57.34-.19-.2-1.7-.46-1.96ZM53.2,49.95c-.3,1.18,1.08.9,1.79,1,.42.06,2.74.7,1.75-.5-.82-.99-2.44-.17-3.54-.5ZM77.78,53.68c.1-.64-.68-.54-1.09-.72-1.19-.54-1.41-1.23-2.87-.42-.34.19-.77.68-1.13.75s-.63-.11-.96-.11c-.84-.01-1.47.18-1.81,1l7.86-.5ZM48.57,58.05h4.68l.19-.74.5.05c.17,1.1.65.43,1.28.17,1.87-.75,3.86-1.29,5.83-1.72.05-.32-.03-.19-.18-.26-.84-.39-2.35-.36-3.18.09-.65.35-1.12,1.12-1.95,1.18-.55.04-.99-.29-1.62-.27s-1.08.42-1.73.37c-.71-.05-1.43-.83-1.99-.72-.29.06-1.43,1.19-1.65,1.48-.1.13-.24.16-.19.38Z"/>
        </g>
      </g>
      <g>
        <path class="cls-1" d="M50.63,40.33c-1.47-.17-3.04-1.06-4.24-1.87-3.66,2.62-8.94,2.83-12.49-.1-3.41,2.79-8.52,2.81-11.98.1-3.39,2.49-8.36,2.68-11.63-.12-2.45,1.95-6.33,2.68-9.24,1.39-.39-.17-.99-.38-.91-.89.63-.28,1.12.24,1.75.44,2.21.69,4.59.52,6.62-.62.42-.24,1.54-1.3,1.69-1.32.36-.04.97.77,1.34,1.03,3.02,2.16,7.72,1.55,10.39-.91,1.13.99,2.24,1.68,3.73,2.02,3.06.69,5.85-.07,8.26-2.02,3.54,3.09,8.91,2.99,12.48,0,1.74,1.53,3.84,2.31,6.18,2.25v.62c-.62-.05-1.33.07-1.94,0Z"/>
        <path class="cls-1" d="M45.93,45.96c.49.81-1.37.94-1.93.99-2.3.18-4.73-.46-6.49-1.96-3.39,2.6-8.25,2.63-11.63-.01-3.54,2.63-8.34,2.6-11.82-.13-2.35,2.1-7.35,2.88-10.03,1.13-.46-.3-.57-.72.02-.73.23,0,1.72.69,2.28.79,2.37.45,4.8,0,6.76-1.41.3-.21.68-.81,1.05-.78.3.03.91.77,1.24,1,2.56,1.81,6.43,1.71,9.07.15.37-.22,1.15-.94,1.45-.94.56.19.91.69,1.48,1.03,2.49,1.51,6.26,1.47,8.73-.05.52-.32.85-.79,1.4-.97,1.86,1.65,4.01,2.29,6.49,2.12.39-.03,1.71-.37,1.92-.24Z"/>
        <path class="cls-1" d="M12.88,52.32s.33-.11.41-.1c.46.06,1.38.56,2.05.68,1.79.32,3.88.04,5.48-.82.38-.2,1.34-1.05,1.59-1.03,2.64,2.34,6.52,2.8,9.67,1.18.72-.37,1.23-.92,1.95-1.25,1.09.83,2.07,1.54,3.43,1.89,2.34.61,4.87.33,6.95-.92l.42.42c0,.28-.8.6-1.05.71-3.2,1.41-6.98.98-9.76-1.14-.6.26-1.04.68-1.64.98-3.25,1.58-7.14,1.27-9.99-.96-2.23,1.61-5.29,2.19-7.96,1.47-.37-.1-1.94-.57-1.56-1.11Z"/>
      </g>
      <g>
        <path class="cls-1" d="M62.71,15.04c0,.93-.75,1.68-1.68,1.68s-1.68-.75-1.68-1.68.75-1.68,1.68-1.68,1.68.75,1.68,1.68ZM62,15.03c0-.54-.43-.97-.97-.97s-.97.43-.97.97.43.97.97.97.97-.43.97-.97Z"/>
        <path class="cls-1" d="M64.83,24.82c0,.89-.72,1.61-1.61,1.61s-1.61-.72-1.61-1.61.72-1.61,1.61-1.61,1.61.72,1.61,1.61ZM64.16,24.82c0-.51-.41-.92-.92-.92s-.92.41-.92.92.41.92.92.92.92-.41.92-.92Z"/>
        <path class="cls-1" d="M60.81,20.83c0,.73-.6,1.33-1.33,1.33s-1.33-.6-1.33-1.33.6-1.33,1.33-1.33,1.33.6,1.33,1.33ZM60.16,20.82c0-.37-.3-.68-.68-.68s-.68.3-.68.68.3.68.68.68.68-.3.68-.68Z"/>
        <g>
          <path class="cls-1" d="M74.04,16.86c-.17.24.69.51.19.88-.11.08-1.25.09-1.32.06-.84-.38.97-1.79,1.57-1.81,1.23-.05,1.36,2.12.49,1.87-.34-.1-.06-.89-.31-1.07l-.63.07Z"/>
          <path class="cls-1" d="M87.61,13.25c.25-.04.41.09.51.32.14.8-1.19,1.92-1.86,1.48-.5-.33.99-1.75,1.34-1.8Z"/>
          <path class="cls-1" d="M92.79,20.7c-.07-.06-.14-.25-.1-.35.36-.48.89-.18,1.19.19.09.41-.85.38-1.09.16Z"/>
          <path class="cls-1" d="M87.59,17.99c.78-.25.98,1.21.08.77-.35-.17-.42-.66-.08-.77Z"/>
          <path class="cls-1" d="M88.11,21.24l.6.23c.33.54-.65.71-.89.26-.14-.22.11-.4.28-.48Z"/>
          <path class="cls-1" d="M85.63,20.47c-.28.38-1.41-.28-.58-.65.4-.18.76.39.58.65Z"/>
          <path class="cls-1" d="M85.12,16.76c.42.4-.35.99-.66.47-.33-.56.37-.75.66-.47Z"/>
          <circle class="cls-1" cx="81.11" cy="16.97" r=".4"/>
          <circle class="cls-1" cx="81.98" cy="14.01" r=".4"/>
          <circle class="cls-1" cx="79.53" cy="12.18" r=".36"/>
          <circle class="cls-1" cx="67.73" cy="17.1" r=".36"/>
          <circle class="cls-1" cx="83.88" cy="11.94" r=".36"/>
          <path class="cls-1" d="M70.04,7.75c.23-.23,1.79.96,1.75,1.18-.13.63-2.23-.29-1.75-1.18Z"/>
          <path class="cls-1" d="M74.16,8.5c.2-.05.34-.13.54,0,.9.62-.66,1.2-.54,0Z"/>
          <path class="cls-1" d="M91.26,14.36c1.32,3.53,4.09,5,7.8,4.74.48-.03,2.07-.68,1.79.29-.15.53-2.33,2.04-2.89,2.36-5.35,2.95-15.23,3.68-20.55.41-.45-.28-1.59-1.34-1.85-1.4-.41-.1-1.13.2-1.59.22-1.87.11-3.25-.13-4.74-1.25-.39-.29-1.5-1.11-1.94-1.31-.58-.26-1.1.05-1.62-.75-.92-1.4,1.69-2.98,2.48-3.9-.15-.94-.55-1.81-.69-2.76-.39-2.58.09-8.23,3.52-8.52,2.76-.24,3.9,3.42,5.76,4.6,1.19.76,2.7.91,4.01,1.36.93.32,2.19,1.08,3.08,1.16.66.06,1.43-.03,2.1-.03.47-.42.53-1,1.09-1.4,1.52-1.09,3.24-.02,3.11,1.8,3.77-.2,11.68-2.08,9.96-7.4-.18-.56-1.29-1.98-1.04-2.34.28-.4.77.26.94.44,4.07,4.44.04,8.79-4.21,10.76-.43.2-2.11.71-2.28.85-.22.19-.08.68-.15.97-.16.7-1.44,1.12-2.1,1.09ZM81.65,9.62c-2.06-1.05-4.53-.98-6.25-2.68-1.38-1.38-3.18-5.29-5.68-3.07-2.25,2-1.87,6.89-.93,9.49.84-.39,1.61-.95,2.45-1.36,1.9-.91,3.95-1.45,6.01-1.85l4.39-.54ZM99.19,19.85c-.79.03-1.58,0-2.37,0-.19,0-1.06-.24-1.3-.32-1.32-.41-2.43-1.24-3.44-2.16-.34.36-1.41.68-1.82.42-.25-.16-.1-.31.09-.42.24-.13,1.41-.26,1.41-.34-.32-.7-.77-1.35-1.06-2.06-.1-.25-.63-1.41-.23-1.51.8.12,1.76.37,2.23-.48.03-.71-.68-.39-.95-.57-.77-.51,1.08-.7,1.35-.78,2.38-.69,5.21-2.12,6.75-4.11.29-.37.82-1.07.71-1.54-2.16,3.78-7.55,4.52-11.53,4.73-.31-.51.23-.56.31-.85.27-.99-.76-1.66-1.66-1.29-.83.34-.73,1.58-1.49,1.75-1.06.23-3.14-.03-4.35.02-4.35.18-8.6,1.08-12.28,3.45-.7.45-3.34,2.36-3.38,3.12-.04.82.88.58,1.29.7.19.05.48.47.75.63.51.3,1.68.62,2.27.6.43-.01,2.1-.57,2.18-.5.14.1.15.46-.07.61-.48.33-1.7.53-2.3.51.85.8,2.57.85,3.69.75.56-.05,1.56-.5,1.97-.36.12.04.49.61.71.79,5.04,4.32,15.76,3.38,21.23.25.51-.29.96-.7,1.49-.94v-.18c-.02-.18-.16.06-.19.06Z"/>
        </g>
        <g>
          <path class="cls-1" d="M21.44,12.02c1.94-.44,2.08,2.15.36,2.09-1.35-.05-1.59-1.81-.36-2.09ZM21.36,12.74c-.06.88,1.25.84.75-.07l-.75.07Z"/>
          <path class="cls-1" d="M23.85,12.61c.31-.43,1.92,1.12,2.1,1.45.09.17.22.36.08.55-.28.44-1-.63-1.25-.88-.34-.33-.99-.54-.94-1.12Z"/>
          <path class="cls-1" d="M52.94,28.22c.45-.42,1.29,1.12.68,1.5-.33.07-.75-1.44-.68-1.5Z"/>
          <path class="cls-1" d="M39.95,27.35c.41.81,1.14,1.46,1.6,2.21.58.94,1.02,2.21,1.59,3.15.49.81,1.12,1.54,1.74,2.26.28.71-.27.93-.87,1-6.05.68-12.91-5.94-13.36-11.86l-1.5-1.5c-1.13.81-.6,1.54-.56,2.55.03.68.01,1.68,0,2.38,0,.47-.24.91-.24,1.25,0,.48.63,1.48.71,2.26.2,1.92-.08,3.26-2.17,1.92-2.72-1.74-4.91-8.06-3.62-10.99.2-.46,1.41-1.72,1.17-2.11-2.35-1.26-5.52-1.76-6.79-4.38-1.28-2.63-.33-3.75,2.25-4.5,2.67-.78,4.89.12,6.93,1.81.89.73,1.07,1.5,2.47,1.53.43.01,1.63-.93,2.3-1.14,5.91-1.83,11.13-1.63,16.02,2.54,1.93,1.65,2.92,3.64,4.44,5.55.88,1.1,3.03,2.41,1.87,3.87-.2.25-.86.55-.69.82.15.23,1.77.53,2.19.68,1.03.39,3.5,2.1,4.19,2.93.47.57.45.93-.15,1.36-.93.66-2.08.99-3.21.88-1.35-.13-3.19-.98-4.41-1.08-.31-.03-.68.12-1.09.1-.36-.02-1.68-.25-2.01-.37-.99-.35-1.64-1.33-2.26-2.11-2.22.04-4.45-.24-6.53-1.02ZM27.97,16.86c.59-1.76-1.37-3.5-2.71-4.34-1.44-.91-2.98-1.37-4.69-.99-.84.19-3.49,1.05-2.41,2.22.77.83,2.1.56,2.45.8.23.15.18.68-.18.69-.58.01-1.52-.37-2.11-.52-.1-.03-.32-.22-.21.09.87,2.53,6.24,4.01,8.57,5.29,1.47.8,2.76,1.75,3.97,2.89.38-3.84,4.09-3.5,5.83-.71.28.45.49,1.2.79,1.58s.94.67,1.24,1.13c.23.35.23.86.5,1.12.22.22,1.39.63,1.75.75,2.59.84,5.67,1.07,8.33.46.86-.2,1.76-.5,2.47-1.02-.81.01-1.63.26-2.43.31-4.57.3-8.72-1.55-12.1-4.5-1.71-1.49-6.05-6.66-7.9-7.08-.18-.04-.35-.04-.53-.03.15.64.44,2.24-.62,1.87ZM38.31,12.89c-1.52-.1-2.89-.09-4.34.42-.19.06-.97.28-.88.49s1.46,1.35,1.71,1.41c.39.09,1.29.06,1.73.03.34-.02,2.66-.36,2.67-.57l-.89-1.79ZM46.32,15.61c-2.17-1.58-4.53-2.59-7.24-2.75l.93,1.88c1.96.61,3.63,1.71,5.73,1.85l.58-.98ZM32.05,13.89c-.62.22-1.28.36-1.71.91l1.93,1.4,1.43-.9-1.66-1.41ZM43.05,16.63c-.1-.16-3.18-1.26-3.52-1.26-.25,0-1.99.33-2.19.43l-1.1,1.37c1.23,1.81,3.02,3.33,4.92,4.41.18.1,1.04.63,1.16.52.55-1.8.91-3.57.73-5.47ZM32.84,16.61c-.05.18.05.21.12.31.24.34,1.08,1.18,1.44,1.56.56.6,5.17,5.17,5.68,4.81l.43-1.2c-2.47-1.71-4.5-3.68-6.18-6.18l-1.5.7ZM36.33,15.86c-.14.06-1.27-.17-1.12.18.26.63,1.04.5,1.12-.18ZM49.57,18.98c-.56-.84-1.23-1.66-2-2.31-.11-.09-.67-.56-.75-.5-.66.87-.18.76.26,1.24.68.76,1.31,1.68,2.49,1.57ZM43.7,16.98v2.43l-.82,3.06c.21.35,2.87,1.02,3.4,1.1.47.07,1.69.36,1.79-.17l-.31-4.3c-1.15-1.36-2.16-2.17-4.06-2.12ZM48.69,23.72c1.2-.1,2.51-.33,3.49-1.07l-2.05-2.81-1.57-.37.12,4.24ZM28.34,32.71c-.02-.59.05-1.19-.03-1.78-.09-.69-.64-1.44-.69-1.93-.04-.44.25-1.04.23-1.6-.01-.46-.24-.76-.25-.99s.21-.56.24-.88c.12-1.21-.54-2.24.6-3.37-.02-.25-2.91-2-3.27-1.94-.37.94-1.3,1.82-1.44,2.83-.35,2.7.69,6.29,2.49,8.35.52.6,1.29,1.32,2.12,1.31ZM41.89,35.21c.67.08,1.49-.06,2.18,0-.61-.78-1.26-1.56-1.77-2.41-.42-.69-.75-1.56-1.08-2.29-.17-.38-.72-1.27-1.11-1.39-.58-.17-1.43.23-1.91-.34-.11-.47,1.06-.28,1.31-.31.13-.02.27.03.18-.19-.23-.57-1.17-1.37-1.48-1.89-.21-.36-.23-.8-.46-1.16-.28-.43-.93-.82-1.23-1.26-.39-.57-.51-1.26-1.02-1.85-1.8-2.12-4.18-1.5-4.18,1.43-.01,4.99,5.67,11.06,10.56,11.67ZM44.43,23.86l-3.28-1.4c-.64,1.29-.6,1.38.63,1.99.77.38,1.68.59,2.48.89l.17-1.49ZM50.07,25.72c.71.02,3.13-.64,3.43-1.25.19-.37-.38-1.24-.75-1.25-.11,0-1.15.57-1.44.68-.44.17-.94.18-1.37.38l-.12.24.25,1.19ZM49.05,24.37c-1.34.05-2.65-.1-3.98-.27l-.11,1.3c.13.54,3.85.63,4.48.45l-.39-1.48ZM55.81,29.22c.93,1.88-.81,1.36-.43-.26-1.17-.59-2.26-1.08-3.14-2.1l-2.54.98c.66,1.46,2.41,2.29,3.89,2.66.54.14,3.14.72,3.5.68.39-.04,1.56-.51,1.89-.74.17-.12.27-.13.15-.36-.07-.14-2.12-1.79-2.4-1.97-1-.66-2.19-1.08-3.38-1.24-.14-.02-.43-.14-.4.09l5.23,2.64-.29.49-2.07-.87ZM50.69,30.09l-1.75-1.81-1.5.06c.62,1.3,1.93,1.6,3.25,1.75Z"/>
        </g>
      </g>
    </g>
  </g>
</svg>