<?xml version="1.0" encoding="UTF-8"?>
<svg id="Layer_2" data-name="Layer 2" xmlns="http://www.w3.org/2000/svg" viewBox="0 0 123.86 62.15">
  <defs>
    <style>
      .cls-1 {
        fill: #0278b6;
      }
    </style>
  </defs>
  <g id="Layer_1-2" data-name="Layer 1">
    <g>
      <path class="cls-1" d="M62.89,14.92v16.5h6.83s0,1.71,0,1.71h-8.54v-15.65l-.85-.85H9.68c-.2,0-.63-1.01-1.42.28v43.54h73.42v-22.48l-.85-.85h-35.86l-.85.85v20.2l-1.16-11.64c.49-3.52-.99-8.17.88-11.12h39.27l.85.85v24.19h30.16v-19.07c0-.16-.58-1.33-.96-1.44l-26.93-.55v-6.83h31.87l.04,5.95-1.66.36-.66,21.58c1.95,0,3.88-.12,5.83.16.92.13,2.56.11,2.14,1.54H.58l-.58-1.14,6.55-.57-.04-45.86,56.38.33ZM87.94,37.68h28.46v-2.84c-9.41-.99-18.94.56-28.46,0v2.85Z"/>
      <path class="cls-1" d="M89.07,13.21c1.15-.4,3.17,1.14,3.7,1.14h16.79v15.37h-1.7s0-3.99,0-3.99h-6.84s0,3.99,0,3.99h-1.7v-3.99s-6.5-.03-6.5-.03c-.97.17.1,5.08-2.03,4.58l-.57-13.94-.85-1.42h-16.79v18.21h-1.71V14.06l3.42-.85.67-12.41c.72-.82,10.48-.9,12.16-.71.83.1,1.46.07,1.96.88v12.24ZM86.8,2.4h-10.24c.73,3.53-1.96,7.79.28,10.81h9.96V2.4ZM99.32,16.62l-6.83-.57v3.42s6.83,0,6.83,0v-2.85ZM107.86,16.62l-6.83-.56v3.42s6.83,0,6.83,0v-2.85ZM99.32,21.18h-6.83s.03,2.82.03,2.82c3.36.32,7.57,2.37,6.8-2.82ZM107.86,21.17h-6.85s0,3.44,0,3.44h6.85s0-3.44,0-3.44Z"/>
      <path class="cls-1" d="M40.7,58.74v-13.37c-1.65-1.67-4.63-.56-6.83-.85v13.09l-1.76-.33-.6-12.39c-.42-1.46-1.74-.19-2.77-.36v13.66h-1.71v-13.66h-7.97v12.81l-.85.84-.85-.84v-13.66l.85-.85h23.33l.85.85v13.66c0,.86.93,1.59-1.71,1.42Z"/>
      <path class="cls-1" d="M48.66,50.2l.66,4.75.85.88,22.7-.53,5.39,1.72-29.8.5c-1.37-.45-1.1-5.13-.93-6.48.1-.79.3-1.64,1.13-.84Z"/>
      <path class="cls-1" d="M74.56,40.53l.57,1.14c-.61.9-1.23,1.04-2.25,1.17-4.63.56-12.77.16-17.69,0-1.53-.05-5.3-1.58-5.83.32.54,1.98.22,3.08-1.82,3.64,0-1.04-1.39-6.26.28-6.26h26.75Z"/>
      <path class="cls-1" d="M74.28,52.48h-21.34l-.84-.85.56-1.42h20.77c.12,0,.65-.85.85-.57v2.85Z"/>
      <rect class="cls-1" x="52.65" y="45.08" width="21.63" height="1.71"/>
      <path class="cls-1" d="M79.97,18.33c.41,1.43-1.26,1.31-1.57,1.83-.65,1.11.27,5.24-1.84,4.99l-.51-5.93c.31-1.28,2.84-.88,3.92-.9Z"/>
      <rect class="cls-1" x="99.32" y="54.19" width="8.54" height="1.14"/>
      <rect class="cls-1" x="99.32" y="49.63" width="8.54" height="1.14"/>
      <polygon class="cls-1" points="78.26 41.09 78.26 46.22 76.56 46.22 75.99 41.1 78.26 41.09"/>
      <rect class="cls-1" x="103.02" y="41.95" width="1.14" height="7.4" transform="translate(57.91 149.22) rotate(-89.98)"/>
    </g>
  </g>
</svg>