<?xml version="1.0" encoding="UTF-8"?>
<svg id="Layer_2" data-name="Layer 2" xmlns="http://www.w3.org/2000/svg" viewBox="0 0 88.28 61.55">
  <defs>
    <style>
      .cls-1 {
        fill: #0278b6;
      }
    </style>
  </defs>
  <g id="Layer_1-2" data-name="Layer 1">
    <g>
      <path class="cls-1" d="M81.16,25.69c1.19.37.73,4.65.28,5.71l-3.21.33c-.06,1.8-2.08,3.87-2.34,5.25-.81,4.34.51,10.95.04,15.56,3.5,1.45,2.64,4.4,2.7,7.65h8.51s1.15,1.38,1.15,1.38H0l1.15-1.38,9.44.26c.97-.7.13-4.06.54-5.45.37-1.26,2.29-1.6,2.59-2.47.41-1.2.22-10.88.09-12.82-.05-.78-.28-2.95-.49-3.53-.25-.67-2.66-1.7-1.86-4l-4.1-.5c.25-1.91-.69-4.52.69-5.97h73.11ZM9.17,27.07v3.71h70.83v-3.71H9.17ZM30.96,35.67c-1.43-2.49,0-3.92-3.6-4.03-.72-.02-4.38.34-4.74.58-.16.11-1.77,3.28-1.82,3.47-.32,1.22-.69,16.34-.33,17.12.34.74,1.69,1.24,1.97,2.17.32,1.06-.11,5,.09,5.2h7.36c.21-.21-.22-4.58.09-5.65.36-1.21,1.91-1.47,2.1-1.8.4-.68.36-14.43.11-15.78-.2-1.09-1.08-.99-1.24-1.27ZM31.72,32.13c-.1,1.69-.1,2.12,1.59,2.32,1.53.18,6.74.48,6.23-2.08-.34-1.69-6.45.11-7.82-.24ZM48.28,60.17c.23-.23-.25-4.56.08-5.66s1.96-1,2.22-2.38c.26-1.37.22-14.49-.1-15.54-.24-.8-1.25-1.13-1.51-1.71-.41-.92.02-2.52-.66-3.02l-7.37-.18c.54,2-1.61,3.56-1.85,4.82s-.2,15.26.07,16.01,1.61.88,2.03,2.11c.55,1.63.03,3.83.2,5.55h6.9ZM57.47,32.13c-2.15.2-4.3-.15-6.44-.25-.42-.02-1.29-.29-1.36.47-.25,2.54,4.06,2.32,5.76,2.1,1.45-.19,2.19-.75,2.05-2.32ZM67.13,60.17c.22-.22-.25-4.55.09-5.66s1.93-1.4,2.04-3.84c.09-1.97-.03-12.85-.39-14.09-.19-.66-1.08-1.13-1.4-1.82-.39-.85-.2-2.49-.77-2.91l-7.11-.23c-.16,1.62-1.87,3.67-2.1,4.88-.27,1.45-.32,14.79-.03,15.98.11.46,1.04.56,1.4.99,1.54,1.82.73,4.47.91,6.69h7.36ZM75.18,32.12c-2.21.1-4.46-.07-6.67,0,.07,1,.01,2.2,1.13,2.33,2.25.26,6.27.71,6.69-2.1.22-1.45-.92-.24-1.16-.23ZM20.69,32.12h-7.82c-.59,3.41,8.13,3.34,7.82,0ZM18.85,36.26l-2.93-.42-.75.65v16.32c.76.36,3.68.85,3.68-.23v-16.32ZM33.57,52.81c.75.1,4.14,1.01,4.14-.23v-16.09c-.98-1.2-2.75-.56-4.14-.69v17.01ZM51.96,35.8v16.78c6.21,3.01,3.76-3.38,3.66-6.88-.09-3.04.09-6.1.04-9.14l-3.7-.77ZM74.49,36.26l-3.37-.02c-1.36.31-.69,14.04-.56,16.14l3.94.43v-16.55ZM76.79,60.17l-.44-5.31c-.97-.68-7.11-.53-7.64.22l.23,5.34,7.85-.26ZM21.15,60.17c-.24-1.77.66-4.18-.69-5.52h-7.59v5.52h8.28ZM40,60.17l-.43-5.32h-7.88l-.43,5.32h8.74ZM58.39,60.17l-.43-5.32h-7.88l-.43,5.32h8.74Z"/>
      <path class="cls-1" d="M43.68.63l1.07-.63c3.11,2.11,5.98,1.74,9.5,1.31v5.98h-7.13c-.23,0-.96-.73-1.61-.46.14,1.52-.52,3.46.66,4.62.89.87,5.79,3.01,7.3,3.73,5.26,2.52,10.81,4.47,16.12,6.87l.74,1.78-25.59-11.4c-6.91,2.9-13.89,6.66-20.86,9.33-1.24.47-3.68,1.82-4.13.24l23.91-10.81V.63Z"/>
      <path class="cls-1" d="M47.69,20.02c0,1.71-1.39,3.1-3.1,3.1s-3.1-1.39-3.1-3.1,1.39-3.1,3.1-3.1,3.1,1.39,3.1,3.1ZM46.47,20.02c0-1.08-.87-1.95-1.95-1.95s-1.95.87-1.95,1.95.87,1.95,1.95,1.95,1.95-.87,1.95-1.95Z"/>
      <circle class="cls-1" cx="44.52" cy="20.02" r="1.95"/>
    </g>
  </g>
</svg>