<?xml version="1.0" encoding="UTF-8"?>
<svg id="Layer_2" data-name="Layer 2" xmlns="http://www.w3.org/2000/svg" viewBox="0 0 94.93 60.75">
  <defs>
    <style>
      .cls-1 {
        fill: #0278b6;
      }
    </style>
  </defs>
  <g id="Layer_1-2" data-name="Layer 1">
    <path class="cls-1" d="M9.44,50.78l3.71-.23c.54-.37.44-1.02.51-1.58.24-1.88-.56-10.34-1.38-11.79-.52-.92-1.6-1.41-2.2-2.52-1.4-2.6-1.87-6.86-1.62-9.78.9-10.96,8.46.19,14.75-.45,11.92-3.62,24.14-6.92,35.57-11.76l-1.57-10.11,10.08-2.57c6.44,3.77,10.35,12.28,10.86,19.59.31,4.48,1,7.57-4.22,8.44l.52,21.91c.18.62,2.6.28,2.13,1.89l-3.66.26c2.02,1.61,4.59,1.61,6.77,3.18,1.13.81,3.18,3.9,3.44,3.9h11.8v1.57H.79l-.79-1.57h8.65l.79-.79v-7.6ZM61.43,12.04c-1.8,2.85,9.61,13.72,12.34,13.99,4.76.47,2.19-9.94,1.49-12.47-.91-3.26-5.01-11.46-8.89-11.57-2.13-.06-4.79,1.78-7.08,1.62l1.03,7.32,4.19-1.05c1.27,1-2.92,1.91-3.08,2.16ZM59.71,14.67l-35.54,11.52.48,4.67,37.23-12.07-2.17-4.12ZM66,59.09c.14-.09.77-1.94,1.64-2.82,1.48-1.5,3.6-1.95,5.25-3.13-2.1-1.55-.18-2.4.04-4.17l-.57-20.47c-.02-.6-.39-.94-.73-1.37-.3-.38-6.94-6.04-7.36-6.28-.59-.35-.77-.52-1.54-.49-.69.03-12.57,3.83-13.13,4.24-1.28.95-.84,2.41-.82,3.88l6.01,30.18c.5.66,10.62.8,11.21.43ZM20.45,25.62l-9.96-3.68c-.45,2.8-.44,5.06,0,7.87.33.36,8.38-2.44,9.29-3.02.53-.34.92.03.67-1.17ZM46.67,27.19c-.4-.28-4.27,3.03-4.9,3.62-.44.42-.48.36-.33,1.08,2.48.48,4.1,3.03,6.82,2.63l-1.58-7.33ZM11.61,31.96c-.37.93.16,2.74,1.23,2.89.9.13,10.62-3.17,10.75-3.77-.33-1.02-1.06-3.36-2.24-3.29l-9.74,4.17ZM15.21,41.87v8.92h4.2s.52,8.39.52,8.39h12.32l5.5-30.42-13.31,4.25c-1.54,1.07-1.46,4.48-3.52,6.44-1.39,1.32-3.79,2.3-5.72,2.41ZM48.25,36.63l-8.65-4.19-2.35,10.47,4.55-2,6.46-4.28ZM21.5,34.53l-7.34,1.58c1.33,7.51,5.99,3.14,7.34-1.58ZM49.3,39.24c-1.25-1.22-8.92,4.68-10.48,5.51,1.18,1.1,12.08,7.07,12.57,6.55l-2.1-12.06ZM48.25,51.84l-11.53-5.78-2.1,12.06c.89.65,11.38-4.25,12.97-5.12.6-.33.89.03.67-1.16ZM18.36,52.36h-7.34v6.82s6.85-.23,6.85-.23l.49-6.59ZM40.38,59.18h11.8c1.49-1.42-.4-3.97-.53-5.78-.97-.12-9.33,3.79-10.59,4.6-.52.33-.93-.06-.68,1.18ZM67.66,59.18h10.75c.1,0,1.55-.56,1.83-.78-3.28-4.37-9.85-3.82-12.58.78Z"/>
  </g>
</svg>