<?xml version="1.0" encoding="UTF-8"?>
<svg id="Layer_2" data-name="Layer 2" xmlns="http://www.w3.org/2000/svg" viewBox="0 0 136.08 61.79">
  <defs>
    <style>
      .cls-1 {
        fill: #0278b6;
      }
    </style>
  </defs>
  <g id="Layer_1-2" data-name="Layer 1">
    <g>
      <path class="cls-1" d="M20.47,58.78h27.21c.15,0,.26-.12.26-.26v-22.64c0-.2.21-.33.38-.24l1.73.86c.09.04.15.14.15.24v21.77c0,.15.12.26.26.26h61.18c.15,0,.26-.12.26-.26V23.71c0-.15-.14-.25-.3-.23-.91.11-1.97-.83-2.34-.83h-40.64c-.13,0-1.18-1.01-1.13-1.5,3.84.78,8.19-.82,11.66-.82,1.96,0,3.8.88,5.98.85,9.86-.15,19.64-1.06,29.5-.8.14,0,.26.12.26.27v37.86c0,.15.12.26.26.26h19.68c.74,0,1.34,1.85,1.18,2.81-.02.12-.14.2-.26.2H3.17c-.49,0-1.77-.93-2.89-.87-.21.01-.35-.19-.26-.38l.81-1.62c.04-.09.14-.15.24-.15h15.64"/>
      <g>
        <path class="cls-1" d="M79.81,56.52h-31.04v.67h31.1c.11,0,1.41.8,1.97.97,5.08,1.54,19.53,1.63,24.37-.45.33-.14.49-.42.82-.52l6.96-.13.06-.41h-6.76l-.21-.46c.06-5.79-.06-11.64,0-17.39,0-.85-.15-2.95.17-3.59.12-.24.41-.38.48-.59.23-.76-.2-1.29-.78-1.7-3.13-2.19-14.86-2.14-18.79-1.81-1.79.15-7.52.9-8.63,2.2-1.02,1.2.27,1.84.27,2.01v21.2ZM97.1,31.67c2,.11,4.57.41,6.53.83,1.1.23,2.88.63,3.48,1.61,0,1.12-4.29,1.92-5.17,2.06-5.49.82-14.84.78-20.15-.82-.73-.22-1.64-.43-1.94-1.23.04-.52,2.05-1.16,2.54-1.3,4.25-1.25,10.28-1.38,14.71-1.13ZM80.48,35.78c2,.52,4.03.97,6.09,1.2,4.46.51,9.97.51,14.43-.02,1.84-.22,3.7-.54,5.43-1.19v3.41c-.59.77-2.88.36-3.27.88-.61.81.6,6.59-1.55,5.55-1.04-.51.39-4.41-1.13-5.03-1.1-.45-1.96.13-2.08,1.28-.22,1.96.19,4.26-.03,6.26-.48,1.43-2.59,1.32-2.88-.14-.32-1.58.21-3.94-.04-5.58-.32-2.08-3.29-1.45-4.74-1.55-3.45-.25-6.95-.79-10.24-1.87v-3.21ZM80.48,39.79c3.11.9,6.34,1.45,9.57,1.74,1.15.1,2.65-.02,3.75.13.3.04.69.23.84.5.54.95-.13,4.68.22,6.06.43,1.69,2.97,2.24,3.93.71.88-1.41.22-5.26.42-7.07.11-.94,1.01-.96,1.18-.37.33,1.12-.59,4.27,1.09,4.8,2.98.93,1.97-3.58,2.15-5.09.12-1.03.57-.63,1.27-.73.52-.08,1.01-.25,1.54-.27v14.25c-1.8.91-4.19,1.21-6.22,1.4-4.96.48-10.83.41-15.76-.29-1.24-.17-2.99-.37-3.97-1.12v-14.65ZM80.48,55.45c1.51.4,3.08.72,4.63.92,5.83.74,13.32.74,19.07-.43.75-.15,1.48-.32,2.18-.63.29,1.31,0,1.53-1.1,1.98-2.14.87-6.17,1.15-8.52,1.24-4.12.16-10.58.11-14.49-1.04-1.22-.36-2.02-.51-1.77-2.04Z"/>
        <path class="cls-1" d="M97.1,31.67c-4.43-.25-10.46-.12-14.71,1.13-.49.14-2.5.78-2.54,1.3.31.81,1.21,1.01,1.94,1.23,5.3,1.6,14.66,1.64,20.15.82.89-.13,5.17-.94,5.17-2.06-.6-.98-2.38-1.38-3.48-1.61-1.96-.41-4.53-.71-6.53-.83ZM83.29,34.18c4.17-.85,8.65-.97,12.92-.81,1.54.06,3.4.21,4.93.43.83.12,1.71.26,2.49.58-1.77.8-3.91.77-5.82.87-4.11.23-8.46.27-12.54-.44-.61-.11-1.57-.19-1.98-.63Z"/>
      </g>
      <g>
        <path class="cls-1" d="M35.86,15.5c.27.31-3.35,5.39-3.8,6.18-3.25,5.69-5.56,12.23-8.73,17.99.59,2.43-2.06,4.06-2.07,6.36,0,1.37,1.62,1.8,1.69,2.49.09.88-2.08,4.32-2.71,5.17-1.65,2.23-3.26,3.49-5.83,4.57-.53.23-2.62.7-2.7.81-.19.27-.04,1.25.42,1.36.31.07,2.89-.82,3.4-1.05,4.27-1.86,7.15-5.92,8.83-10.15.48-.35,2.12,1.22,3.62.11.9-.66,1.74-3.25,2.28-4.33,1.13-.1,2.62,1.22,3.6.39,1.46-1.23,2.86-6.42,3.8-7.19.65-.53,3.45,1.31,4.02-2.14.48-2.88-1.31-2.4-1.34-3.29.44-1.83,3.46-1.78,5.21-2.4.7-.25,4.42-2.18,4.63-1.97.63,3.12,1.74,6.57,3.04,9.47.98,2.18,1.74,4.32,4.62,3.68,2.34-.52.38-3.15-.02-4.36-1.47-4.47-.98-10.33-1.68-15.04l1.32-2.91c2.37-.27,8.56,2.69,7.89-1.53,2.26-.26,3.83.99,4.76-1.56,1.52-4.16,2.19-9.67-3.93-9.25l-.15-2.43c-2-.56-3.96-1.29-5.96-1.86-3.21-.91-10.37-2.96-13.41-2.61-3.02.35-2.76,3.14-3.93,3.37l-13.17-.8c-.38.13-.49.46-.61.79-.38,1.02-1.12,4.67-1.23,5.8-.09.94-.14,2,.11,2.92.25.52,6.86,3.28,8.01,3.37ZM44.57,3.69c1.35-3.47,5.22-2.06,8.05-1.44,4.01.89,7.87,2.5,11.92,3.26l.3,1.13-1.13,11.54-7.29-.41c-2.17,6.36-8.62,11.28-15.21,12.33l6.03-12.12,5.78.74c-.6,2.41-2.78,3.13-4.57,4.35-.34.23-.43.77-.95,1.1s-2,.52-2.23.86c-.57.81.37,1.19,1.12,1.13,2.12-.15,8.94-5.48,8.82-8.3-.08-.39-1.18-.54-1.57-.61-7.14-1.38-14.8-1.17-21.43-4.58l2-8.4,28.08,1.94c1.07-.9-4.64-1.6-4.95-1.65l-12.75-.88ZM31.08,11.85c-.1.08-2.31-.51-2.13-1.14l1.42-6.46,2.12-.28c.07,2.68-.82,5.29-1.41,7.87ZM65.93,8.47l3.09.43c1.23.95.12,7.12-.74,7.41-.72,0-2.61.37-2.87-.42l.52-7.41ZM35.03,33.19c.9.45,5.61.94,5.56,2.07-.16,3.42-6.13.14-8.1.03-.33-.02-.73-.12-.84.31-.43,1.55,4.33,1.49,4.49,2.26l-3.09,6.19c-.2.17-.4.1-.63.08-.7-.07-7.38-3.39-7.49-3.79-.05-.61.28-1.15.49-1.69,1.66-4.4,5.67-12.57,8.08-16.65.44-.75,3.87-5.8,4.22-5.88l7.71,1.36-6.77,15.45-3.63-.55.02.82ZM58.06,39.4c-.81,1.41-1.67.95-2.48-.19-.98-1.38-4.75-11.03-4.14-12.18l3.11-3.09c.64-.12.38.28.42.7.24,2.87.46,12.42,1.95,14.28.29.36.72.43,1.14.48ZM24.99,41.95l4.05,2.36-2.31,3.99c-.85-.3-3.52-1.26-3.76-2.08-.26-.87,1.39-4.37,2.02-4.27Z"/>
        <path class="cls-1" d="M71.56,10.44l-.07,1.89c.02.48.38.46.73.32,1.31-.52.68-2.31-.66-2.21Z"/>
        <path class="cls-1" d="M74.45,12.61c1,1,1.59-.28,1.33-1.33-1.05-.26-2.32.33-1.33,1.33Z"/>
        <path class="cls-1" d="M51.32,12.97c-.15.23,0,.73.29.97.45.38,7.6,1,7.87.71l-.04-1.08c-1.02-.25-7.82-1.02-8.11-.6Z"/>
      </g>
    </g>
  </g>
</svg>