<?xml version="1.0" encoding="UTF-8"?>
<svg id="Layer_2" data-name="Layer 2" xmlns="http://www.w3.org/2000/svg" viewBox="0 0 122.15 65.78">
  <defs>
    <style>
      .cls-1 {
        fill: #0278b6;
      }
    </style>
  </defs>
  <g id="Layer_1-2" data-name="Layer 1">
    <g>
      <path class="cls-1" d="M53.47,10.48h-2.44s0,7.29,0,7.29h-9.11l.27,1.86,8.85.57v10.94h-9.11c-1-2.2.24-9.58-2.22-10.26l-13.92,3.54.34,24.35h4.26c.35-.35-.35-6.18-.02-7.48.16-.64,1.46-.58,1.75-1.41.59-1.7-.23-4.97.09-6.92h20.66c.68,2.34-3.15.72-3.65,1.21v6.08s5.78.6,5.78.6l-.61,1.22h-20.05c-2.46,0-2.45,4.93-1.52,6.68h20.66c.46-1.6-1.32-6.12,1.52-5.47l.31,5.47h10.33v-6.69c-2.32-.09-4.68.13-7.01,0-1.38-.07-.88-.32-.9-1.52l7.91-.3v-5.48c-3.23-.07-6.38.34-9.53-.52-1.04-.29-1.69.44-1.4-1.29,4.28-.03,8.45-1.1,12.5.56.62.88-.37,3.74,1.17,3.08.41-1.33,4.51-3.1,4.59-3.44.28-1.2-.23-3.11-.02-4.46h-4.26s0-1.82,0-1.82h4.26s0-4.86,0-4.86h-12.15v9.72h-1.82v-12.15h15.5l.91.91v24.31c0,.25-1.56,1.06.3.91,2.35-3.02,6.04-2.44,9.43-2.42v-6.69s-3.99-.56-3.99-.56c-1.1-4.72.35-6.58,5.14-6.18.33-.76.37-3.1.79-3.47,1.27-1.13,17.13-1.15,18.7.21,1.99,1.71.77,4.46,6.62,3.41l.68,5.99-4.89.99v5.93c.07.27,2,.99,2.16.99h10.33c.08,0,1.32-1.11,1.52.31.28,2.06-7.78,16.46-9.11,19.44,1.8,1,7.14-.99,7.29,2.12H3.04c1.08-5.68-2.63-11.31-3.04-17.01h11.85l.91-.91v-27.34l-.91-.91H.91l-.91-.91v-9.11l.91-.91h36.16l.35-7.97C38.47-.06,49.43-.11,51.38.12c.88.1,1.56.08,2.1.94v9.42ZM51.04,2.58h-11.55c.27,2.17-.82,5.08.91,6.68h10.63V2.58ZM48.62,11.09l-45.28-.6-1.43,1-.09,6.3,38.02-.58.27-2.46,8.51.62v-4.26ZM23.09,19.6h-8.51l.31,7.3c1.54-.45,9.68-5.84,8.2-7.3ZM49.22,22.02l-4.72-.48-1.27.76.52,7.62,5.46-.61v-7.29ZM23.7,33.57v-9.72l-7.28,5.17,7.28,4.56ZM83.25,34.79h24.61c.47,0,1.79-1.02,2.74-.61v-1.82s-6.01-.67-6.01-.67l-.06-3.59c-5.6-.75-10.82-.76-16.41,0l-.26,3.08-4.03.83-.57,2.77ZM14.58,40.86c1.2-1.1,7.64-4.29,7.29-5.76l-7.29-3.96v9.72ZM40.72,34.17h-6.1v6.1h6.1v-6.1ZM47.4,34.18c-5.21-.71-6.78.74-4.9,5.81l4.9.27v-6.08ZM86.89,43.3l18.25.35c1.2-.93.77-9.15-.61-8.25l-.87,1.26-15.76.03c-1.81.59-.73,5.02-1,6.6ZM72.91,36c-.97-.68-3.97,3.32-4.84,3.95,1.31,1.61,3.65.73,5.46.91l-.62-4.86ZM23.7,37.22l-8.19,5.47-.92,1.81c3.19-1.33,5.87.13,9.11,0v-7.29ZM68.06,49.37c3.56-.69,7.54-2.34,4.89-6.42l-4.9-.27v6.68ZM119.1,45.72h-38.59c-2.07,0-8.22,5.47-9.11,5.47H2.43l2.52,7.81,5.38.09c.54,2.52-3.52.25-4.6,1.78-.64,1.37-.43,2.93,1.26,3.08l102.75-.03c1.55-.02,2.18-2.37,2.07-3.61l-3.04-1.21c1.5-.13,3.33.49,4.57-.61.52-.47,6.29-12.3,5.76-12.77ZM23.66,46.99c-11.53-2.69-12.42,3.15.04,1.77l-.04-1.77Z"/>
      <line class="cls-1" x1="23.66" y1="46.99" x2="23.7" y2="48.76"/>
      <path class="cls-1" d="M68.07,39.95c.87-.62,3.88-4.63,4.84-3.95"/>
    </g>
  </g>
</svg>