<?xml version="1.0" encoding="UTF-8"?>
<svg id="Layer_2" data-name="Layer 2" xmlns="http://www.w3.org/2000/svg" viewBox="0 0 75.03 61.63">
  <defs>
    <style>
      .cls-1 {
        fill: #0278b6;
      }
    </style>
  </defs>
  <g id="Layer_1-2" data-name="Layer 1">
    <g>
      <path class="cls-1" d="M58.92,0v9.37h11.16v44.64c.15.15,3.46-.1,4.25,0s.72-.15.66.89c-2.07-.38-4.56,1.44-6.25-.22V10.71h-9.6l-.67.67v23.21l-.67.66-.67-.66V2.01l-.67-.67h-26.11v14.73h-1.79v-8.03c-5.52,1.08-11.12.04-16.68.06-1.55.51-.12,6.39-1.18,7.97-.36.25-1.33-.43-1.33-.67V7.37l.67-.67h18.52V0h30.35Z"/>
      <path class="cls-1" d="M65.62,37.49v24.13H27.67v-24.13h37.94ZM64.28,47.09v-7.59l-.67-.67H29.46c.14.44-.45.97-.45,1.12v19.86c5.57.14,11.18-.18,16.76-.02,2.1.06,5.05,1.38,6.9-.2v-8.26h10.94l.67-2.68-31.25-.67c.51-.74,1.22-.64,1.98-.7,7.4-.52,17.07-.23,24.59,0,1.03.03,4.24,1.18,4.67-.2ZM54.01,59.81h9.6c1.08-1.56,1.1-5.53,0-7.14h-9.6v7.14Z"/>
      <path class="cls-1" d="M41.96,29.01h-10.04l-.67-.67v-8.03c-.39-.64-.89-.62-1.54-.69-5.09-.6-11.11.51-16.09.51-2.95,0-5.95-.89-9.15-.04v39.28h20.31l.66.67-.66.67H0v-.89s2.68,0,2.68,0V19.42l.67-.67h29.01c1.42,1.7,11.38,8.16,11.38,9.6v7.14l-.89.45-.89-6.92ZM39.73,27.23c.2-.87-.32-.86-.75-1.26-.91-.83-5.32-4.53-6.16-4.55l-.23,5.81h7.14Z"/>
      <polygon class="cls-1" points="35.26 32.58 35.26 33.92 10.49 33.92 9.83 33.25 10.49 32.58 35.26 32.58"/>
      <rect class="cls-1" x="9.82" y="45.53" width="15.18" height="1.34"/>
      <polygon class="cls-1" points="25 38.83 25 40.17 9.82 40.17 9.82 39.51 10.49 38.83 25 38.83"/>
      <polygon class="cls-1" points="23.21 25.44 23.21 26.78 10.49 26.78 9.83 26.11 10.49 25.44 23.21 25.44"/>
      <polygon class="cls-1" points="45.53 13.84 45.53 17.41 41.96 17.41 41.96 13.39 45.53 13.84"/>
      <path class="cls-1" d="M38.39,13.84v3.57s-3.16-.2-3.16-.2c-.65-.45-.59-2.74-.21-3.4l3.36.02Z"/>
      <rect class="cls-1" x="41.95" y="6.69" width="3.59" height="3.59"/>
      <rect class="cls-1" x="34.81" y="6.69" width="3.59" height="3.59"/>
      <path class="cls-1" d="M45.53,21.42v3.58c-.9-.08-2.86.32-3.38-.42l-.2-3.16h3.58Z"/>
      <polygon class="cls-1" points="52.67 21.42 52.61 24.49 49.55 25 49.55 20.98 52.67 21.42"/>
      <rect class="cls-1" x="62.04" y="22.32" width="3.13" height="2.68"/>
      <path class="cls-1" d="M39.73,27.23h-7.14l.23-5.81c.84.02,5.25,3.72,6.16,4.55.44.4.96.39.75,1.26Z"/>
      <polygon class="cls-1" points="33.25 42.4 45.31 42.4 45.97 43.07 45.31 43.74 33.25 43.74 32.59 43.07 33.25 42.4"/>
      <path class="cls-1" d="M48.21,51.78c.1,1.42-.98,1.28-1.99,1.36-2.89.24-6.98.05-9.84-.48-.73-.14-.77.29-.67-.88h12.5Z"/>
    </g>
  </g>
</svg>