<?xml version="1.0" encoding="UTF-8"?>
<svg id="Layer_2" data-name="Layer 2" xmlns="http://www.w3.org/2000/svg" viewBox="0 0 85.89 63.06">
  <defs>
    <style>
      .cls-1 {
        fill: #0278b6;
      }
    </style>
  </defs>
  <g id="Layer_1-2" data-name="Layer 1">
    <g>
      <path class="cls-1" d="M8.02.38l35.06-.38,1.04.85-.03,11.81c.44.62,6.19.7,7.05.4,1.08-.38.58-2.93,2.65-2.3l.71,2.36h9.67v12.74l-1.42-.71v-10.62h-18.41s-.47,11.33-.47,11.33h-1.41V1.32h-21.24v7.32c1.95,1.82,5.64-.41,7.55,1.42v25.48c0,.1-.8.86-.94.71.22-.61-.48-1.39-.48-1.65V10.76l-21.71-.47-.47,50.97h22.65v-14.39c0-1.46-4.09-.07-4.24-.24.14-1.55-.53-3.57.68-4.74,4-1.42,10.81-8.91,14.31-9.8,2.08-.53,2.52,2.11,4.51,2.18,1.87-1,9.14-7.06,10.74-6.76.5.09,6.21,3.29,7.01,3.81,1.21.79,2.49,1.62,3.26,2.9-.56,2.61-.4,5.26-.4,7.92,0,.77.47,1.56.47,2.37,0,2.78-1.53,7.06.24,9.67h11.33c1.56,0,1.54,4.26,4.03,2.04l.4-2.8,2.93-.94-.14-2c-4.14.09-2.75-2.85-4.39-5.27h-11.8c-.1,0-.54.71-.7.47-.14-1.12,0-1.67,1.18-1.89s11.44-.18,12.19.08c1.55.53,1.75,4.63,2.29,5.03.49.36,2.37,0,2.98,1.03,1.49,3.27-1.62,3.55-2.63,4.94-.71.97-.39,2.47-1.38,3.34-3.5,2.08-5.3-2.6-6.38-2.6h-10.15c.25,2.02-1.47,4.48.24,6.14h21.47l-.79,1.33L0,62.67c-.07-2.12,2.31-1.12,3.47-1.48,1.68-.52.32-4.47.28-5.82-.44-13.87.7-28.02.51-42.04-.04-2.72-1.58-6.13,3.28-4.46-.15-.47.48-1.01.48-1.18V.38ZM19.82,1.79h-10.38l.44,6.87h9.5l.44-6.87ZM62.29,61.26v-27.14l-8.74-5.43-9.44,6.13.07.98c4.47,1.8,8.1,6.77,12.92,7.06l-.44,3.57c-1.36.95-6.64-.94-6.64.44v14.16c1.43,1.56,3.64.27,5.41.22,2.28-.07,4.59.09,6.86.02ZM53.33,45.21l-.47-2.12c-3.16-1.27-10.61-8.57-13.48-8.73-1.44-.08-8.4,4.76-10.07,5.93-.97.68-4.31,2.79-4.31,3.73l1.15,1.15,13.26-8.77,13.92,8.81ZM29.26,44.98v16.28h6.14v-9.2c0-1.86,7.55-2.15,7.55.47v8.49c0,1.4,4.45.09,5.35.16l.73-.69v-16.14s-10.01-6.13-10.01-6.13l-9.75,6.76ZM41.53,61.26v-8.26c-1.02-1.11-3.71-1.11-4.72,0v8.26h4.72Z"/>
      <path class="cls-1" d="M74.57,33.88v6.61l-2.82-.24c-.54-1.47-6.11-3.57-6.13-4.24-.08-2.51,6.37,2.58,6.83,3.06.91,0,.85-3.44.63-4.16l-19.12-11.33c-1-.15-8.22,5.74-9.73,6.63-.64.37-2.01,1.25-2.7.61,2.8-3.52,7.58-5.34,10.88-8.48l1.16-.3,21.01,11.85Z"/>
      <polygon class="cls-1" points="14.63 15.01 14.63 22.56 9.44 22.56 9.44 15.48 14.63 15.01"/>
      <path class="cls-1" d="M22.65,15.48v7.08h-4.72c-.17-2.34.47-4.86-.47-7.07h5.19Z"/>
      <rect class="cls-1" x="9.43" y="33.88" width="5.21" height="4.26"/>
      <polygon class="cls-1" points="14.63 25.86 14.63 30.11 9.44 30.11 9.44 26.34 14.63 25.86"/>
      <path class="cls-1" d="M14.63,41.91c-.7,1.4-.7,2.84,0,4.24h-5.19s0-4.25,0-4.25h5.19Z"/>
      <rect class="cls-1" x="17.92" y="33.88" width="4.74" height="4.26"/>
      <rect class="cls-1" x="17.93" y="41.91" width="4.72" height="4.25"/>
      <polygon class="cls-1" points="14.63 49.93 14.16 53.71 9.44 53.71 9.44 49.93 14.63 49.93"/>
      <rect class="cls-1" x="17.92" y="49.92" width="4.74" height="3.79"/>
      <rect class="cls-1" x="17.92" y="26.33" width="4.74" height="3.79"/>
      <rect class="cls-1" x="33.02" y="5.56" width="4.73" height="3.31" transform="translate(0 .04) rotate(-.07)"/>
      <polygon class="cls-1" points="29.26 5.57 29.25 8.87 25.01 8.4 25.01 5.57 29.26 5.57"/>
      <path class="cls-1" d="M76.46,47.57v1.41c-1.05-.15-7.07.51-7.07-.71,1.83-1.48,4.87-.39,7.07-.71Z"/>
      <rect class="cls-1" x="69.37" y="50.4" width="6.61" height="1.42"/>
      <rect class="cls-1" x="33.98" y="15" width="2.84" height="2.37"/>
      <path class="cls-1" d="M36.81,25.39l-3.3-.23c.56-2.66,3.7-3.16,3.3.23Z"/>
      <polygon class="cls-1" points="50.5 19.25 50.49 21.61 47.73 21.08 47.66 19.26 50.5 19.25"/>
      <path class="cls-1" d="M41.53,61.26h-4.72v-8.26c1.01-1.11,3.7-1.11,4.72,0v8.26Z"/>
      <polygon class="cls-1" points="57.11 49.93 57.11 52.76 53.55 52.79 53.33 49.93 57.11 49.93"/>
    </g>
  </g>
</svg>