<?xml version="1.0" encoding="UTF-8"?>
<svg id="Layer_2" data-name="Layer 2" xmlns="http://www.w3.org/2000/svg" viewBox="0 0 49.51 55.86">
  <defs>
    <style>
      .cls-1 {
        fill: #0278b6;
        stroke: #0278b6;
        stroke-miterlimit: 10;
        stroke-width: .5px;
      }
    </style>
  </defs>
  <g id="Layer_1-2" data-name="Layer 1">
    <g>
      <path class="cls-1" d="M.58,55.61c-.29-.08-.37-.57-.32-.85h16.75s1.06-23.85,1.06-23.85l.45-5.06.71-.35-1.17,29.26,5.09-.21-1.49-28.73.53-.11,2.11,28.85c.37.55,2.35,0,2.97-.02,3.1-.09,6.28,0,9.33,0,3.52,0,8.59-.4,11.89,0,.78.09.78.29.73,1.07H.58Z"/>
      <path class="cls-1" d="M14.89,22.96l-1.04-.11-9.13,5.83,11.02-3.28-.84-2.01,1.59-.42.29.49c-1.11.91.59,2.13-.41,2.78-4.02.87-8.34,3.07-12.32,3.8-1.09.2-2.78.57-2.09-1.03l12.08-7.22c.41-.2,1.06-.16,1.06.42l-.21.76Z"/>
      <path class="cls-1" d="M24.6,24.06l-.58-.58c-.24-.98,1.83.73,1.85,1.06l-.78,1.31.19.39,9.97,5.19-8.06-7.96-1.06.54c-.21-1.08.45-1.7,1.48-1.6,2.92,3.51,6.51,6.37,9.77,9.54l.11.98c-.68.53-1.21.26-1.9-.04-2.34-1.02-8.92-4.48-10.8-5.95-1.51-1.18-.24-1.4-.19-2.89Z"/>
      <path class="cls-1" d="M20.8,15.72c-.37.58-4.73-.22-4.85-.75l.06-1.82L19.46.26c.87-.11,1.08.41,1.16,1.17l.18,14.29ZM19.99,14.9l-.32-11.24-2.87,10.91c.04.23,2.78.41,3.19.33Z"/>
      <path class="cls-1" d="M19.5,18.13c3.21-.73,6.07,3.05,3.44,5.34-3.23,2.81-7.36-1.06-5.04-4.19.3-.4,1.13-1.04,1.6-1.15ZM19.93,18.98c-2.55.49-2.13,4.44.59,4.63,3.5.25,2.92-5.3-.59-4.63Z"/>
      <path class="cls-1" d="M17.44,16.81l-.41,2.42c-.81,1.13-1.79-3.15.41-2.42Z"/>
      <path class="cls-1" d="M19.99,14.9c-.41.08-3.15-.1-3.19-.33l2.87-10.91.32,11.24Z"/>
      <path class="cls-1" d="M19.93,18.98c3.51-.67,4.09,4.89.59,4.63-2.72-.2-3.13-4.15-.59-4.63Z"/>
    </g>
  </g>
</svg>