<?xml version="1.0" encoding="UTF-8"?>
<svg id="Layer_2" data-name="Layer 2" xmlns="http://www.w3.org/2000/svg" viewBox="0 0 93.65 64.12">
  <defs>
    <style>
      .cls-1 {
        fill: #0278b6;
      }
    </style>
  </defs>
  <g id="Layer_1-2" data-name="Layer 1">
    <g>
      <path class="cls-1" d="M10.05,19.67l-3.63-.6.16-9.48c.64-.92,3.99-.26,5.56-.78,2.25-.75,6.9-6.64,9.25-8.21C37.75-.41,54.47.11,70.93.33c3.09,1.84,7.43,7.23,10.57,8.48,1.44.57,2.9.1,4.36.4,3.54.73,1.4,6.78,1.99,9.59l-3.2.88v42.86h8.99v1.59H.79l-.79-1.59h10.05V19.67ZM20.64,4.86h7.41v1.06h-7.67c-.19,0-.51-.65-1.29-.29s-2.68,2.13-3.21,2.94h61.38c-1.35-2.77-6.4-3.05-8.99-2.12v-1.58s4.22,0,4.22,0c.62-.53-2.37-3.65-3.41-3.2H24.05c-1.04-.45-4.03,2.68-3.41,3.2ZM86.27,10.68H7.94v6.88h78.33v-6.88ZM82.54,19.67H11.64v11.64h70.9v-11.64ZM82.54,32.9H11.64v28.84l.79.79h9.79v-23.55c0-.15,1.27-1.28,1.6-1.58,13.94-.76,28.08.07,42.08-.25,1.87-.04,3.64-1.14,5.52-.27.28.13,1.6,1.46,1.6,1.57v24.07h9.52v-29.63ZM70.9,38.72H24.34v23.81s4.23,0,4.23,0v-17.72l.79-.79h37.3v17.72c1.06,1.23,3.7,1.23,4.76,0v-21.69c0-.17-.7-.8-.53-1.32ZM47.35,45.6c-4.77-.82-11.65.6-16.67,0v16.4l17.99.53v-13.49c0-1.27.67-3.1-1.32-3.44ZM64.55,45.6h-12.96l-.79.79v15.61c4.88-.35,9.43,1.29,14.26-.03l-.5-16.38Z"/>
      <rect class="cls-1" x="46.03" y="23.9" width="2.13" height="4.24" transform="translate(-.03 .06) rotate(-.07)"/>
      <rect class="cls-1" x="64.02" y="24.96" width="4.24" height="2.13" transform="translate(40.09 92.15) rotate(-89.98)"/>
      <polygon class="cls-1" points="29.1 23.91 28.57 27.61 27.03 27.58 26.45 23.91 29.1 23.91"/>
      <path class="cls-1" d="M56.08,4.86v1.06h-13.49c-.16,0-.75.73-1.32.53v-1.59s14.81,0,14.81,0Z"/>
      <rect class="cls-1" x="32.28" y="4.86" width="7.41" height="1.06"/>
    </g>
  </g>
</svg>