<?xml version="1.0" encoding="UTF-8"?>
<svg id="Layer_2" data-name="Layer 2" xmlns="http://www.w3.org/2000/svg" viewBox="0 0 116.9 63.06">
  <defs>
    <style>
      .cls-1 {
        fill: #0278b6;
      }
    </style>
  </defs>
  <g id="Layer_1-2" data-name="Layer 1">
    <g>
      <path class="cls-1" d="M63.81,18.55h-7.91v4.52c-2.39-1.02-1.41-2.53-1.13-4.52h-21.18l-.85.85v33.04h11.01c2.05,0,1.32,7.02,1.41,8.47,2.58-.25,5.66.36,8.16-.04,1.82-.29,2.95-1.85,5.12-1.71s2.75,2.1,6.22,1.77c2.24-.21,3.32-2.01,4.59-2.15,1.56-.17,5.08,2.12,5.57,2.12h8.75c-.81-2.38,1.25-19.26,2.55-19.77s.84,1.24.77,1.91c-.39,3.58-1.47,7.14-1.65,10.78-.06,1.27-.32,7,.87,7.07,3.9-3.94,6.65,1.1,10.62-.1,1.68-.51,2.26-4.04,5.72-3.83,2.35.14,5.2,3.35,6.96,3.81,2.42.64,7.15-1.2,7.49,1.83-7.54-.54-16.04.73-23.45.02-1.5-.14-2.63-1.24-3.89-1.15-4.42.31-8.31,1.64-13.62,1.15-2.16-.2-4.99-1.84-6.16-1.73-1.28.13-3.18,2.17-5.68,2.17-1.99,0-4.32-1.61-6.21-1.61-1.53,0-3.14,1.04-5.06,1.17-16.49,1.14-34.25-.92-50.88,0l-1.94-.87c.02-1.42,6.5-.68,7.9-.85v-9.32l.85-.85h10.45v1.12s1.13,0,1.13,0V18.55H5.07v-9.32C8.62,6.98,17.87.15,21.71,0c6.42-.23,24.25,4.16,31.47,5.73,3.46.75,7.53,1.48,10.63,2.93v9.88ZM29.92,7.83l-9.22-5.52c-1.03.05-8.97,4.47-10.38,5.37-.56.36-1.01-.05-.72,1.26,4.23-.12,8.5.17,12.73.03,2.45-.08,4.77-1.36,7.31-.02l.29-1.13ZM52.51,8.38c-.99-1.41-3.92-1.58-5.64-1.98-6.71-1.55-13.55-2.55-20.34-3.66,6.66,8.76,16.52,5.13,25.98,5.64ZM40.09,10.08h-8.19c-1.71,0-4.65,4.25-6.21,4.53-.85.15-1,0-.85-.85l2.82-3.11-19.98-.53-.94,1.36.58,5.37,21.46.56c.32,3.44-6.25.24-6.2,1.97l7.61,5.94.53-7.95c3.61-.54,5.75-3.28,8.41-5.71.55-.5,1.21-.5.95-1.59ZM55.9,10.08h-8.47v6.78c2.24-1.92,5.35-3.29,7.53-5.18.59-.51,1.18-.54.94-1.6ZM61.55,10.08c-2-.55-1.92,1.24-2.86,1.93-2.24,1.67-5.48,2.56-7.3,4.84h7.34c-.62-1.25-1.21-3.24.56-3.95v3.96s2.83,0,2.83,0l-.57-6.77ZM36.7,16.85h9.04c-.17-1.7.25-3.76,0-5.38-.28-1.85-2.96-.56-3.93.04-1.64,1.03-3.73,3.84-5.11,5.34ZM28.23,25.33l-6.21-3.39.57,4.52c.1-1.15,7.58.83,5.64-1.12ZM22.02,36.05l8.46-6.49c-1.83-2.51-5.21-.89-7.91-1.73l-.55,8.22ZM31.05,42.27l-.84-9.59-6.71,4.48-.35,1.16,7.9,3.96ZM22.02,40.01v8.19l1.15.6,6.18-4.56c-1.18-.53-6.62-4.97-7.33-4.24ZM31.05,52.44c-.1-1.11.48-6.14-.84-6.2-2.2,1.74-4.71,3.19-6.91,4.91-.47.36-1.03-.02-.71,1.29h8.47ZM9.59,53v7.91h33.32l-.36-6.24-23.36.03.03,3.58-1.71.95-.57-6.22h-7.34ZM105.6,60.9c-.38-1.02-2.07-2.27-3.12-2.24l-2.52,1.97,5.64.27Z"/>
      <path class="cls-1" d="M96,59.21c-1.4-1.63,5.79-14.63,5-17.66s-12.51-5.77-15.52-5.98c-9.04-.64-28.1,6.32-37.36,9.37-4.77,1.58-9.96,4.45-14.81,4.39,1.98-2.95,8.69-3.17,10.72-5.09,1.23-1.17,1.32-6.03,2.59-8.14,2.96-4.93,11.43-2.39,16.22-2.31l.96,3.97,15.79-3.42.56-6.51,8.75-.75c1.88.45.18,5.94,1.14,7.31,5.71,1.92,14.17,2.78,12.49,10.73-.3,1.41-4.07,11.27-4.8,12.71-.41.81-.52,1.6-1.73,1.37ZM87.45,29.36l-5.6.17-.26,4.3,5.96.29c1.14-.81.46-3.6-.09-4.76ZM46.87,43.4l14.68-4.8c2.35-3.24-2.42-3.48-4.8-3.66-6.85-.52-9.92,1.08-9.87,8.46Z"/>
      <path class="cls-1" d="M80.19,17.42h8.47v9.04l-1.6-.94-.1-6.4h-18.92c-.12,0-1.03-.95-.85-1.12l3.42-.92.21-14.94c.55-.79,8.27-1.08,9.35.32v14.97ZM77.93,3.86h-5.65v13.55h5.65V3.86Z"/>
      <path class="cls-1" d="M53.25,29.11c-2.09-2.57.3-4.14,2.37-5.38,1.5,1.22,3.12,2.39,2.44,4.58-1.06,2.03-3.33,2.62-4.82.79Z"/>
      <circle class="cls-1" cx="77.06" cy="45.33" r="2.17"/>
      <path class="cls-1" d="M105.6,60.9l-5.64-.27,2.52-1.97c1.05-.03,2.74,1.23,3.12,2.24Z"/>
    </g>
  </g>
</svg>