<?xml version="1.0" encoding="UTF-8"?>
<svg id="Layer_2" data-name="Layer 2" xmlns="http://www.w3.org/2000/svg" viewBox="0 0 109.3 59.17">
  <defs>
    <style>
      .cls-1 {
        fill: #fff;
      }

      .cls-2 {
        fill: #0278b6;
      }
    </style>
  </defs>
  <g id="Layer_1-2" data-name="Layer 1">
    <g>
      <path class="cls-2" d="M23.83,29.05c-1.78.02-2.46,2.58-4.35,1.93-.99-.34-10.8-8.07-10.85-8.77,3.93-4.71,9.03-15.8,14.28-18.45,1.94-.98,10.17-3.43,12.22-3.55,9.03-.52,27.65-.31,35.78,2.83,4.87,1.88,10.33,10.66,13.27,15.2.56.86,2.75,3.74,2.58,4.45-2.21,1.36-10.15,8.99-12.17,8.47-1.12-.29-1.63-2.34-3.12-2.11.21,2.15-.58,7.14.82,8.76,1.87,2.16,19.99.64,24.09,1.1,2.08.23,6.21,2.14,6.77,4.23.24.91-.38,1.89-.23,2.92.45,3.16,3.1,5.01,1.54,8.6-.64,1.46-1.86,1.24-2.32,2.32l7.11.56c.23.51-.49,1.64-.82,1.64H.55l-.55-1.1,12.32-1.1c-.15-1.37-1.22-2.12-1.67-3.52-2.81-8.75,4.41-16.39,13.18-15.64v-8.76ZM56.96,2.77c-6.33.42-13.07-.31-19.44,0,4.35,7.44,15.91,7.3,20.8.27.07-1.8-1.06-.29-1.36-.27ZM26.29,37.81h42.71l.82-.82v-15.61l5.27,7.62,9.38-7.34c-3.36-4.13-6.31-9.77-9.74-13.68s-8.48-4.15-13.35-5.68c-6.37,10.25-19.84,10.84-26.61.73l-.83-.3c-4.4.79-10.04,1.48-13.08,5.01-1.24,1.44-9.71,13.01-9.55,13.84,1.23,1.34,7.82,7.28,9.05,7.4,1.83.17,3.56-5.58,5.1-6.49,1.61,2.51-1.32,14.67.83,15.33ZM64.35,40H20.27c-.71,0-3.88,1.34-4.68,1.89-3.85,2.67-5.52,10.07-1.91,13.45.3.28,2.59,1.63,2.75,1.63h47.37l-4.11-7.67h-8.49v-1.64h9.31c-.21-3.51,2.68-4.91,3.83-7.67ZM69.13,40.14c-9.02,1.53-8.96,15.5-.08,16.79,14.57,2.12,13.73-19.11.08-16.79ZM78.04,56.98h19.99c.24,0,3.75-2.03,4.12-2.45,3.36-3.8-1.21-5.1-1.52-6.65-.19-.93.78-4.11.15-5.11-.14-.22-3.1-2.22-3.3-2.22h-19.44l2.19,3.83h18.62c.04.71-2.59,1.64-3.01,1.64h-14.51v2.19h15.33c.25,1.57-.33.91-1.27,1.17-4.17,1.15-9.34.14-13.69.45l-.92,1.66c2.89-.41,5.67.59,8.49.59,3.72,0,5.73-.78,9.85-.02.9.17.95-.36.82,1.07-3.91.18-7.89-.23-11.79-.02-1.78.09-5.57.3-7.09.58-1.04.19-3.66,2.71-3.02,3.28Z"/>
      <path class="cls-2" d="M75.37,48.5c0-2.32-1.88-4.19-4.19-4.19s-4.19,1.88-4.19,4.19,1.88,4.19,4.19,4.19,4.19-1.88,4.19-4.19Z"/>
      <path class="cls-2" d="M75.37,48.5c0,2.32-1.88,4.19-4.19,4.19s-4.19-1.88-4.19-4.19,1.88-4.19,4.19-4.19,4.19,1.88,4.19,4.19ZM73.61,48.54c0-1.29-1.05-2.34-2.34-2.34s-2.34,1.05-2.34,2.34,1.05,2.34,2.34,2.34,2.34-1.05,2.34-2.34Z"/>
      <circle class="cls-1" cx="71.27" cy="48.54" r="2.34"/>
    </g>
  </g>
</svg>