<?xml version="1.0" encoding="UTF-8"?>
<svg id="Layer_2" data-name="Layer 2" xmlns="http://www.w3.org/2000/svg" viewBox="0 0 87.11 77.83">
  <defs>
    <style>
      .cls-1 {
        fill: #fff;
      }
    </style>
  </defs>
  <g id="Layer_1-2" data-name="Layer 1">
    <g>
      <path class="cls-1" d="M18.91,20.39c.2-.93,1.54-1.83,2.52-1.76,14.8.07,29.6-.08,44.41.03,2.93.02,4.66-.8,5.24,3.29l.07,27.18,8.76,7c1.1,2.37-.04,6.24-3.19,6.12l-63.82-.02c-8.79-4.93,3.1-9.61,6.41-13.42l.92-.18c.36.03.69.39.82.39h21.61l-5.42-2.56c-8.6-5.54-9.53-17.05-1.59-23.72,1.14-.96,2.59-1.41,3.51-2.53h-17.32c-.4,0-1.36.96-1.36,1.36v23.75l-.59.58-.97-.58v-24.92ZM68.15,20.19h-17.32c.92,1.11,2.36,1.56,3.51,2.53,3.35,2.82,5.71,6.56,5.44,11.1-.83.15-.93-.37-1.16-.97-.41-1.07-1.19-5.76-2.52-5.91l-3.55,1.42c-.5.7,1.38,4.05.03,4.68-.79.36-.59-.81-.69-1.24-.23-1-.35-2.03-.71-2.99l-5.41.34v4.28h6.62v1.17h-6.62l-.02,4.02c.2.86,4.53.65,5.48.88l.77-3.73c1.72.63.26,3.36.43,4.07.15.64,1.56.32,1.13,1.38-.45.05-1.13-.16-1.5.06-.26.16-2.03,4.74-2.79,5.39.93.53,5.89-4.27,5.83-2.14l-2.99,2.45-4.4,2.02h9.54c.36,0,1.35.43,2.15.17l.38,1.39H22.22c-2.35,0-6.92,4.2-8.76,5.84h20.83c.2,0,.52-.99.85-1.19,1.12-.67,17.86-.55,19.69.02.48.15.43,1.21,1.24,1.18h20.45s-7.32-6.12-7.32-6.12l-.28-29.32c-.08-.18-.64-.75-.77-.78ZM44.6,20.97c-2.8.68-4.31,3.63-5.44,6.04.03.76,4.66,1.12,5.44.97v-7.01ZM45.77,20.97v7.01l4.7-.61c.46-1.85-4.1-7.07-4.7-6.4ZM40.71,21.75c-2.28.63-4.33,1.88-5.83,3.69,0,.36,2.6,1.58,3.12,1.2l2.71-4.9ZM55.11,26.03c.7-.96-4.37-4.17-5.45-4.28,1.3,2.81,1.71,6.57,5.45,4.28ZM36.82,33.43l.6-5.08-3.48-1.51c-1.65,1.81-2.12,4.28-2.57,6.59h5.45ZM37.98,33.43h6.62v-4.28s-5.86-.22-5.86-.22l-.75,4.5ZM36.82,34.6h-5.45c.14,1.36,1.28,6.55,2.89,6.61l3.32-1.19-.77-5.42ZM44.6,34.6h-6.62c-.21.77.4,4.97,1.02,5.09l5.55-.85.04-4.24ZM44.6,40.05l-5.07.99c-.19,1.58,3.16,6.17,5.07,6.02v-7.01ZM45.77,40.05v7.4c2.5-1.17,4.07-3.95,5.07-6.41l-5.07-.99ZM40.71,46.27l-2.71-4.9-3.13,1.01c-.32.44,4.62,4.46,5.84,3.88ZM78.86,57.95h-23.94c-.19,0-.97-1.36-1.96-1.55-1.37-.26-15.78-.15-16.53.19-.44.2-1.18,1.36-1.37,1.36H11.51c-.19,1.21.36,2.12,1.44,2.64l62.61.1c1.88-.16,3.36-.48,3.29-2.74Z"/>
      <path class="cls-1" d="M68.32,9.72C54.81-.1,37.96-1.39,23.61,7.57c-3.7,2.31-10.1,7.77-12.13,11.62-.66,1.25-.12,3.35-2.49,2.97-1.23-.19-1.2-1.4-.8-2.38,2.13-.89,3.26-3.73,4.89-5.61C25.93-.6,46.94-4.16,64.18,5.09c.91.49,4.13,2.91,4.44,2.99.81.21,1.6-.93,2.66-1.1,5.71-.96,7.69,5.78,3.26,8.31-3.58,2.05-7.95-1.71-6.22-5.57ZM75.39,11.33c0-1.64-1.33-2.98-2.98-2.98s-2.98,1.33-2.98,2.98,1.33,2.98,2.98,2.98,2.98-1.33,2.98-2.98Z"/>
      <path class="cls-1" d="M55.11,77.03h17.52l-7.18.8H26.87s-7.58-.8-7.58-.8h16.74l-8.65-3.62c-3.47-1.99-6.87-4.19-9.65-7.1-.12-.53.46-.98.97-.98.36,0,4.82,3.77,5.75,4.38,13.37,8.84,30.87,8.28,44.08-.47.49.49.78.4.18.95-3.48,3.18-8.2,4.17-12.35,5.95-.48.21-1.15.21-1.26.89Z"/>
      <path class="cls-1" d="M6.45,32.26c-.1.07-.21,1.24-1.45,1.85-4.21,2.09-6.89-3.84-3.36-5.7,3.59-1.88,5.07,2.28,5.4,2.28h7.79l.58.97-.58.59c-1.22,0-8.02-.23-8.37,0ZM5.12,31.25c0-.95-.77-1.72-1.72-1.72s-1.72.77-1.72,1.72.77,1.72,1.72,1.72,1.72-.77,1.72-1.72Z"/>
      <path class="cls-1" d="M74.97,39.27c-.06-.04-.59-1.43.25-1.51l5.51-.13c.25-1.4,2.2-1.7,2.42-2.83.95-4.99-3.14-12.66-5.8-16.8l.92-.92c.78.18,3.65,6.92,3.98,8.09.58,2.03,1.18,9.17,1.66,9.93.35.57,2.74.48,3.12,2.42.57,2.94-1.79,4.92-4.56,3.78-1.37-.56-1.52-2.04-1.66-2.04-.91,0-5.6.16-5.84,0ZM85.45,38.49c0-.92-.75-1.67-1.67-1.67s-1.67.75-1.67,1.67.75,1.67,1.67,1.67,1.67-.75,1.67-1.67Z"/>
      <path class="cls-1" d="M9.95,52.89c-2.13-2.03-3.79-8.75-3.03-11.4.68-2.37,7.31-1.53,7.31-.86-1.23,1.52-5.93-.55-6.55,1.64s1.97,8.11,2.27,10.62Z"/>
      <path class="cls-1" d="M59.78,10.07c-.29.83-.38.69-1.03.46-1.49-.52-3.16-1.49-4.72-1.91-4.24-1.14-8.94-1.36-13.32-1.28v-1.16c6.6-.04,13.07,1.21,19.08,3.9Z"/>
      <path class="cls-1" d="M54.34,34.21c-.13.56-.29.96-.23,1.57.12,1.06,2.83,11.16,3.32,11.5.94.66,2.65-1.14,3.33-1.77.76.02,2.43,6.42,5.65.58l-1.95-3.12c1.95-1.45,3.67-2.24.79-3.91-2.01-1.16-7.34-3.77-9.47-4.54-.48-.17-.91-.42-1.44-.3Z"/>
      <path class="cls-1" d="M54.34,34.21c.53-.11.97.13,1.44.3,2.13.77,7.46,3.38,9.47,4.54,2.88,1.67,1.16,2.46-.79,3.91l1.95,3.12c-3.22,5.83-4.89-.56-5.65-.58-.68.63-2.39,2.44-3.33,1.77-.49-.34-3.2-10.44-3.32-11.5-.07-.61.1-1,.23-1.57ZM64.84,40.44l-8.95-3.9,2.34,8.95c.36.28,1.71-2.28,2.87-1.92.84.26,1.79,3.42,3.16,3.09,1.66-.57-2.06-3.15-1.75-4.1l2.34-2.12Z"/>
      <path class="cls-1" d="M64.84,40.44l-2.34,2.12c-.3.95,3.41,3.53,1.75,4.1-1.37.33-2.32-2.83-3.16-3.09-1.15-.35-2.5,2.2-2.87,1.92l-2.34-8.95,8.95,3.9Z"/>
    </g>
  </g>
</svg>