<?xml version="1.0" encoding="UTF-8"?>
<svg width="267px" height="31px" viewBox="0 0 267 31" version="1.1" xmlns="http://www.w3.org/2000/svg" xmlns:xlink="http://www.w3.org/1999/xlink">
    <!-- Generator: Sketch 62 (91390) - https://sketch.com -->
    <title>DIP_desktop_dark</title>
    <desc>Created with Sketch.</desc>
    <g id="Style-guide" stroke="none" stroke-width="1" fill="none" fill-rule="evenodd">
        <g id="logos" transform="translate(-383.000000, -241.000000)">
            <g id="DIP_desktop_dark" transform="translate(383.000000, 241.000000)">
                <path d="M43.9468341,22.4683574 L46.4305836,22.4683574 C48.0703229,22.4683574 49.0587212,21.4512582 49.0587212,19.1950103 L49.0587212,13.0442601 C49.0587212,10.787769 48.0703229,9.77091301 46.4305836,9.77091301 L43.9468341,9.77091301 L43.9468341,22.4683574 Z M46.4308113,7.44 C50.0236623,7.44 51.3983103,9.92 51.3983103,13.0442601 L51.3983103,19.1950103 C51.3983103,22.32 50.0236623,24.8 46.4308113,24.8 L41.608156,24.8 L41.608156,7.44 L46.4308113,7.44 L46.4308113,7.44 Z" id="Shape" fill="#575756" fill-rule="nonzero"></path>
                <path d="M55.4539044,7.44 C55.4539044,7.44 56.1395614,7.44 56.1395614,8.15228663 L56.1395614,18.5382348 C56.1395614,21.5583494 56.9672633,22.4666472 58.7644886,22.4666472 C60.372544,22.4666472 61.3418441,21.5585902 61.3418441,18.5382348 L61.3418441,8.15228663 C61.3418441,7.44 62.0042737,7.44 62.0042737,7.44 L62.9503463,7.44 C62.9503463,7.44 63.6360033,7.44 63.6360033,8.15228663 L63.6360033,18.4156675 C63.6360033,21.8287678 62.2879168,24.8 58.7644886,24.8 C55.3355336,24.8 53.8458489,21.9024527 53.8458489,18.4156675 L53.8458489,8.15228663 C53.8458489,7.44 54.5082784,7.44 54.5082784,7.44 L55.4539044,7.44 Z" id="Path" fill="#575756"></path>
                <path d="M69.6929323,22.4683574 L71.9070899,22.4683574 C73.5799057,22.4683574 74.7113797,21.4512582 74.7113797,19.5916838 C74.7113797,17.3101422 73.3831175,16.8142395 71.709837,16.8142395 L69.6931647,16.8142395 L69.6931647,22.4683574 L69.6929323,22.4683574 Z M69.6929323,14.5324546 L71.2672378,14.5324546 C73.1366095,14.5324546 74.2439206,13.6892498 74.2439206,12.1762479 C74.2439206,10.6141179 73.4316756,9.82077081 71.6605819,9.82077081 L69.6927,9.82077081 L69.6927,14.5324546 L69.6929323,14.5324546 Z M71.6608142,7.44 C75.1293513,7.44 76.6544017,9.44890458 76.6544017,12.1764911 C76.6544017,13.788479 75.9169687,14.9048073 75.1295836,15.499696 C76.5809836,16.2937727 77.0974655,17.7812376 77.0974655,19.541826 C77.0974655,22.1954771 75.596578,24.8 71.9073222,24.8 L67.3073112,24.8 L67.3073112,7.44 L71.6608142,7.44 L71.6608142,7.44 Z" id="Shape" fill="#575756" fill-rule="nonzero"></path>
                <path d="M85.6641577,10.0437933 L84.1201654,16.2937727 L87.2334501,16.2937727 L85.7127066,10.0437933 L85.6641577,10.0437933 Z M86.6782146,7.44 C86.6782146,7.44 87.2334501,7.44 87.4021177,8.0351319 L91.7462201,24.0066529 C91.9629807,24.8 91.1428915,24.8 91.1428915,24.8 L90.0328764,24.8 C89.767111,24.8 89.4776409,24.6015416 89.3568384,24.2048681 L87.835867,18.6492498 L83.5403136,18.6492498 L81.9477723,24.2048681 C81.8269699,24.6015416 81.5374998,24.8 81.2958949,24.8 L80.1614913,24.8 C80.1614913,24.8 79.3653347,24.8 79.5825512,24.0066529 L83.9747466,8.0351319 C84.144098,7.44 84.6744892,7.44 84.6744892,7.44 L86.6782146,7.44 L86.6782146,7.44 Z" id="Shape" fill="#575756" fill-rule="nonzero"></path>
                <path d="M95.9210933,7.44 C95.9210933,7.44 96.6777742,7.44 96.6777742,8.15941159 L96.6777742,24.0805884 C96.6777742,24.8 95.9463478,24.8 95.9463478,24.8 L94.9623768,24.8 C94.9623768,24.8 94.2302356,24.8 94.2302356,24.0805884 L94.2302356,8.15941159 C94.2302356,7.44 94.9368841,7.44 94.9368841,7.44 L95.9210933,7.44 Z" id="Path" fill="#575756"></path>
                <path d="M108.158327,7.44 C108.158327,7.44 108.915467,7.44 108.915467,8.1589151 L108.915467,24.0810849 C108.915467,24.8 108.183827,24.8 108.183827,24.8 L107.199569,24.8 C107.199569,24.8 106.467929,24.8 106.467929,24.0810849 L106.467929,8.1589151 C106.467929,7.44 107.174307,7.44 107.174307,7.44 L108.158327,7.44 L108.158327,7.44 Z" id="Path" fill="#575756"></path>
                <path d="M114.909258,7.44024321 C114.909258,7.44024321 115.431583,7.44024321 115.718504,7.98599608 L121.225219,20.4843205 L121.068448,8.1589151 C121.068448,8.1589151 121.068448,7.44 121.825929,7.44 L122.843957,7.44 C122.843957,7.44 123.600699,7.44 123.600699,8.1589151 L123.600699,24.0810849 C123.600699,24.0810849 123.600699,24.8 122.843957,24.8 L121.277969,24.8 C121.277969,24.8 120.703634,24.8 120.468724,24.2788109 L114.988383,11.7556795 L115.118286,24.0810849 C115.118286,24.0810849 115.118286,24.8 114.361545,24.8 L113.343517,24.8 C113.343517,24.8 112.586775,24.8 112.586775,24.0810849 L112.586775,8.15915831 C112.586775,8.15915831 112.586775,7.44024321 113.343517,7.44024321 L114.909258,7.44024321 L114.909258,7.44024321 Z" id="Path" fill="#575756"></path>
                <path d="M128.387143,22.4686006 L130.870893,22.4686006 C132.510632,22.4686006 133.49903,21.4515014 133.49903,19.1952535 L133.49903,13.0449897 C133.49903,10.7880122 132.510632,9.77164264 130.870893,9.77164264 L128.387143,9.77164264 L128.387143,22.4686006 Z M130.870893,7.44 C134.463744,7.44 135.838392,9.92 135.838392,13.0449897 L135.838392,19.1950103 C135.838392,22.3207296 134.463744,24.8 130.870893,24.8 L126.048237,24.8 L126.048237,7.44 L130.870893,7.44 L130.870893,7.44 Z" id="Shape" fill="#575756" fill-rule="nonzero"></path>
                <path d="M139.894136,7.44 C139.894136,7.44 140.579761,7.44 140.579761,8.1518149 L140.579761,18.5386295 C140.579761,21.558786 141.407425,22.4675781 143.204569,22.4675781 C144.812551,22.4675781 145.782253,21.558786 145.782253,18.5386295 L145.782253,8.1518149 C145.782253,7.44 146.444206,7.44 146.444206,7.44 L147.389789,7.44 C147.389789,7.44 148.076085,7.44 148.076085,8.1518149 L148.076085,18.4160606 C148.076085,21.8292082 146.72806,24.8 143.204792,24.8 C139.775994,24.8 138.28593,21.9028941 138.28593,18.4160606 L138.28593,8.1518149 C138.28593,7.44 138.948329,7.44 138.948329,7.44 L139.894136,7.44 L139.894136,7.44 Z" id="Path" fill="#575756"></path>
                <path d="M160.100933,11.427831 C160.148505,11.7194374 160.077036,12.1083255 159.62812,12.2544863 L158.800419,12.4731315 C158.350833,12.5952104 157.949489,12.4490496 157.830448,11.9380826 C157.476006,10.4066125 156.766675,9.82316119 155.371464,9.82316119 C153.574462,9.82316119 152.983278,10.9416614 152.983278,11.8655983 C152.983278,12.6676948 153.219349,13.3977838 153.976476,13.8107538 L158.043963,15.9986364 C159.486076,16.7764125 160.313777,18.3570003 160.313777,19.9614317 C160.313777,22.7091605 158.516775,24.8 155.371464,24.8 C153.432193,24.8 150.523623,23.6567026 150.523623,19.8159862 C150.523623,19.1106944 151.20995,19.1106944 151.20995,19.1106944 L152.155576,19.1106944 C152.155576,19.1106944 152.818006,19.1106944 152.818006,19.8159862 C152.818006,22.0038688 154.212547,22.4900385 155.371464,22.4900385 C157.286836,22.4900385 158.020065,21.1040138 158.020065,19.9614317 C158.020065,19.1836556 157.68885,18.4051643 156.52971,17.797631 L153.124653,15.9986364 C150.949311,14.855339 150.688895,13.0563444 150.688895,11.7923986 C150.688895,8.99698275 152.84101,7.44 155.37124,7.44 C158.232909,7.44 159.769495,9.1424283 160.100933,11.427831" id="Path" fill="#575756"></path>
                <path d="M170.648597,7.44024321 C171.327701,7.44024321 171.327701,8.13435136 171.327701,8.13435136 L171.327701,9.07677221 C171.327701,9.07677221 171.327701,9.79617372 170.648597,9.79617372 L167.557016,9.79617372 L167.557016,24.0810849 C167.557016,24.8 166.900918,24.8 166.900918,24.8 L165.96433,24.8 C165.96433,24.8 165.285226,24.8 165.285226,24.0810849 L165.285226,9.79617372 L162.216651,9.79617372 C161.537547,9.79617372 161.537547,9.10133595 161.537547,9.10133595 L161.537547,8.1589151 C161.537547,8.1589151 161.537547,7.44 162.216651,7.44 L170.648597,7.44 L170.648597,7.44024321 Z" id="Path" fill="#575756"></path>
                <path d="M176.247527,15.5495698 L178.262055,15.5495698 C180.301626,15.5495698 181.117695,14.5577921 181.117695,12.549187 C181.117695,10.2922727 179.99557,9.77182051 178.262055,9.77182051 L176.247527,9.77182051 L176.247527,15.5495698 Z M178.262055,7.44 C182.060906,7.44 183.590705,9.42404169 183.590705,12.5983138 C183.590705,15.351117 182.51987,16.7149936 180.506064,17.5083185 L182.341678,21.2774626 C182.800642,22.0469537 183.207834,22.4436161 183.667038,22.4436161 L184.049909,22.4436161 C184.789163,22.4436161 184.789163,23.1878141 184.789163,23.1878141 L184.789163,24.055802 C184.789163,24.055802 184.789163,24.8 184.049909,24.8 L183.514371,24.8 C181.984573,24.8 181.14346,24.030509 180.021335,22.1216167 L178.032573,17.9059537 L176.247527,17.9059537 L176.247527,24.081095 C176.247527,24.8 175.53452,24.8 175.53452,24.8 L174.513771,24.8 C174.513771,24.8 173.77524,24.8 173.77524,24.081095 L173.77524,7.4402432 L178.262055,7.4402432 L178.262055,7.44 Z" id="Shape" fill="#575756" fill-rule="nonzero"></path>
                <path d="M188.9271,7.44 C188.9271,7.44 189.684241,7.44 189.684241,8.1589151 L189.684241,24.0810849 C189.684241,24.8 188.9526,24.8 188.9526,24.8 L187.968342,24.8 C187.968342,24.8 187.236702,24.8 187.236702,24.0810849 L187.236702,8.1589151 C187.236702,7.44 187.94308,7.44 187.94308,7.44 L188.9271,7.44 L188.9271,7.44 Z" id="Path" fill="#575756"></path>
                <path d="M198.251321,10.044 L196.706826,16.2931622 L199.820206,16.2931622 L198.299872,10.044 L198.251321,10.044 Z M199.264726,7.44 C199.264726,7.44 199.819978,7.44 199.988651,8.03512356 L204.332887,24.0066641 C204.55011,24.8 203.729084,24.8 203.729084,24.8 L202.619718,24.8 C202.353945,24.8 202.064466,24.6015444 201.94366,24.2048764 L200.423325,18.6493359 L196.12764,18.6493359 L194.534594,24.2048764 C194.414472,24.6015444 194.124309,24.8 193.882696,24.8 L192.748942,24.8 C192.748942,24.8 191.952077,24.8 192.1693,24.0066641 L196.561402,8.03512356 C196.730759,7.44 197.26185,7.44 197.26185,7.44 L199.264726,7.44 Z" id="Shape" fill="#575756" fill-rule="nonzero"></path>
                <path d="M208.603846,7.44 C208.603846,7.44 209.365732,7.44 209.365732,8.1589151 L209.365732,22.4438263 L214.594458,22.4438263 C215.383396,22.4438263 215.383396,23.1379344 215.383396,23.1379344 L215.383396,24.0810849 C215.383396,24.0810849 215.383396,24.8 214.594458,24.8 L206.817011,24.8 L206.817011,8.1589151 C206.817011,7.44 207.553087,7.44 207.553087,7.44 L208.603846,7.44 L208.603846,7.44 Z" id="Path" fill="#575756"></path>
                <path d="M16.4809598,0.494468098 C15.8266397,-0.164822699 14.7666733,-0.164822699 14.1112041,0.494468098 L0.491601909,14.3011492 C-0.163867303,14.9657963 -0.163867303,16.0370565 0.491601909,16.7037996 L14.1112041,30.5009325 C14.435951,30.8348862 14.8650397,31 15.2955074,31 C15.7259751,31 16.1550638,30.8311601 16.4809598,30.5009325 C17.1357395,29.8379155 17.1357395,28.7624634 16.4809598,28.0978163 L4.04612044,15.5030566 L16.4809598,2.89758422 C17.1357395,2.23759477 17.1357395,1.15678637 16.4809598,0.494468098 L16.4809598,0.494468098 Z M21.5900343,5.67331259 C20.9338756,5.00866549 19.8732198,5.00866549 19.2184401,5.67331259 C18.5629708,6.33632951 18.5629708,7.40991855 19.2184401,8.07340123 L26.5435153,15.4970016 L19.2184401,22.9236295 C18.5629708,23.5840847 18.5611322,24.6602355 19.2172909,25.3286087 C19.5454852,25.6581377 19.9741142,25.8216213 20.400445,25.8216213 C20.8309127,25.8216213 21.2600014,25.6583705 21.5888852,25.3286087 L30.1012515,16.7037996 C30.4158859,16.3861476 30.5942323,15.9494926 30.5942323,15.5030566 C30.5942323,15.0482368 30.4156561,14.6169381 30.1012515,14.3011492 L21.5900343,5.67331259 Z" id="Shape" fill="#0047BA" fill-rule="nonzero"></path>
                <path d="M233.764735,11.2011544 C233.815425,11.4930423 233.739607,11.8820865 233.262171,12.0282398 L232.381385,12.2464229 C231.903516,12.3682871 231.42608,12.1253962 231.350262,11.7116441 C231.19906,10.2773314 230.31914,9.37779743 228.708769,9.37779743 C226.771732,9.37779743 225.891812,10.3506174 225.891812,12.611178 L225.891812,18.9087532 C225.891812,21.1701514 226.771732,22.1178447 228.708769,22.1178447 C230.419653,22.1178447 231.42608,21.1454435 231.42608,18.9087532 C231.42608,18.203532 232.130103,18.203532 232.130103,18.203532 L233.136097,18.203532 C233.136097,18.203532 233.865248,18.203532 233.865248,18.9087532 C233.865248,21.996818 232.456769,24.4278211 228.708769,24.4278211 C225.237613,24.4278211 223.451345,22.1178447 223.451345,18.9087532 L223.451345,12.611178 C223.451345,9.40166774 225.237613,7.06782107 228.708769,7.06782107 C231.979334,7.06782107 233.41294,8.940175 233.764735,11.2011544" id="Fill-29" fill="#575756"></path>
                <path d="M238.491613,7.06782107 C238.491613,7.06782107 239.267403,7.06782107 239.267403,7.78714982 L239.267403,23.7084923 C239.267403,24.4278211 238.518334,24.4278211 238.518334,24.4278211 L237.510074,24.4278211 C237.510074,24.4278211 236.759669,24.4278211 236.759669,23.7084923 L236.759669,7.78714982 C236.759669,7.06782107 237.483353,7.06782107 237.483353,7.06782107 L238.491613,7.06782107 Z" id="Fill-31" fill="#575756"></path>
                <path d="M252.26968,7.06782107 C252.986188,7.06782107 252.986188,7.76194769 252.986188,7.76194769 L252.986188,8.70425127 C252.986188,8.70425127 252.986188,9.42400719 252.26968,9.42400719 L249.008804,9.42400719 L249.008804,23.7084923 C249.008804,24.4278211 248.317399,24.4278211 248.317399,24.4278211 L247.329435,24.4278211 C247.329435,24.4278211 246.612502,24.4278211 246.612502,23.7084923 L246.612502,9.42400719 L243.377154,9.42400719 C242.660221,9.42400719 242.660221,8.72902625 242.660221,8.72902625 L242.660221,7.78714982 C242.660221,7.78714982 242.660221,7.06782107 243.377154,7.06782107 L252.26968,7.06782107 Z" id="Fill-33" fill="#575756"></path>
                <path d="M256.375997,7.06782107 C256.646117,7.06782107 256.940753,7.26602092 257.06292,7.66284776 L260.450611,16.2435343 L260.695789,16.2435343 L263.713599,7.66284776 C263.836611,7.26602092 264.132093,7.06782107 264.401367,7.06782107 L265.579492,7.06782107 C265.874129,7.06782107 266.46298,7.06782107 266.193706,7.86104761 L260.450611,23.8327944 C260.228682,24.4278211 260.032116,24.4278211 259.762843,24.4278211 L258.634176,24.4278211 C258.339539,24.4278211 257.750688,24.4278211 258.020807,23.6341674 L259.615313,19.2199492 L259.394652,19.2199492 C259.198932,19.2199492 259.026884,19.0460972 258.952908,18.8478973 L254.584503,7.86104761 C254.289444,7.19126882 254.55914,7.06782107 255.026247,7.06782107 L256.375997,7.06782107 Z" id="Fill-35" fill="#575756"></path>
            </g>
        </g>
    </g>
</svg>